<?xml version="1.0" encoding="utf-8"?>
<!-- Generator: Adobe Illustrator 21.1.0, SVG Export Plug-In . SVG Version: 6.00 Build 0)  -->
<svg version="1.1" id="Layer_1" xmlns="http://www.w3.org/2000/svg" xmlns:xlink="http://www.w3.org/1999/xlink" x="0px" y="0px"
	 viewBox="0 0 137.1 136" style="enable-background:new 0 0 137.1 136;" xml:space="preserve">
<style type="text/css">
	.st0{fill:#0A0A0A;}
	.st1{opacity:0.1797;enable-background:new    ;}
	.st2{fill:#FFFFFF;}
	.st3{opacity:0.1797;fill:#AAAAAA;enable-background:new    ;}
	.st4{fill:#262626;}
	.st5{opacity:0.1797;fill:#FFFFFF;enable-background:new    ;}
	.st6{opacity:0.1797;fill:#666666;enable-background:new    ;}
</style>
<g>
	<g>
		<path class="st0" d="M49.8,36.8c-0.7-0.6-7.6-3.7-8.2-4.3c-0.5-0.5,1.1-5.7,1.1-5.7l1.2,2.4l2.4-6.2l0.9,3.2l5-7.7l2.6,2l4.1-4.5
			l2.7,3.6l4.3-2.1l1.5,3.6l5.8-0.5l2.3,1.8l3.7-3.4l0.2,4.3l7.5-2.7L86,25.2l5.7,0.1l-0.5,2.5l7,0.4l-5.8,3.1l5,1.9l-2.1,2.7
			l6.4-0.2l-5.9,3.2l3.6,1.8l-7.5-0.1l1.1,5.3l-2.6,8.4c0,0,11.4-0.2,16.1-2.4c4.7-2.3-4.9,9.8-4.9,9.8l-7,1.8l0.8,7.6l-2.7-2.8
			l-1.5,16.9l-3.3-4.1l0.6,9.9l-3.2-3.7L85,92.3l-3.3-2.6l0.7,7.1l-3.1-1.9l-0.8,9l-2.6-4.1l-1.2,9.4l-2.7-0.6l-0.6,4.4l-2.8,1.3
			l-2,3l-1.7-4c0,0-3.6,7.6-4.9,8.2c-1.3,0.6-0.5-4.4-0.5-4.4l-0.9-4.9l-2,10.7l-1.1-3.8l-1.2-2.1l0.2-2.3l-2.6,3.3l2.3-7.5
			l-1.7-3.3l-4.4,0.4l0.9-2.8l-1.9-1.9l-0.1-5.8l-2.3-2.1l-0.5-6.9l-2.1,1.4l1.8-12.4l-4,0.8l2.8-9.5l-2.4,3.8l2.3-11.7l-2,3
			L40,57.6c0,0-6.8-2-5.1-12.6l9.8,5.9l2.1,1.5l-0.6-4.4l2.4-3l-0.9-4.6L49.8,36.8z"/>
		<g>
			<g>
				<path class="st1" d="M49.3,35c-2.7-1.5-5.7-2.6-8.3-4.3c0.1,0.4,0.4,0.7,0.5,1.1c-0.1-1.9,0.8-3.9,1.5-5.7c-0.2,0-0.4,0-0.6-0.1
					c0.1,1.2,0.6,2.4,1.1,3.3l0,0c1.2-2.3,2.1-4.4,3.1-6.8c-0.1-0.1-0.4-0.1-0.5-0.2c-0.1,1.3,0.2,2.5,0.6,3.7l0,0
					c1.1-0.1,2.3-2.4,2.7-3.2c1.1-1.5,2.1-3.1,3.2-4.6c-0.1-0.1-0.2-0.2-0.5-0.2c0.7,0.8,1.4,2,2.3,2.7c0.1,0,0.5,0,0.6,0
					c1.4-1.5,2.8-3.1,4.3-4.6c-0.1-0.1-0.2-0.2-0.4-0.5c0.2,0.8,0.6,1.5,0.9,2.4c0.5,0.6,0.8,1.2,1.2,1.8c0,0,0.5,0.4,0.5,0.2
					c1.3-0.9,3-1.5,4.4-2.1c0-0.1,0-0.4,0-0.5c-0.2,1.4,0.5,2.5,0.8,3.8c0,0.1,0.4,0.4,0.5,0.4c0.8-0.1,1.5-0.2,2.4-0.4
					c0.7-0.1,2.8-0.5,3.4-0.2c0.7,0.2,1.4,1.2,2,1.7c0,0,0.5,0.1,0.6,0c1.1-1.4,2.6-2.5,3.9-3.7c-0.1-0.2-0.1-0.4-0.2-0.6
					c-0.5,1.4-0.2,3.1-0.6,4.6c0,0.1,0.1,0.5,0.2,0.5c2.7-0.7,5.3-1.9,8.1-2.8c0-0.2,0-0.4,0.1-0.6c-0.9,1.4-1.1,3.2-1.9,4.9
					c-0.1,0.1,0,0.5,0.1,0.5c2,0.1,4,0.1,6,0c-0.2,0-0.4,0-0.6-0.1c0.2,0.1,0.5,0.4,0.6,0.5c-0.1-0.1-0.2-0.2-0.4-0.4
					c-0.1,0.7-0.4,1.3-0.7,1.9c0,0.1,0,0.5,0.2,0.6c1.1,0.1,2.3,0.1,3.3,0.1c0.7,0,3.1,0.4,3.7-0.1c-0.8,0.7-2.4,1.1-3.3,1.4
					c-0.9,0.4-1.9,0.7-2.8,0.8c-0.4,0-0.2,0.5,0,0.6c1.8,1.1,3.8,1.9,5.8,2.4c-0.1-0.1-0.2-0.2-0.4-0.5c-0.9,0.7-1.7,1.8-2.6,2.4
					C94,35,94,35.3,94.3,35.5c2.4,0.2,4.7,0.1,7.1-0.4c-0.2,0-0.4,0-0.6,0c0.1,0,0.2,0,0.5,0.1c0.1-0.1,0.4-0.1,0.5-0.2
					c-1.1-0.1-1.8,0.4-2.8,0.8c-1.4,0.6-2.7,1.3-4.3,1.5c-0.1,0-0.4,0.4-0.1,0.5c0.5,0.4,0.9,0.6,1.4,0.9c0.7,0.4,1.3,0.7,2,1.1
					c0.7,0.5,0.9,0.6,0.6,0.1c-0.7-0.7-2.5-0.5-3.6-0.6c-1.4-0.1-2.8-0.2-4.1-0.6c-0.1,0-0.4,0.2-0.4,0.4c0.6,2.3,1.5,4.9,0.7,7.1
					c-0.8,2.4-1.5,4.7-2.5,7.1c-0.1,0.2,0,0.5,0.2,0.5c4.3,0.4,8.6-0.5,12.9-1.2c0.2,0,4.5-1.3,4.6-1.2c0.6-0.4,0.7-0.1,0.5,0.5
					c-0.4,0.6-0.7,1.3-1.2,1.9c-0.9,1.4-2.1,2.6-3.2,3.9c-0.8,0.9-1.7,2.4-3,2.8c-0.6,0.2-2,0.2-2.5,0.4c-1.4,0.2-3,0.6-4.4,0.7
					c-0.2,0-0.4,0.1-0.2,0.4c0.9,2.7,0.9,5.8,1.4,8.6c0.1-0.1,0.2-0.2,0.5-0.2c-0.5-1.4-1.5-2.5-2.3-3.7c-0.1-0.2-0.6-0.2-0.6,0
					c-0.5,5.9-1.1,11.8-1.9,17.6c0.1,0,0.4,0,0.5,0c-0.6-1.8-1.9-3.2-2.8-4.9c-0.1-0.2-0.6-0.2-0.6,0.1c0.1,3.6,0.4,7.1,0.4,10.7
					c0.1,0,0.2-0.1,0.4-0.1c-0.5-1.7-1.9-3-2.7-4.4c-0.1-0.1-0.6-0.4-0.6,0c-0.1,1.9,0,3.9-0.4,5.8c0.1-0.1,0.2-0.1,0.4-0.2
					c-0.7-1.3-2.3-2.3-3.2-3.4c-0.1-0.1-0.5-0.1-0.5,0.1c0.2,2.7,0.6,5.4,0.7,8.2c0.1-0.1,0.2-0.1,0.4-0.2c-0.7-1.1-2-1.8-3-2.7
					c-0.1-0.1-0.5,0-0.5,0.2c-0.1,3.2-0.6,6.4-0.9,9.6c0.1,0,0.4,0,0.5,0c-0.4-1.8-1.5-3.3-2.1-4.9c-0.1-0.2-0.5-0.2-0.6,0
					c-0.5,3.3-0.8,6.8-1.5,10.1c0.1,0,0.2,0,0.4-0.1c-0.8-0.6-2-0.8-2.8-1.3c-0.2-0.1-0.5,0-0.5,0.2c0,0.9-0.1,1.8-0.2,2.7
					c-0.1,0.6-0.1,1.3-0.2,1.9c-0.2,0.5-1.5,0.6-2,0.7c-0.5,0.1-0.9,0.2-1.3,0.5c-0.8,0.6-1.4,2.3-2,3.1c0.2,0.1,0.6,0.2,0.8,0.2
					c-0.2-1.5-0.8-3-1.1-4.4c0-0.2-0.5-0.6-0.6-0.2c-0.7,1.8-1.7,3.4-2.6,5c-0.5,0.7-0.8,1.4-1.4,2c-0.5,0.4-0.8,0.6-1.3,0.9
					c-0.2-0.1,0.4-2.3,0.4-2.5c0.1-0.7,0.4-1.2,0.4-1.9c0-1.5-0.6-3.2-0.7-4.7c0-0.2-0.5-0.2-0.6,0c-1.2,3.8-1.5,7.7-2.7,11.5
					c0.1,0,0.2,0.1,0.4,0.1c0.1-1.4-0.1-3.3-0.5-4.6c-0.2-0.6-0.6-1.1-0.8-1.7c-0.4-0.9-0.1-1.8,0.1-2.7c0-0.2-0.4-0.5-0.5-0.2
					c-1.1,1.3-2,2.7-3.4,3.7c0.1,0.1,0.2,0.2,0.4,0.4c1.3-2.1,2-4.6,2.8-7c0.6-1.5-0.8-3.2-1.5-4.6c-0.1,0-0.1-0.1-0.2-0.1
					c-1.8,0.1-3.4,0.2-5.2,0.2c0.2,0.2,0.4,0.6,0.6,0.8c0.5-0.9,0.9-1.9,1.5-2.8c0-0.1,0-0.1,0-0.2c-0.7-0.8-1.5-1.5-2.3-2.4
					c0,0.2,0.1,0.5,0.1,0.6c0.2-1.2,0.1-2.5,0.1-3.7c0-0.8,0.2-2-0.1-2.6c-0.4-0.5-1.2-1.1-1.5-1.5c-0.6-0.6-0.7-0.5-0.7-1.2
					c-0.2-2-0.2-4.1-0.2-6.2c0-0.2-0.4-0.2-0.5-0.1c-0.8,0.7-1.7,1.4-2.7,1.8c0.1,0.1,0.4,0.4,0.5,0.5c1.5-3.9,1.7-8.4,2.5-12.6
					c0-0.2-0.2-0.4-0.5-0.2c-1.5,0.4-3.1,0.6-4.6,0.6c0.1,0.2,0.2,0.5,0.4,0.6c1.5-3,2.4-6.4,3.6-9.5c0.1-0.2-0.5-0.4-0.5-0.2
					c-0.9,1.3-1.7,3-3,4c0.1,0.1,0.1,0.2,0.2,0.4c1.7-3.8,2.1-8.1,3.1-12.1c0-0.2-0.5-0.4-0.6-0.2c-0.4,0.4-1.8,3.1-2.1,3
					c0.1,0-0.1-4.7-0.2-4.9c0-0.6,0-0.7-0.2-1.1c-0.2-0.4-1.1-0.6-1.3-0.8c-3.6-2.5-4.1-5.9-3.6-11.5c-0.1,0-0.4,0.1-0.5,0.1
					c0.8,0.7,1.7,1.3,2.5,2c0.1,0.1,0.5-0.2,0.6-0.1c-1.1-0.6-2-1.4-2.7-2.5c-0.1-0.2-0.5,0-0.5,0.1c-0.4,4-0.6,8.3,2.5,11.4
					c0.5,0.6,1.2,1.1,1.9,1.4c0.1,0.1,0.6,0.1,0.7,0.4c0.4,0.4,0.2,1.2,0.2,1.7c0.1,1.4,0.4,3,0.1,4.4c0,0.1,0.2,0.2,0.4,0.1
					c0.8-1.2,1.9-2.4,3-3.3c-0.2-0.1-0.4-0.1-0.6-0.2c-0.4,1.7-0.7,3.3-1.1,5.1c-0.2,1.3-0.6,2.6-0.8,3.9c-0.2,0.9-0.5,2-0.8,3
					c-0.2,0.2,0,0.7,0.2,0.5c0.9-1.4,2-3.1,3.3-4.1c-0.1-0.1-0.4-0.1-0.5-0.2c-0.5,1.3-0.8,2.6-1.3,3.9c-0.5,1.3-0.9,4.4-2.3,5.2
					c-0.4,0.2,0.1,0.8,0.5,0.7c1.5-0.5,3.2-0.9,4.7-0.9c-0.1-0.1-0.2-0.2-0.4-0.2c-0.2,1.4-0.5,2.8-0.7,4.3c-0.1,1.1-0.4,2-0.5,3.1
					c-0.2,1.7-0.7,3.4-1.2,5c-0.2,0.4,0.1,0.7,0.5,0.5c0.8-0.6,1.8-1.3,2.7-1.7c-0.1-0.1-0.2-0.1-0.4-0.2c0.1,2,0.6,4.4,0.2,6.3
					c0,0.2,0,0.6,0.1,0.7c0.7,0.6,1.9,1.3,2.3,2c0.5,0.9,0.2,4.5-0.1,5.2c0,0.1,0,0.5,0.1,0.6c0.5,0.5,1.3,0.9,1.5,1.4
					c0.5,0.8,0,2.3-1.1,2.4c-0.6,0,0,1.1,0.4,0.9c1.1-0.2,2.3-0.4,3.4-0.5c1.1-0.2,1.7,0.1,1.8,0.9c0.2,0.5,0.5,0.9,0.7,1.3
					c0.4,0.8,0.4,0.9,0,2c-0.2,0.9-0.6,1.8-0.9,2.7c-0.4,1.2-0.8,2.4-1.5,3.4c-0.5,0.4,0,0.8,0.2,0.6c1.1-1.3,2.1-2.7,3.6-3.7
					c-0.1-0.1-0.4-0.2-0.5-0.2c-0.2,1.1-0.6,1.9-0.2,2.8c0.4,0.8,0.8,1.4,1.1,2.3c0.2,0.9,0.9,3,0.6,3.9c-0.1,0.4,0.4,0.6,0.4,0.4
					c0.7-3.8,1.3-7.9,2.8-11.5c-0.2,0-0.4,0-0.6,0c0.2,1.5,0.8,3.3,0.7,4.9s-0.6,3.1-0.7,4.6c0,0.2,0.2,0.4,0.4,0.4
					c0.1,0,0.2,0.1,0.2,0.1c0.1,0,0.2,0.1,0.4,0c2.6-2.3,3.4-6,5.4-8.8c-0.2-0.1-0.4-0.1-0.6-0.2c0.1,0.8,1.4,3.6,0.8,4.3
					c-0.4,0.5,0.6,0.8,0.8,0.6c0.6-0.9,1.2-2.4,2-3c0.7-0.5,1.9-0.9,2.7-1.1c0.1,0,0.1-0.1,0.2-0.2c0.2-1.5,0.4-3.2,0.8-4.7
					c-0.1,0-0.2,0.1-0.5,0.1c0.8,0.4,1.9,0.6,2.6,1.2c0.2,0.1,0.4-0.1,0.4-0.2c0.5-3.3,0.6-6.8,1.7-9.9c-0.2,0-0.4,0-0.6,0
					c0.7,1.5,2,3.2,2.3,5c0,0.4,0.5,0.1,0.5-0.1c0.4-3.2,0.4-6.5,1.2-9.6c-0.1,0.1-0.4,0.1-0.5,0.2c0.9,0.9,2.1,1.5,3,2.6
					c0.2,0.4,0.4-0.2,0.4-0.4c-0.1-2.5-0.5-5.2-0.4-7.7c-0.1,0-0.4,0.1-0.5,0.1c1.1,1.1,2.4,2,3.2,3.3c0.1,0.2,0.4,0,0.4-0.2
					c0.1-1.9,0.1-3.8,0.6-5.7c-0.2,0-0.4,0-0.6,0c0.9,1.5,2.4,2.8,3,4.5c0.1,0.2,0.4-0.1,0.4-0.2c-0.1-3.4-0.6-7.1-0.1-10.5
					c-0.2,0-0.4,0-0.6,0c0.8,1.5,2.5,3.1,2.8,4.9c0,0.2,0.5,0.2,0.5,0c0.2-2.5,0.5-5.1,0.7-7.6c0.4-3.3,0.4-7,1.3-10.2
					c-0.2,0-0.4,0-0.6,0c0.7,1.2,2,2.4,2.4,3.7c0.1,0.4,0.5,0.1,0.5-0.1c-0.1-1.7-0.4-3.3-0.5-5c0-0.5-0.5-2.3-0.2-2.7
					c0.2-0.5,0.6-0.4,1.1-0.5c1.7-0.4,3.7-0.6,5.2-1.1c0.7-0.2,0.9-0.7,1.5-1.3c0.8-1.1,7.2-7.8,5.9-8.9c-0.5-0.4-6,1.5-4.5,1.1
					c-2.6,0.7-4.5,1.1-7,1.2c-2.3,0.1-4.6,0.4-6.9,0.1c0.1,0.1,0.2,0.2,0.2,0.5c0.5-1.4,0.8-2.8,1.3-4.1c0.4-1.3,1.2-2.8,1.3-4.1
					c0-0.5-0.1-0.9-0.1-1.3c-0.2-1.5-0.6-3.2-0.7-4.9c-0.1,0.1-0.2,0.2-0.4,0.4c2.7,0.2,5.4,0.5,8.1,0.7c0,0-0.2-0.4-0.2-0.5
					c-1.2-0.9-2.5-1.5-3.7-2.4c0,0.1-0.1,0.4-0.1,0.5c1.1-0.5,2-0.9,3.1-1.3c1.3-0.6,2.6-0.9,3.8-1.7l0,0c-1.4,0.2-3.1,0-4.4,0
					c-0.9,0-1.9,0-2.8-0.1c0,0.2,0,0.4,0.1,0.6c0.9-0.8,1.7-1.9,2.7-2.5c0,0-0.4-0.4-0.4-0.5c-1.7-1.1-3.6-1.5-5.2-2.5
					c0,0.2,0,0.4,0,0.6c1.1-0.4,2.1-0.8,3.1-1.3c1.3-0.5,2.6-0.8,3.8-1.5l0,0c-2.6,0.1-5.3-0.2-7.9-0.7c0,0.2,0.1,0.4,0.1,0.6
					c0.5-0.8,0.7-1.8,1.2-2.7l0,0c-2.1,0-4.4-0.2-6.5-0.5c0,0.1,0.1,0.4,0.1,0.5c0.2-0.7,0.5-1.5,0.7-2.3c0.2-0.8,0.6-1.7,0.8-2.5
					c-0.1-0.5-0.4-0.6-0.7-0.2c-0.6,0.2-1.1,0.5-1.7,0.6c-0.7,0.4-1.5,0.7-2.4,0.9c-1.2,0.4-2.4,0.7-3.6,0.9
					c0.1,0.1,0.1,0.4,0.2,0.5c0.2-1.4,0-3.1,0.6-4.5c0-0.1-0.2-0.6-0.2-0.6c-0.7,0.7-3.7,4-3.9,4c-0.6-0.2-1.4-1.3-1.9-1.9l0,0
					c-1.4,0.2-6,0.9-6.3,0.6c-0.6-1.1-0.7-2.6-1.2-3.8l0,0c-0.8,0.5-4.4,2.6-4.6,2.4c-0.2-0.2-0.6-0.9-0.7-1.3
					c-0.4-0.6-1.4-1.7-1.5-2.4c0,0-0.2-0.6-0.4-0.5c-1.4,1.7-2.8,3.8-4.6,5.1c0.2,0,0.4,0,0.6,0c-0.7-0.9-2-1.4-2.5-2.5
					c0-0.1-0.4-0.4-0.5-0.2c-0.7,1.1-1.4,2.3-2.3,3.3c-0.9,1.4-1.9,3.7-3.2,4.7c0,0.1,0.1,0.4,0.1,0.5c-0.1-1.3-0.1-2.6-0.1-3.8
					c0-0.1-0.5-0.4-0.5-0.2c-0.9,2.1-1.9,4.3-2.6,6.5c0.1-0.1,0.2-0.2,0.5-0.4c-0.6,0-0.5-0.5-0.6-0.9c-0.1-0.6-0.4-1.1-0.4-1.7
					c0-0.2-0.5-0.2-0.6-0.1c-0.7,1.5-1.2,3.3-1.9,4.9c-0.1,0.2,0.2,1.1,0.5,1.2c2.6,1.7,5.6,2.7,8.2,4.1C50,36.5,49.6,35.1,49.3,35z
					"/>
				<path class="st1" d="M39.8,48.7c2.1,1.1,4,2.5,5.9,3.9c0,0,0.6,0.2,0.6,0.1c0-0.5,0-1.1,0-1.5h-0.6c0.1,0.5,0.1,0.9,0,1.3
					c0.2,0,0.4,0.1,0.6,0.1c-2-1.7-4.4-3-6.4-4.6C40,48.1,39.8,48.7,39.8,48.7z"/>
				<path class="st1" d="M49.8,36.1c-2.6-1.5-5.7-2.6-8.2-4.3c0.1,0.2,0.2,0.4,0.4,0.6c-0.2-1.8,0.6-4.1,1.3-5.7
					c-0.2,0-0.4,0-0.6,0.1c0.2,0.4,0.7,1.9,0.9,2.6c0,0.2,0.5,0.4,0.6,0.1c0.9-2,1.7-4.3,2.6-6.3c-0.1,0-0.4-0.1-0.5-0.1
					c0.2,1.1,0.4,2.3,0.5,3.4c0,0.2,0.4,0.4,0.5,0.2c0.9-1.3,1.7-2.7,2.6-4c0.5-0.7,1.4-2.7,2.1-3c0.8-0.4-0.2-1.1,1.1,0.1
					c0.6,0.5,1.2,0.9,1.7,1.5c0.1,0.1,0.4,0,0.5-0.1c0.9-1.3,2.3-2.5,3.3-3.7c0.6-0.7,0.5-0.7,1.1,0.1c0.6,0.9,1.4,1.9,1.9,2.8
					c0,0.1,0.4,0.1,0.4,0c1.4-0.8,3-1.5,4.5-2.3c-0.1-0.1-0.4-0.2-0.5-0.4c0.4,1.3,1.1,2.6,1.4,3.9c0,0.1,0.2,0.1,0.4,0.1
					c1.2-0.2,2.4-0.2,3.6-0.4c0.6,0,1.7-0.4,2.3-0.1c0.7,0.2,1.5,1.3,2.1,1.8c0.1,0.1,0.4,0.1,0.5-0.1c1.1-1.4,2.5-2.6,3.8-3.8
					c-0.1-0.1-0.4-0.2-0.5-0.2c-0.2,1.5,0,3.1-0.2,4.6c0,0.1,0.4,0.2,0.4,0.2c2.5-1.1,5.1-2,7.7-2.7c-0.1-0.1-0.2-0.4-0.4-0.5
					c-0.5,1.5-0.7,3.2-1.3,4.7c-0.1,0.2,0.1,0.5,0.4,0.5c2-0.1,4,0,5.9,0.1c-0.1-0.2-0.2-0.4-0.2-0.6c-0.2,0.8-0.5,1.8-0.7,2.6
					c-0.1,0.1,0,0.4,0.2,0.4c2.5,0,5,0.2,7.3,0.5c0-0.2-0.1-0.5-0.1-0.7c-2,1.1-4.1,2-6.3,2.8c-0.1,0-0.2,0.5-0.1,0.5
					c1.8,0.7,3.7,1.3,5.3,2.3c0-0.2,0-0.4-0.1-0.6c-0.8,0.8-1.5,1.9-2.5,2.7c-0.1,0.1-0.1,0.5,0.1,0.5c2.4-0.1,4.6-0.4,6.9-0.1
					c0-0.2-0.1-0.5-0.1-0.6c-2.1,0.9-4.3,2-6.4,2.8c-0.1,0-0.4,0.4-0.1,0.5c1.3,0.7,2.6,1.2,3.8,2.1c0.1-0.2,0.2-0.4,0.4-0.6
					c-2.6-0.1-5.2-0.2-7.8-0.5c-0.2,0-0.4,0.2-0.2,0.5c0.5,1.9,1.3,4.6,0.6,6.4c-0.9,2.5-1.7,5.1-2.5,7.6c-0.1,0.1,0,0.4,0.2,0.4
					c3.6-0.4,7-0.4,10.5-0.8c1.5-0.2,3.1-0.5,4.6-0.9c1.4-1.2,2.1-1.1,2.1,0.5c-0.4,0.6-0.7,1.2-1.2,1.8c-0.9,1.4-2,2.7-3.1,4
					c-0.6,0.7-1.2,1.8-2,2.3s-2.4,0.5-3.3,0.7c-1.2,0.2-2.4,0.6-3.7,0.8c-0.1,0-0.1,0.2-0.1,0.4c0.6,2.6,0.7,5.4,0.8,8.2
					c0.2-0.2,0.6-0.4,0.8-0.6c-0.9-0.8-1.8-2-2.6-3.2c-0.1-0.1-0.5-0.1-0.6,0.1c-0.1,3-0.7,5.8-1.1,8.8c-0.4,2.8-0.6,5.8-0.9,8.6
					c0.4-0.1,0.6-0.2,0.9-0.5c-1.2-1.2-2.3-2.8-3.2-4.3c-0.1-0.2-0.6,0-0.6,0.2c0.2,3.4,0.4,6.9,0.2,10.3c0.2-0.1,0.5-0.2,0.7-0.4
					c-1.2-1.2-2.1-2.6-3.1-3.9c-0.1-0.1-0.5,0.1-0.5,0.2c0,1.8-0.1,3.6-0.5,5.3c0.2-0.1,0.4-0.2,0.6-0.2c-1.1-0.9-2.3-1.9-3.3-3
					c-0.1-0.1-0.5,0.1-0.5,0.2c0.2,2.5,0.5,5.1,0.5,7.7c0.2-0.1,0.4-0.2,0.6-0.4c-1.1-0.7-2-1.4-3-2.1c-0.2-0.1-0.5,0-0.5,0.2
					c-0.1,3.1-0.7,6.3-1.2,9.2c0.2-0.1,0.6-0.2,0.8-0.4c-1.1-1.3-1.8-2.8-2.5-4.4c-0.1-0.2-0.6-0.1-0.6,0.1
					c-0.2,3.2-0.9,6.5-1.5,9.7c0.2-0.1,0.5-0.2,0.7-0.4c-0.9-0.4-2-0.5-3-0.8c-0.2,0-0.4,0.1-0.4,0.4c-0.1,1.2-0.4,2.3-0.6,3.4
					c-0.1,0.4-0.1,0.7-0.2,0.9c-0.6,0.2-1.2,0.5-1.8,0.7c-1.7,0.7-0.8,0.1-1.5,0.9c-0.7,0.8-1.2,1.8-1.8,2.7c0.4,0,0.6-0.1,0.9-0.1
					c-0.6-1.3-1.1-2.7-1.4-4c0-0.2-0.5-0.2-0.6,0c-0.7,1.7-1.7,3.2-2.6,4.7c-0.8,1.3-1.5,2.6-2.7,3.7c0.2,0,0.5-0.1,0.7-0.1
					c-1.3-0.2-0.1-3.6-0.1-4.3c0.1-1.5-0.6-3.4-0.8-5.1c-0.1-0.5-0.6-0.1-0.6,0.1c-0.7,2-0.8,4.3-1.4,6.4c-0.4,1.5-0.7,3.2-1.2,4.7
					c0.2-0.1,0.5-0.1,0.8-0.2c-0.7-1.5-0.5-3.3-1.2-4.9c-0.7-1.4-0.7-2-0.5-3.6c0-0.2-0.2-0.5-0.5-0.4c-1.1,1.2-2,2.5-3.2,3.6
					c0.1,0.1,0.4,0.2,0.5,0.4c0,0.1,1.2-3.2,1.4-3.8c0.2-0.7,1.2-3,1.2-3.8c0-1.1-1.2-2.7-1.7-3.7c-0.1-0.1-0.4-0.2-0.5-0.1
					c-1.4,0.4-3.1,0.2-4.6,0.4c0.1,0.1,0.2,0.4,0.4,0.5c0.4-0.9,0.8-1.9,1.2-2.7c0-0.1,0-0.1,0-0.1c-0.8-1.2-1.9-1.5-1.8-3.1
					c0-0.9,0-1.9,0-3c0-0.5,0.2-1.3,0-1.8c-0.5-1.1-2-1.4-2.4-2.6c-0.4-1.1-0.1-2.7-0.2-3.8c0-0.9-0.1-1.8-0.1-2.7
					c0-0.1-0.4-0.4-0.4-0.2c-0.8,0.6-1.5,1.2-2.5,1.7c0.1,0.1,0.2,0.2,0.4,0.2c0.9-4.1,1.3-8.3,2.1-12.4c0-0.1-0.2-0.4-0.4-0.4
					c-1.4,0.5-3,0.7-4.5,0.8c0.1,0.1,0.2,0.2,0.4,0.4c1.2-3.1,2-6.3,3.2-9.4c0.1-0.4-0.5-0.4-0.6-0.1c-1.1,1.2-1.7,2.6-2.7,3.9
					c0.2,0.1,0.4,0.1,0.6,0.2c0.1-1.2,0.4-2.3,0.8-3.3c0.2-1.2,0.6-2.4,0.7-3.7c0.4-1.7,0.6-3.3,1.1-5c0.1-0.4-0.4-0.4-0.6-0.2
					c-0.8,0.9-1.4,2.1-2.4,3.1c0.1,0,0.4,0.1,0.5,0.1c-0.1-1.9-0.2-3.9-0.4-5.8c0-0.1-0.1-0.1-0.2-0.2c-0.8-0.4-1.5-0.8-2.3-1.4
					c-3.1-3-3.1-6.8-2.7-11c-0.1,0.1-0.4,0.2-0.5,0.4c1.1,0.8,2.1,1.7,3.3,2.3c0.8,0.5,1.5,0.9,2.4,1.4c1.2,0.8,2.6,1.7,3.8,2.5
					c0.8,0.6,1.7,1.3,2.5,1.9c0.2,0.1,0.5,0.1,0.5-0.2c0-0.9-0.1-1.9-0.2-3c-0.2-1.7-0.4-1.7,0.6-2.8c0.6-0.7,1.5-1.3,1.7-2.1
					c0.1-0.5-0.4-1.8-0.5-2.3c-0.1-0.5-0.6-1.9-0.4-2.5c0.1-0.4,1.1-1.4,1.3-1.5c0.5-0.6,0.9-1.2,1.4-1.8c0.2-0.4-0.4-0.7-0.6-0.4
					c-0.2,0.4-0.5,0.6-0.7,0.9c-0.6,0.8-1.3,1.8-2,2.6c-0.1,0.4,0,0.6,0.1,0.9c0.2,1.1,0.8,2.5,0.8,3.7c-0.1,1.2-1.7,2.4-2.4,3.1
					c0,0,0,0,0,0.1c0.5,1.5,0.4,3.4,0.4,5c0.1-0.1,0.4-0.2,0.5-0.4c-0.8-0.6-1.7-1.2-2.5-1.8c-1.2-0.7-2.5-1.4-3.7-2.3
					c-0.6-0.4-1.1-0.7-1.7-1.1c-1.4-0.9-2.7-1.9-4-2.8c-0.2-0.4-0.6-0.1-0.6,0.2c-0.2,3.3-0.6,6.9,1.4,9.7c1.1,1.4,2.4,2.6,4,3.1
					c-0.1-0.1-0.2-0.2-0.4-0.2c0.1,0.7,0.1,1.5,0.2,2.3c0.1,0.9,0.7,2.6,0.2,3.4c-0.1,0.2,0.2,0.7,0.5,0.4c0.7-1.2,1.5-2.1,2.5-3.2
					c-0.2-0.1-0.4-0.1-0.6-0.2c-0.4,1.5-0.6,3.2-0.9,4.7c-0.2,1.3-0.6,2.7-0.8,4c0.1,1.1-0.2,2.1-0.8,3c-0.2,0.4,0.4,0.7,0.5,0.4
					c0.8-1.4,1.7-2.7,2.8-3.9c-0.2,0-0.4-0.1-0.6-0.1c-0.4,1.2-0.8,2.5-1.2,3.7c-0.5,1.7-0.8,4.1-2,5.4c-0.1,0.2,0,0.6,0.4,0.5
					c0.7-0.2,1.4-0.5,2-0.6c0.6-0.1,1.3-0.1,1.9-0.2c-0.1,0.6-0.2,1.3-0.2,1.9c-0.2,1.7-0.5,3.2-0.7,4.9c-0.2,1.5-0.2,3.8-0.9,5.2
					c-0.1,0.2,0.2,0.6,0.5,0.4c0.6-0.5,1.7-1.3,2.4-1.5c-0.1-0.1-0.2-0.1-0.4-0.2c0.1,1.4,0.2,2.7,0.2,4.1c0,0.6-0.1,2.3,0.1,2.8
					c0.1,0.4,0.6,0.7,0.8,0.8c0.9,0.8,1.4,1.2,1.5,2.5c0,1.3-0.2,3.1,0,4.4c0,0.1,0,0.2,0.1,0.4c0.4,0.6,1.5,0.9,1.7,1.5
					c0.1,0.6-0.6,2.3-0.9,2.5c-0.2,0.2-0.1,0.7,0.2,0.7c1.1-0.1,2.3-0.4,3.3-0.4c0.9-0.2,1.4,0,1.7,0.9c0.2,0.5,0.5,0.9,0.7,1.4
					c0.5,1.2,0.1,1.8-0.4,3c-0.5,1.5-0.8,4-1.9,5.1c-0.4,0.4,0.2,0.7,0.5,0.5c0.8-1.3,1.8-2.5,3-3.4c-0.1-0.1-0.4-0.1-0.5-0.2
					c-0.2,1.7-0.5,2,0.4,3.4c0.8,1.4,1.7,3.6,1.2,5.1c-0.1,0.5,0.7,0.4,0.8,0c0.7-3.7,1.2-7.5,2.4-11c-0.2,0-0.5,0.1-0.6,0.1
					c0.2,1.5,0.8,3.2,0.8,4.7s-0.4,3-0.4,4.5c0,0.1,0,0.1,0.1,0.2c0.1,0.1,0.2,0.1,0.4,0.2c0.1,0.1,0.6,0,0.7-0.1
					c2.5-2.3,3-5.9,5.1-8.4c-0.2,0-0.4,0-0.6,0c0.4,1.2,1.5,3,0.9,4.1c-0.2,0.5,0.8,0.4,1.1,0.1c1.2-1.9,2-3.6,4.4-4
					c0.2,0,0.5-0.2,0.5-0.5c0.1-1.5,0.4-3.1,0.6-4.5c-0.1,0.1-0.4,0.1-0.5,0.2c0.7,0.2,2,0.4,2.4,0.8c0.2,0.2,0.7,0,0.8-0.2
					c0.1-1.2,0.2-2.5,0.4-3.7c0.2-1.9,0.1-4.1,0.8-5.9c-0.2,0-0.4,0-0.6,0c0.7,1.3,2.3,3,2.1,4.5c0,0.6,0.8,0.2,0.9-0.1
					c0.2-3.1,0.2-6.3,0.9-9.2c-0.1,0.1-0.4,0.2-0.5,0.2c0.8,0.6,2.4,1.3,2.7,2.3c0.2,0.5,0.8,0.1,0.8-0.2c-0.4-2.4-0.9-5.1-0.6-7.5
					c-0.1,0.1-0.4,0.1-0.5,0.2c0.7,0.6,2.7,1.8,3,2.8c0.1,0.5,0.7,0.2,0.7-0.1c0-1.7-0.2-3.8,0.2-5.3c-0.2,0-0.4,0.1-0.6,0.1
					c0.8,1.1,2.6,2.6,2.8,3.9c0,0.6,0.8,0.2,0.8-0.1c-0.1-1.3-0.2-2.6-0.2-3.9c-0.1-2-0.6-4.3-0.2-6.3c-0.2,0-0.4,0.1-0.6,0.1
					c0.8,1.3,2.7,3,2.7,4.6c0,0.5,0.9,0,0.9-0.4c0.2-2.4,0.5-4.9,0.7-7.2c0.1-1.5,0.2-3,0.4-4.5c0.1-1.7,0.1-3.9,0.6-5.4
					c-0.2,0-0.4,0.1-0.6,0.1c0.7,0.8,2.3,2.1,2.3,3.2c0,0.7,0.9,0.1,0.9-0.4c-0.1-0.9-0.2-1.9-0.4-2.8c-0.1-1.1-0.2-2.1-0.4-3.2
					c0-0.4,0-0.7-0.1-1.1c0.4-0.8,3.2-1.1,4-1.2c0.6-0.1,1.9-0.2,2.6-0.5c1.1-0.5,1.7-1.8,2.4-2.6c1.7-2.1,3.9-4.6,4.7-7.3
					c0-0.1-0.1-0.4-0.2-0.5c-0.4-0.2-0.2-0.2-0.5-0.2c-0.6,0.1-1.2,0.4-1.8,0.6c-0.9,0.4-2,0.7-3,0.9c-4,0.8-8.4,1.4-12.4,0.9
					c0.1,0.1,0.1,0.2,0.2,0.4c0.5-1.4,0.8-2.7,1.3-4.1c0.4-1.2,1.2-2.8,1.3-4c0.1-1.9-0.9-3.9-1.1-5.8c-0.1,0.1-0.2,0.2-0.4,0.4
					c0.7,0,1.5,0,2.3,0.1c1.4,0,4.3-0.2,5.2,0.4c0.5,0.2,0.7-0.5,0.4-0.6c-1.1-0.4-2.8-1.3-3.7-2c0,0.1,0,0.4,0,0.5
					c0.7-0.4,1.5-0.7,2.3-1.2c1.1-0.5,2.6-1.7,3.8-1.7c0.5,0,0.4-0.7,0-0.7c-2.1,0.2-4.5,0.4-6.6,0.1c0,0.1,0.1,0.4,0.1,0.5
					c0.7-0.8,1.5-1.7,2.4-2.5c0.1-0.1,0.1-0.5-0.1-0.6c-1.8-0.5-3.6-1.2-5.1-2.1c0,0.1,0,0.4-0.1,0.5c0.8-0.4,1.5-0.7,2.4-1.2
					c1.1-0.5,2.5-1.7,3.7-1.4c0.5,0.1,0.4-0.8,0-0.8c-2.4,0-4.9-0.1-7.2-0.5c0.1,0.1,0.1,0.2,0.2,0.4c0.2-0.7,0.4-1.5,0.7-2.3
					c0.1-0.1-0.1-0.6-0.2-0.6c-2,0.1-4,0-5.9-0.2c0.1,0.1,0.2,0.2,0.4,0.4c0.4-1.4,0.5-3.3,1.3-4.5c0.1-0.2-0.4-0.5-0.5-0.5
					c-2.5,0.9-5.1,2.3-7.7,2.7c0.1,0.1,0.2,0.1,0.4,0.2c0-1.2-0.4-3,0.1-4.1c0.1-0.2-0.2-0.7-0.5-0.4c-0.9,0.9-1.9,1.9-3,2.7
					c-0.6,0.5-0.6,0.6-1.2,0.4c-0.7-0.1-1.2-1.2-1.9-1.4c-0.5-0.1-1.2,0.1-1.7,0.1c-1.1,0.1-2,0.2-3.1,0.2c-1.1,0.1-0.9,0-1.4-0.9
					c-0.2-0.7-0.6-1.4-0.7-2.1c0-0.2-0.4-0.5-0.5-0.4c-0.6,0.2-1.1,0.6-1.7,0.8c-0.5,0.2-2.1,1.3-2.5,1.2c-0.2-0.1-0.5-0.5-0.6-0.7
					c-0.6-0.8-1.4-1.8-1.8-2.8c-0.1-0.2-0.5-0.1-0.6,0c-1.1,1.3-2.1,2.5-3.3,3.7c-0.2,0.2-0.5,0.7-0.8,0.6c-0.5-0.1-1.9-1.7-2.1-1.9
					c-0.1-0.1-0.4-0.1-0.5,0c-1.7,2.7-3.2,5.4-5.3,7.8c0.1,0,0.4,0,0.5,0.1c0-0.4-0.1-0.7-0.2-1.1c-0.1-0.7-0.4-1.3-0.5-2
					c0.1-0.4-0.4-0.7-0.5-0.4c-0.7,2.1-1.5,4.4-2.6,6.3c0.1,0,0.4,0,0.5,0.1c-0.2-0.8-0.9-2.1-0.9-2.7c0-0.4-0.5-0.2-0.6,0
					c-0.5,1.4-0.9,2.8-1.3,4.4c-0.1,0.5-0.2,0.9,0,1.4c0.4,0.6,1.3,0.9,1.9,1.2c2.1,1.1,4.4,2,6.4,3.2C50,37,50.1,36.2,49.8,36.1z"
					/>
				<path class="st1" d="M49.8,35.3c-2.7-1.5-5.7-2.5-8.3-4.3c0.1,0.4,0.2,0.6,0.4,0.9c-0.1-1.9,0.7-4.1,1.4-5.8
					c-0.2,0.1-0.5,0.4-0.7,0.5c0.4,0.7,0.8,1.7,0.9,2.5c0,0.1,0.6,0.2,0.6,0.2c0.2-0.8,0.7-1.8,1.1-2.5c0.6-1.3,1.1-2.7,1.7-4
					c-0.2,0-0.5,0.1-0.7,0.1c0.4,1.1,0.2,2.3,0.6,3.3c0,0.1,0.5,0.4,0.5,0.2c0.6-0.8,1.1-1.7,1.7-2.5c0.5-0.7,1.1-1.4,1.5-2.3
					c0.7-1.1,1.5-2.3,2.3-3.3c-0.2,0.1-0.4,0.1-0.6,0.2c0.8,0.7,1.7,1.5,2.5,2.3c0.1,0.1,0.1,0,0.2,0c1.8-1.3,3.2-3.2,4.6-4.7
					c-0.2,0-0.4,0-0.6,0.1c0.8,1.3,1.7,2.5,2.5,3.8c0.1,0.1,0.4,0,0.5,0c1.5-0.7,3-1.4,4.5-2.1c-0.1,0-0.2-0.1-0.5-0.1
					c0.4,1.3,0.8,2.4,1.2,3.7c0,0.1,0.2,0.1,0.2,0.1c1.8,0,3.6-0.4,5.3-0.4c1.1,0,1.9,0.9,2.7,1.7c0.1,0.1,0.4,0,0.5-0.1
					c1.1-1.3,2.6-2.5,3.9-3.7c-0.2,0-0.4-0.1-0.6-0.1c0.1,1.4-0.1,2.8-0.2,4.3c0,0.1,0.2,0.5,0.4,0.4c1.2-0.6,2.5-0.9,3.8-1.3
					c1.3-0.5,2.6-0.9,3.9-1.4c-0.1-0.1-0.2-0.2-0.4-0.4c-0.2,0.9-0.7,1.9-0.9,2.8c-0.1,0.6-0.2,1.2-0.5,1.8c0,0.1,0.1,0.5,0.2,0.5
					c1.5-0.1,3.3-0.2,4.9,0.1c0.4-0.1,0.6-0.1,0.7,0.2c-0.2,0.6-0.5,1.2-0.6,1.8c0,0.1,0.2,0.5,0.4,0.4c2.4-0.2,4.9,0.2,7.2,0.5
					c0-0.1,0-0.4,0-0.5c-0.7,0.1-1.3,0.4-2,0.7c-0.6,0.4-1.2,0.6-1.8,0.8c-0.8,0.4-1.7,0.7-2.6,0.9c-0.2,0.1-0.4,0.5-0.1,0.6
					c0.6,0.4,4.9,1.8,4.9,2c-0.1,0.6-1.7,2-2,2.4c-0.1,0.1,0,0.5,0.1,0.5c2.3,0.1,4.5-0.1,6.8-0.1c0-0.2,0.1-0.4,0.1-0.6
					c-2,1.1-4.3,2.1-6.5,2.7c-0.2,0.1-0.4,0.5-0.1,0.6c1.2,0.8,2.6,1.2,3.7,2c0.1-0.1,0.4-0.1,0.5-0.2c-2.6-0.7-5.3-0.4-7.9-0.8
					c-0.1,0-0.4,0.1-0.4,0.2c0.4,2,1.4,4.5,0.8,6.5c-0.7,2.5-1.7,5.1-2.5,7.5c-0.1,0.2,0,0.5,0.2,0.5c3.8,0,7.9-0.4,11.6-0.9
					c1.2-0.1,2.3-0.4,3.4-0.7c0.9-0.9,1.9-0.9,2.6-0.2c0.1,0.5-1.9,2.8-2.1,3.1c-0.9,1.3-1.9,2.6-3,3.8c-0.6,0.7-0.9,1.4-1.8,1.8
					c-0.7,0.2-1.8,0.4-2.5,0.5c-1.4,0.2-2.8,0.6-4.3,0.8c-0.1,0-0.4,0.1-0.2,0.4c0.6,2.6,0.8,5.3,1.1,8.1c0.1,0,0.4-0.1,0.5-0.1
					c-0.7-1.2-1.8-2.3-2.4-3.4c-0.1-0.2-0.5-0.1-0.6,0.1c-0.8,5.8-1.1,11.6-1.8,17.4c0.1,0,0.4,0,0.5-0.1c-0.8-1.5-2.1-3-3-4.5
					c-0.1-0.2-0.6-0.2-0.6,0.1c-0.1,3.4,0.6,6.9,0.4,10.3c0.1,0,0.4,0,0.5,0.1c-0.8-1.5-2.1-2.8-3-4.4c-0.1-0.2-0.5,0-0.5,0.2
					c-0.2,1.8,0,3.7-0.2,5.6c0.1,0,0.2-0.1,0.4-0.1c-0.8-1.3-2.3-2-3.2-3.2c-0.1-0.2-0.5,0.1-0.5,0.2c0.1,2.6,0.7,5.1,0.6,7.7
					c0.1,0,0.2-0.1,0.4-0.1c-0.8-0.9-2.1-1.5-3-2.5c-0.1-0.1-0.4,0.1-0.5,0.2c-0.2,3.2-0.5,6.3-0.9,9.5c0.1,0,0.4-0.1,0.5-0.1
					c-0.6-1.7-1.7-3-2.4-4.6c-0.1-0.2-0.5-0.2-0.6,0c-0.6,3.2-0.7,6.5-1.4,9.8c0.1,0,0.2-0.1,0.5-0.1c-0.9-0.5-2-0.6-2.8-1.1
					c-0.1-0.1-0.4,0.1-0.4,0.2c0,1.2-0.1,2.4-0.4,3.6c-0.4,1.3-0.8,1.2-2,1.7c-0.5,0.1-0.9,0.2-1.2,0.5c-0.8,0.7-1.4,2.1-2,3.1
					c0.2,0.1,0.5,0.1,0.7,0.2c-0.4-1.5-1.1-3-1.4-4.5c0-0.1-0.4-0.4-0.5-0.1c-0.7,1.5-1.4,3-2.3,4.5c-0.4,0.7-0.9,2.1-1.7,2.6
					c-0.5,0-0.9,0-1.3,0.1c0-0.6,0.1-1.3,0.2-1.9c0.5-2.1-0.2-4.3-0.5-6.4c-0.1-0.6-0.6,0-0.7,0.2c-1.3,3.6-1.4,7.5-2.5,11.1
					c0.1,0,0.4,0.1,0.5,0.1c-0.1-1.7-0.4-3.3-0.8-4.9c-0.2-0.6-0.8-1.3-0.9-1.9c-0.1-0.6,0.2-1.7,0.4-2.3c0-0.1-0.4-0.4-0.5-0.2
					c-1.1,1.2-2,2.8-3.3,3.8c0.1,0.1,0.2,0.2,0.4,0.4c0.7-1.2,1.1-2.5,1.5-3.8c0.2-0.8,0.6-1.8,0.8-2.6c0.1-0.4,0.2-0.8,0.5-1.2
					c0-1.3-1.2-2.7-1.7-3.9c0-0.1-0.1-0.2-0.4-0.2c-1.5,0.4-3.2,0.5-4.9,0.5c0.1,0.2,0.2,0.6,0.4,0.8c0.5-0.9,0.8-2,1.3-3
					c0.1-0.1,0.1-0.2,0-0.4c-0.5-0.6-1.7-1.3-1.9-2c-0.1-0.2,0-0.8,0.1-1.1c0-1.1,0-2,0-3.1c0-0.7,0.1-1.4-0.2-2
					c-0.5-0.8-1.8-1.7-2.4-2.3c0,0.2,0.1,0.5,0.1,0.6c0.1-2.4-0.2-4.9-0.2-7.2c0-0.2-0.2-0.4-0.5-0.2c-0.8,0.7-1.7,1.4-2.6,1.9
					c0.1,0.1,0.2,0.2,0.4,0.5c1.2-4.1,1.4-8.6,2.3-12.8c0-0.2-0.2-0.2-0.4-0.2c-1.5,0.5-3.1,0.8-4.6,0.9c0.1,0.2,0.2,0.4,0.5,0.6
					c1.4-3.1,2.1-6.4,3.3-9.6c0.1-0.2-0.2-0.6-0.5-0.4c-1.1,1.3-1.7,3-2.8,4.1c0.1,0.1,0.2,0.2,0.4,0.4c1.7-3.8,1.9-8.2,3-12.2
					c0.1-0.2-0.4-0.4-0.5-0.1c-0.9,1.1-1.5,2.4-2.5,3.4c0.1,0,0.2,0,0.5,0c0.4-2-0.4-4.1-0.4-6.2c0-0.1-0.1-0.1-0.2-0.1
					c-5-2-5.4-7.7-5-12.4c-0.1,0.2-0.4,0.5-0.5,0.7c1.5,0.7,3,1.8,4.3,2.7c1.5,1.1,3.1,2,4.6,3.1c1.1,0.7,2,1.4,3,2.1
					c0.1,0.1,0.5-0.1,0.5-0.2c-0.2-1.8-0.9-3.9,0.1-5.4c0.5-0.7,1.8-1.5,2-2.5c0.1-0.5-0.2-1.4-0.4-1.9c-0.1-0.8-0.6-1.9-0.5-2.7
					c0.1-0.7,1.9-2.6,2.7-3.6c0.4-0.5-0.4-0.6-0.7-0.2c-0.7,0.9-1.5,2.4-2.5,3.1c-0.1,0.1-0.5,0.6-0.5,0.7c0.4,1.3,0.7,2.6,0.8,3.9
					c0.1,1.3-1.1,2.1-1.9,3.1c-0.1,0.2-0.4,0.2-0.4,0.6c-0.1,0.5,0.2,1.2,0.2,1.7c0.1,0.9,0.4,2.1,0.1,3.2c0.1-0.1,0.4-0.1,0.5-0.2
					c-0.9-0.7-1.9-1.4-2.8-2.1c-1.4-0.9-2.8-1.8-4.3-2.6c-1.7-0.9-3.8-1.8-4.5-3.7c-0.2-0.7-0.7,0.4-0.7,0.6c-0.4,4.4-0.4,9,3.6,12
					c0.8,0.6,1.4,0.5,1.7,1.4c0.5,1.4,0.5,3.7,0.4,5.2c0,0.2,0.4,0.2,0.5,0c0.8-1.1,1.7-2,2.5-3c-0.1,0-0.4-0.1-0.5-0.1
					c-0.7,3.8-1.2,8.1-2.6,11.7c-0.1,0.4,0.4,0.2,0.5,0.1c0.8-1.4,1.9-2.7,3-3.9c-0.2,0-0.4-0.1-0.6-0.1c-0.5,1.5-0.9,3.1-1.4,4.6
					c-0.5,1.4-0.8,3.3-1.8,4.5c-0.1,0.1,0.1,0.8,0.4,0.7c0.7-0.2,1.4-0.4,2.1-0.6c0.6-0.1,1.3-0.2,1.9-0.2c-0.1,0.2-0.1,0.5-0.1,0.7
					c-0.4,2-0.6,4-0.9,6c-0.2,1.7-0.4,3.6-1.1,5.2c-0.1,0.2,0.4,0.6,0.6,0.4c0.7-0.6,1.5-1.2,2.4-1.4c-0.1-0.1-0.2-0.1-0.5-0.2
					c0.1,1.4,0.2,2.8,0.4,4.3c0,0.6-0.1,2.1,0.2,2.7c0.1,0.5,0.8,0.8,1.2,1.2c0.8,0.7,1.1,0.9,1.1,2.1c0,1.5-0.5,3.8,0.4,5
					c0.4,0.5,1.3,0.8,1.5,1.4c0.4-0.2,0.2,0-0.2,0.7c-0.2,0.6-0.5,1.1-0.8,1.4c-0.4,0.1,0,0.9,0.2,0.9c0.9-0.1,3.2-0.7,4.1-0.4
					c0.7,0.2,1.2,1.8,1.4,2.4c0.6,1.4-0.4,2.8-0.8,4.3c-0.4,1.2-0.7,2.7-1.4,3.7c-0.2,0.4,0.2,0.6,0.5,0.4c0.9-1.2,1.9-2.3,3-3.2
					c-0.1-0.1-0.2-0.1-0.5-0.2c-0.1,0.8-0.4,1.8-0.1,2.5c0.1,0.7,0.7,1.3,1.1,1.9c0.2,0.5,1.1,3.2,0.8,3.9c-0.1,0.4,0.4,0.7,0.5,0.4
					c0.6-3.8,1.3-7.6,2.6-11.1c-0.2,0.1-0.5,0.1-0.7,0.2c0.2,1.5,0.8,3.2,0.8,4.7s-0.6,3-0.4,4.5c0,0.1,0.2,0.2,0.4,0.2
					c0.9,0.2,1.4-0.7,1.9-1.4c1.4-2.3,2.5-4.6,3.9-6.9c-0.1,0-0.4-0.1-0.5-0.1c0.4,1.1,1.4,2.8,1.1,4c-0.1,0.4,0.6,0.6,0.7,0.4
					c0.6-0.9,1.2-2.3,2-2.8c0.7-0.6,1.9-0.9,2.7-1.2c0.1,0,0.1-0.1,0.1-0.1c0.2-1.5,0.4-3.2,0.8-4.7c-0.1,0.1-0.2,0.2-0.4,0.2
					c0.8,0.2,1.8,0.4,2.5,0.7c0.1,0.1,0.4,0,0.5-0.1c0.2-3.2,0.7-6.5,1.4-9.7c-0.1,0-0.4,0.1-0.5,0.1c0.7,1.3,2,2.8,2.3,4.4
					c0,0.2,0.5,0.4,0.6,0c0.2-3.1,0.4-6.3,1.1-9.2c-0.1,0.1-0.2,0.1-0.5,0.2c0.9,0.7,2,1.4,3,2.3c0.1,0.1,0.4,0,0.4-0.1
					c-0.4-2.5-0.5-5.1-0.5-7.7c-0.1,0.1-0.4,0.2-0.5,0.2c1.1,0.9,2.3,1.9,3.2,3c0.2,0.2,0.4-0.1,0.4-0.2c0-1.8,0.1-3.7,0.5-5.3
					c-0.1,0.1-0.4,0.1-0.5,0.2c0.9,1.3,2.3,2.6,3,4c0.1,0.2,0.4,0,0.4-0.1c-0.4-3.4-0.5-6.9-0.4-10.3c-0.1,0.1-0.4,0.1-0.5,0.2
					c0.8,1.3,2.5,2.8,3,4.3c0.1,0.4,0.6,0.2,0.6,0c0.5-5.7,0.7-11.6,1.8-17.2c-0.1,0-0.4,0.1-0.5,0.1c0.7,0.9,2,2,2.4,3.2
					c0.1,0.2,0.6,0.2,0.6,0c-0.1-1.1-0.2-2.1-0.4-3.2c0-0.5-0.7-4-0.2-4.5c0.4-0.1,0.7-0.1,0.9-0.2c0.7-0.1,1.4-0.4,2.1-0.5
					c1.1-0.2,2.4-0.2,3.3-0.7c1.1-0.5,1.9-2.1,2.6-3.1c1.7-2.1,3.7-4.3,4.4-7c0-0.1,0-0.1,0-0.1c-0.2-0.2-0.4-0.4-0.6-0.4
					c-0.4,0.1-0.6,0.2-0.9,0.2c-0.9,0.5-1.9,0.7-2.8,0.9c-4.4,1.2-9.2,1.8-13.7,1.3c0.1,0.1,0.1,0.4,0.2,0.5
					c0.5-1.4,0.8-2.7,1.3-4.1c0.4-1.3,1.2-2.8,1.3-4.1c0-0.5-0.2-1.4-0.4-1.8c-0.2-1.3-0.5-2.7-0.6-4c-0.1,0.1-0.2,0.2-0.4,0.2
					c1.8,0,3.6,0.1,5.3,0.2c0.8,0.1,1.7,0.2,2.5,0.1c0,0,0.5-0.1,0.2-0.2c-1.3-0.5-2.7-1.4-3.9-2.3c0,0.2,0,0.4-0.1,0.6
					c1.9-0.9,4.1-2.5,6.3-2.8c0.1,0,0.4-0.6,0.1-0.6c-2.3,0.2-4.6,0.2-6.9,0.1c0,0.1,0.1,0.4,0.1,0.5c0.8-0.9,1.8-1.8,2.5-2.8
					c0-0.1,0-0.1,0-0.1c-1.8-0.5-3.7-1.4-5.3-2.3c0,0.2,0,0.4-0.1,0.6c0.7-0.4,1.5-0.7,2.3-1.1c0.5-0.2,0.8-0.4,1.3-0.6
					c0.8-0.4,1.8-0.7,2.6-1.1c0.2,0,0.5-0.6,0.1-0.6c-2.4,0-5.2,0.2-7.5-0.5c0.1,0.1,0.2,0.2,0.4,0.4c0.4-0.8,0.5-1.8,0.8-2.6
					c0-0.1-0.1-0.2-0.2-0.2c-2,0.1-4.3,0.2-6.2-0.2c0.1,0.1,0.2,0.2,0.2,0.5c0.2-0.6,0.4-1.2,0.5-1.8c0.2-0.8,0.2-2.3,0.8-2.8
					c0.2-0.2,0-0.7-0.4-0.5c-1.2,0.5-2.4,0.9-3.6,1.4c-1.2,0.5-2.8,1.4-4.1,1.4c0.1,0.1,0.2,0.2,0.4,0.4c0.1-1.3-0.4-3.3,0.4-4.4
					c0.2-0.4-0.2-0.7-0.5-0.4c-1.2,1.3-2.5,2.7-3.9,3.8c0.1,0,0.2,0,0.5-0.1c-0.6-0.6-1.7-1.8-2.4-1.9c-0.6-0.1-1.8,0.2-2.3,0.2
					c-1.3,0.1-2.6,0.4-3.9,0.5c0.1,0,0.2,0,0.4,0.1c-0.4-1.2-1.2-2.5-1.3-3.7c0-0.2-0.4-0.2-0.5-0.1c-1.5,0.8-3,1.7-4.5,2.4
					c0.1,0,0.2,0,0.5,0c-0.6-0.9-2.4-2.7-2.4-3.7c0-0.4-0.5-0.5-0.7-0.2c-1.4,1.7-2.8,3.2-4.1,4.9c0.1-0.1,0.2-0.1,0.4-0.2
					c-0.6-0.6-2-1.3-2.4-2.1c-0.1-0.4-0.5-0.4-0.7,0c-0.7,1.1-1.3,2-2,3.1c-0.9,1.4-2,3.8-3.3,4.9c0.1,0.1,0.4,0.1,0.5,0.2
					c0-1.3-0.7-2.3-0.5-3.7c0.1-0.5-0.6-0.4-0.7,0c-0.7,2-1.4,4.5-2.6,6.3c0.2,0.1,0.4,0.1,0.6,0.2c-0.5-0.7-0.8-2.4-0.8-3.2
					c0-0.7-0.7,0.2-0.7,0.4c-0.6,1.5-1.3,3.3-1.4,5c0,0.4,0.1,0.9,0.4,1.2c2.5,1.7,5.4,2.6,8.1,4.1C50.1,37,50.1,35.5,49.8,35.3z"/>
				<path class="st1" d="M50.1,36.3c-1.1-0.6-2.3-1.2-3.4-1.8c-1.1-0.5-2.8-0.9-3.6-1.8c-0.6-0.1-0.8-0.6-0.7-1.2
					c-0.2-0.7-0.2-1.5,0.2-2.3c0.2-0.8,0.6-1.8,1.1-2.6c-0.1,0-0.2-0.1-0.5-0.1c0.2,1.1,0.5,2,0.7,3.1c0,0.2,0.5,0.2,0.6,0
					c0.8-2.1,1.7-4.4,2.8-6.4c-0.2,0-0.4-0.1-0.6-0.1c0,1.2,0.2,2.4,0.4,3.6c0,0.4,0.5,0.2,0.6,0c1.8-2.7,3.7-5.4,5.7-7.9
					c-0.2,0-0.5-0.1-0.7-0.1c0.7,0.9,1.7,1.7,2.5,2.6c0.2,0.2,0.4,0.4,0.6,0.1c1.4-1.7,3-3.3,4.5-4.7c-0.2-0.1-0.6-0.2-0.8-0.2
					c0.6,1.4,1.7,2.7,2.5,4c0.1,0.2,0.2,0.4,0.5,0.2c1.5-0.8,3.2-1.5,4.9-2.3c-0.4-0.2-0.6-0.4-0.9-0.6c0.2,1.3,0.8,2.5,1.2,3.8
					c0,0.1,0.1,0.5,0.4,0.5c2.3,0,4.4-0.4,6.6-0.4c-0.2-0.2-0.5-0.4-0.8-0.6c0.8,0.9,1.8,1.7,2.6,2.5c0.1,0.1,0.4,0,0.4-0.1
					c1.1-1.5,2.6-2.8,4-4c-0.4-0.1-0.6-0.4-0.9-0.5c-0.2,1.5-0.2,3.1-0.4,4.5c0,0.2,0.1,0.4,0.4,0.2c2.8-0.7,5.6-1.9,8.5-2.5
					c-0.2-0.2-0.6-0.5-0.8-0.7c-0.5,1.7-0.9,3.2-1.5,4.9c0,0.1,0,0.2,0.1,0.2c2.1,0.4,4.4,0.2,6.5,0.6c-0.1-0.2-0.4-0.5-0.5-0.7
					c-0.4,0.8-0.6,1.8-0.9,2.6c0,0.1,0,0.2,0.2,0.4c2.6,0.5,5.2,0.4,7.8,0.8c-0.1-0.4-0.4-0.6-0.5-0.9c-1.9,1.1-4.4,2-6.6,2.6
					l0.1,0.1c1.4,1.3,3.9,1.9,5.6,2.8c-0.1-0.2-0.1-0.4-0.2-0.6c-0.9,0.8-1.8,1.8-2.7,2.6c-0.2,0.1,0.4,0.2,0.5,0.2
					c2.4,0.1,4.7,0,7,0.2c-0.1-0.2-0.1-0.6-0.2-0.8c-2,1.1-4.5,2.1-6.8,2.8l0.2,0.4c1.2,0.9,2.6,1.7,3.9,2.6
					c0.1-0.2,0.1-0.5,0.2-0.7c-2.6-0.4-5.3-0.5-7.9-0.8l0,0c-0.8,2.1,0.9,4.7,0.4,7c-0.6,2.5-1.7,5.1-2.5,7.5
					c-0.1,0.2,0.2,0.4,0.4,0.4c2.7-0.2,5.4,0,8.1-0.2c3.6-0.2,6.8-1.1,10.2-2.1c-0.1-0.1-0.4-0.1-0.5-0.2c0.1,0.1,0.4,0.2,0.5,0.5
					c-0.1-0.2-0.2-0.5-0.5-0.6c-0.5,2-2.3,3.9-3.4,5.4c-0.9,1.3-2,2.7-3.3,3.7c-0.8,0.6-1.9,0.6-2.8,0.8c-1.4,0.2-2.7,0.6-4.1,0.8
					c0,0,0,0,0,0.1c-0.4,2.7,0.4,5.8,0.7,8.5c0.2,0,0.4-0.1,0.6-0.1c-0.2-0.6-0.6-1.1-0.8-1.5c-0.4-0.6-1.3-1.3-1.5-1.9
					c0-0.1-0.4-0.4-0.4-0.4c-0.1,1.5-0.5,3.1-0.7,4.6c-0.2,1.9-0.4,3.8-0.6,5.7c-0.2,2.5-0.5,5.1-0.7,7.6c0.2,0,0.4-0.1,0.6-0.1
					c-0.4-0.7-0.7-1.3-1.1-2c-0.5-0.8-1.5-1.7-1.9-2.6c0-0.1-0.4-0.5-0.4-0.4c0,2.3-0.1,4.4,0,6.6c0.1,1.4,0.1,2.8,0.2,4.4
					c0.2,0,0.4,0,0.6-0.1c-0.7-1.7-1.9-3-3.1-4.3l0,0c-0.7,1.8-0.7,3.7-0.8,5.6c0.2,0,0.4,0,0.6,0c-0.8-1.2-1.7-2-2.8-2.7
					c0.1,0.1,0.2,0.2,0.4,0.4c-0.2-0.2-0.5-0.6-0.7-0.8L81.6,89c0.2,2.6,0.2,5.4,0.5,8.2c0.2,0,0.4-0.1,0.6-0.1
					c-0.4-0.4-0.6-0.6-1.1-0.9c-0.6-0.6-1.3-1.1-2-1.5c-0.5,0.1-0.7,0.5-0.6,0.9c-0.6,1.3-0.4,3.3-0.6,4.7c-0.1,1.3-0.2,2.6-0.4,3.9
					c0.2,0,0.4,0,0.6,0c-0.1-0.6-0.2-0.7-0.6-1.5c-0.5-1.1-1.5-2.1-1.8-3.2c0-0.1-0.4-0.5-0.4-0.4c-0.4,1.2-0.6,2.4-0.7,3.6
					c-0.1,0.9-0.2,1.8-0.4,2.7c-0.2,1.3-0.4,2.6-0.6,4c0.1,0,0.4,0,0.5,0c-0.8-0.4-2-0.7-2.8-1.3l0,0c-0.4,0.8-0.6,1.7-0.7,2.6
					c-0.1,0.7-0.2,1.4-0.4,2.1c-0.4,0.6-1.7,0.7-2.3,0.9c-1.3,0.5-2,2.3-2.7,3.4c0.1,0.1,0.2,0.2,0.4,0.4c-0.1-1.1-0.4-1.8-0.8-2.7
					c0,0.2,0.1,0.4,0.1,0.6c-0.1-0.7-0.4-1.4-0.5-2.3l-0.4-0.5c-0.9,1.7-1.9,3.3-2.8,5.1c-0.4,0.7-0.8,1.4-1.3,2.1
					c-0.2,0.4-0.5,0.7-0.7,1.1c-0.2-0.2-0.5-0.5-0.8-0.8c0.1-0.5,0.1-1.1,0.2-1.5c0.1-0.7,0.5-1.3,0.5-2c0-1.5-0.5-3.1-0.7-4.6
					c0-0.1-0.4-0.6-0.5-0.2c-0.6,2.4-1.3,4.6-1.9,6.9c-0.4,1.5-0.6,3.1-0.9,4.6c0.2,0,0.4,0.1,0.6,0.1c0.1-1.4-0.4-3.2-0.8-4.6
					c-0.1-0.4-0.4-0.8-0.6-1.2c-0.5-1.2-0.4-2,0-3.2c0-0.2-0.1-0.6-0.4-0.4c-1.3,1.1-2.4,2.5-3.6,3.7c0.1,0.1,0.4,0.2,0.5,0.4
					c0.6-1.8,1.3-3.4,1.9-5.2c0.1-0.5,1.2-1.9,1.1-2.5c0-0.5-0.1-0.4-0.4-0.8c-0.5-1.1-1.1-2-1.5-3.1c0-0.1-0.1-0.1-0.1-0.1
					c-0.5,0-1.1,0.1-1.5,0.1c-0.5,0-2.5,0.6-2.6,0.4c-0.4,0.1-0.4,0.1-0.1-0.2c0.1-0.2,0.2-0.5,0.4-0.7c0.2-0.5,0.5-0.9,0.8-1.4
					c0-0.1,0-0.4-0.1-0.5c-0.5-0.5-1.1-0.9-1.5-1.4c-0.6-0.5-0.4-0.4-0.4-1.1c-0.1-1.7,0-3.3,0.1-5c0-0.1,0-0.4-0.1-0.5
					c-0.8-0.5-2.1-1.4-2.4-2.3c-0.2-0.6,0-1.7-0.1-2.3c-0.1-1.4-0.1-2.8-0.1-4.3c0-0.2-0.1-0.4-0.4-0.4c-0.9,0.5-1.9,1.1-2.7,1.7
					c0.1,0.1,0.4,0.2,0.5,0.2c-0.1-0.2-0.4-0.5-0.5-0.7c0.1,0.1,0.1,0.4,0.2,0.5c0.8-4,1.4-8.2,2.5-12.1c0-0.2,0-0.5-0.2-0.5
					c-1.5,0.1-3.2,0.5-4.7,0.9c0.2,0,0.4,0.1,0.6,0.1c-0.1-0.2-0.4-0.4-0.5-0.6c0.1,0.1,0.2,0.2,0.4,0.5c1.1-3,2-6,3.3-9
					c0.1-0.2-0.1-0.8-0.5-0.5c-1.1,1.4-2,2.8-3.2,4.3c0.2,0.1,0.4,0.1,0.6,0.2c1.1-3.9,1.8-8.1,3-12c0.1-0.2-0.2-0.6-0.5-0.4
					c-0.9,1.2-1.7,2.5-2.8,3.4c0.2,0,0.4,0,0.6,0.1c-0.1-2-0.5-3.9-0.2-5.9c0-0.1,0-0.5-0.2-0.5c-3-0.8-4.5-3.8-5.1-6.5
					c0,0.1-0.4-5.2,0.2-5.2c0.1,0,1.3,1.1,1.4,1.2c3.4,2.5,7.1,4.6,10.3,7.5c0.1,0.1,0.5,0,0.4-0.2c-0.2-1.5-0.9-3.7-0.6-5.1
					c0.4-1.2,1.7-2.3,2.6-3c0.1-0.1,0.2-0.2,0.1-0.4c-0.5-1.1-1.5-3.9-1.1-5c0.2-0.5,0.9-1.1,1.3-1.4c0.5-0.6,0.9-1.2,1.5-1.7
					c0.5-0.5-0.5-0.8-0.7-0.5c-0.7,0.8-1.3,1.7-2,2.5c-0.2,0.2-0.7,0.7-0.8,0.9c-0.1,0.2,0.4,1.5,0.2,1.4c0.2,0.9,0.8,2.7,0.6,3.6
					c-0.4,1.2-2,1.8-2.3,2.8c-0.1,0.5,0.1,1.1,0.1,1.5c0.1,1.2,0.2,2.4,0.1,3.6c0.1-0.1,0.2-0.1,0.4-0.2c-1.1-0.8-2.1-1.5-3.3-2.4
					c-1.5-0.9-3-2-4.5-3c-1.4-0.9-3.1-1.9-4.3-3.1c-0.1-0.1-0.2,0-0.2,0.1c-0.5,4.3-0.5,8.4,3,11.5c0.6,0.6,1.5,0.9,2.1,1.5
					c0.8,0.8,0,6.2,0.1,5.9c0,0,0.5,0.2,0.6,0.1c0.7-1.3,1.5-2.3,2.7-3.1c-0.1-0.1-0.4-0.2-0.5-0.4c-0.2,1.1-0.4,2-0.6,3.1
					c-0.6,2.8-0.6,7-2.5,9c0,0,0.5,0.4,0.6,0.2c0.9-1.4,1.7-3,3.1-4c-0.1-0.1-0.2-0.2-0.5-0.5c-1.2,3.2-2.1,6.5-3.7,9.6l0,0
					c1.7-0.2,3.4-0.5,5.1-0.6c-0.1-0.1-0.2-0.2-0.2-0.4c-0.7,4.3-1.5,8.5-2.4,12.9l0,0c1.1-0.5,2-1.2,3.1-1.7
					c-0.1-0.1-0.2-0.2-0.4-0.4c0.1,1.3,0.1,2.7,0.2,4c0,0.7-0.2,2.1,0.1,2.7c0.6,1.4,2.5,1.7,2.5,3.3c0,0.8,0,1.5,0,2.4
					c0,0.6-0.4,1.7-0.1,2.3c0,0.1,0.1,0.2,0.2,0.4c0.4,0.6,1.7,1.3,1.8,1.9c0.1,0.6-1.3,2.1-1.5,2.7c0,0,0,0,0.1,0
					c1.3-0.1,2.6-0.1,3.9-0.1c1.5,0,1.5,0.8,2.3,2.1c0.5,1.1,0.6,1.1,0.2,2c-0.2,0.8-0.6,1.7-0.8,2.6c-0.5,1.4-1.1,2.7-1.9,3.9
					c0,0,0.4,0.5,0.5,0.4c1.1-1.3,1.9-2.6,3.4-3.6c-0.1-0.1-0.2-0.2-0.4-0.4c-0.1,0.7-0.5,1.7-0.4,2.4c0.1,0.1,0.1,0.4,0.2,0.5
					c0.8,1.3,1.2,2.7,1.3,4.3c0.1,0.7,0.1,1.4,0.1,2.1c0,0.1,0.5,0.2,0.6,0.1c0.4-1.5,0.7-3.2,0.9-4.7c0.5-2.1,0.6-4.7,1.8-6.5
					c-0.1-0.1-0.4-0.1-0.5-0.2c0.2,1.5,0.9,3.4,0.8,5.1c-0.2,1.5-0.7,2.8-0.6,4.4c0,0.1,0.2,0.5,0.2,0.5c1.2,0.4,1.8-1.3,2.3-2.1
					c1.3-2,2.1-4.4,3.6-6.3c-0.1-0.1-0.2-0.2-0.4-0.4c0.2,0.8,0.5,1.7,0.8,2.5c0-0.1-0.1-0.4-0.1-0.5c0.1,0.8,0.4,1.7,0.4,2.5
					c0,0.1,0.4,0.6,0.4,0.4c0.6-0.9,1.3-2.6,2.3-3.2c0.7-0.5,1.9-0.8,2.7-0.9c0.1,0,0.1-0.1,0.1-0.1c0.2-1.8,0.5-3.4,0.5-5.2
					c0,0.2-0.1,0.4-0.1,0.6c0.7,0.2,2,0.4,2.5,0.9c0.1,0.1,0.5,0.2,0.6,0c0.2-1.3,0.4-2.7,0.6-4c0.1-0.9,0.2-1.9,0.4-2.7
					c0.1-1.1,0.2-2,0.5-3.1c-0.1-0.1-0.2-0.2-0.4-0.5c0.5,0.8,1.8,3.8,2.1,5.1c0,0.2,0.6,0.4,0.6,0c0.4-3.2,0.5-6.4,1.1-9.6
					c-0.2,0-0.4-0.1-0.6-0.1c0.9,0.9,2.3,1.7,3,2.7c0.1,0.2,0.6,0.1,0.6-0.1c-0.2-2.5-0.4-5.1-0.6-7.6c-0.1,0.1-0.2,0.4-0.2,0.5
					c0.1-0.2,0.2-0.4,0.4-0.6c-0.1-0.1-0.4-0.1-0.5-0.2c0.7,0.7,1.3,1.4,2,2.1c0.5,0.5,0.8,0.7,1.2,1.3c0,0.1,0.6,0.2,0.6,0
					c0.1-1.9,0.2-3.7,0.1-5.6c-0.1,0.2-0.1,0.4-0.2,0.6c0.1-0.2,0.2-0.4,0.4-0.6c-0.1-0.1-0.2-0.2-0.4-0.4c0.5,0.6,0.7,1.3,1.2,2
					c0.5,0.8,1.3,1.7,1.7,2.6c0.1,0.2,0.6,0.2,0.6-0.1c-0.1-3.4-0.1-7-0.5-10.3c-0.1,0.1-0.1,0.4-0.2,0.5c0.1-0.2,0.2-0.4,0.4-0.6
					c-0.1-0.1-0.2-0.2-0.4-0.4c0.6,0.9,1.1,2.1,1.8,3.1c0.4,0.7,0.8,1.2,1.1,1.9c0.1,0.2,0.6,0.4,0.6,0c0.2-2.5,0.5-5,0.7-7.3
					c0.4-3.3,0.9-6.8,0.9-10.1c-0.1,0.1-0.1,0.4-0.2,0.5c0.1-0.2,0.2-0.4,0.5-0.6c-0.1-0.1-0.2-0.2-0.4-0.4c0.5,0.7,0.8,1.5,1.4,2.4
					c0.4,0.5,0.7,0.9,0.8,1.5c0.1,0.2,0.6,0.4,0.6,0c-0.4-2.8-0.6-5.7-1.2-8.5c0,0.1,0,0.4,0,0.5c1.7-0.4,3.4-0.7,5.1-1.1
					c0.7-0.1,1.8-0.1,2.4-0.5c0.4-0.2,0.7-0.8,1.1-1.2c0.8-0.9,1.7-2,2.4-3c1.3-1.7,2.4-3.4,3.8-5c0.2-0.2-0.1-0.6-0.4-0.7
					c-0.9-0.8-2.4,0.4-3.3,0.6c-2.3,0.7-4.6,1.1-7,1.3c-2.7,0.4-5.6,0.8-8.3,0.5c0.1,0.1,0.2,0.2,0.4,0.4c0.5-1.4,0.9-2.8,1.4-4.3
					c0.4-1.3,1.3-2.8,1.4-4.1c0-0.5-0.2-1.3-0.2-1.7c-0.4-1.5-0.6-3.2-0.9-4.7c0,0.2-0.1,0.4-0.1,0.6c2.6,0.1,5.6-0.4,7.9,0.9
					c0.4,0.2,0.6-0.5,0.2-0.7c-1.4-0.7-2.8-1.4-4.3-2.3c0.1,0.1,0.2,0.2,0.4,0.4c1.9-0.9,4.3-2.8,6.6-2.4c0.6,0.1,0.2-0.9-0.2-0.8
					c-2.4,0.2-4.9,0.4-7.1,0.2c0.1,0.1,0.4,0.2,0.5,0.2c0.6-0.7,1.5-2.1,2.5-2.3c0.4,0,0.4-0.6,0-0.7c-1.9-0.7-3.9-1.4-5.7-2.3
					c0.1,0.1,0.2,0.2,0.4,0.4c1.9-0.9,4.4-2.7,6.6-2c0.6,0.2,0.1-1.1-0.4-1.1c-1.9,0-3.8-0.1-5.7-0.2c-0.5,0-0.8,0-1.3,0
					c0.1-0.7,0.5-1.2,0.9-1.7c0.4-0.2-0.2-0.8-0.5-0.8c-2,0.1-4,0-6.2,0c0.1,0.1,0.2,0.2,0.2,0.2c0.4-1.1,0.6-3.9,1.8-4.3
					c0.6-0.2-0.4-1.1-0.7-0.9c-2.6,1.1-5.3,2.1-8.1,3c0.1,0.1,0.4,0.1,0.5,0.2c0.1-0.9-0.2-3.6,0.7-4.1c0.5-0.4-0.6-0.9-0.8-0.7
					c-0.6,0.7-1.3,1.3-2,2c-0.4,0.4-1.2,1.4-1.7,1.5c-0.8,0.1-1.4-1.3-2.1-1.5c-0.6-0.2-1.4,0.1-2,0.1c-1.4,0.1-2.8,0.2-4.3,0.5
					c0.1,0.1,0.2,0.4,0.4,0.5c-0.2-0.9-1.1-2.7-0.8-3.6c0.1-0.2-0.7-0.8-0.9-0.7c-1.5,0.8-3,1.5-4.5,2.4c0.1,0.1,0.4,0.1,0.5,0.2
					c-0.5-0.9-2.1-2.7-2-3.8c0-0.2-0.7-0.6-0.9-0.4c-1.4,1.7-2.8,3.2-4.4,4.9c0.1,0,0.4,0.1,0.5,0.1c-0.7-0.8-1.8-1.5-2.3-2.5
					c-0.1-0.1-0.6-0.2-0.7-0.1c-1.8,2.7-3.4,5.9-5.7,8.2c0.2,0,0.4,0,0.6,0c-0.1-0.9-0.8-2.6-0.4-3.4c0.2-0.4-0.4-0.7-0.5-0.4
					c-0.8,2.3-1.5,4.7-3,6.6c0.2,0,0.4,0,0.6,0c-0.2-0.7-1.1-2.1-0.8-2.8c0.1-0.2-0.2-0.7-0.5-0.4c-0.6,1.2-1.1,2.5-1.4,3.8
					c0,0.1-0.5,1.4-0.4,1.8c0.4,0.7,2.7,1.4,3.2,1.8c1.7,0.8,3.4,1.5,5.1,2.5C50,36.4,50.5,36.5,50.1,36.3z"/>
				<path class="st1" d="M50.2,35.9c-1.9-1.1-3.9-1.9-5.8-2.8c-1.4-0.7-2.4-0.7-2.1-2.7c0.1-1.2,0.8-2.8,1.4-3.9
					c-0.2,0.1-0.6,0.1-0.8,0.2c0.5,0.8,0.8,2,0.9,2.8c0,0.4,0.5-0.1,0.5-0.2c0.9-2.1,1.8-4.3,3-6.2c-0.2,0-0.6-0.1-0.8-0.1
					c0.2,1.2,0.5,2.4,0.6,3.6c0,0.4,0.5,0,0.6-0.1c1.9-2.6,3.7-5.3,5.8-7.7c-0.4,0-0.6,0-0.9,0c0.8,0.9,1.8,1.7,2.7,2.5
					c0.1,0.1,0.4,0.1,0.5,0c1.7-1.5,3.1-3.3,4.7-4.9c-0.4,0-0.7-0.1-1.2-0.1c0.8,1.4,1.8,2.7,2.6,4c0.1,0.1,0.2,0.2,0.4,0.1
					c1.7-0.7,3.2-1.5,4.9-2.3c-0.2-0.1-0.6-0.2-0.8-0.5c0.4,1.3,0.9,2.5,1.3,3.8c0,0.1,0.1,0.4,0.2,0.4c1.8,0,3.9-0.6,5.7-0.4
					c1.1,0.1-0.4-0.8,1.1,0.4c0.5,0.5,1.1,0.8,1.5,1.3c0.1,0.1,0.2,0.1,0.4,0c1.3-1.4,2.7-2.7,4.3-3.9c-0.4-0.1-0.7-0.1-1.1-0.2
					c0,1.4-0.1,3-0.2,4.5c0,0.1,0.1,0.2,0.2,0.2c2.8-0.5,5.7-1.9,8.4-2.6c-0.2-0.2-0.6-0.4-0.8-0.6c-0.4,1.7-0.8,3.3-1.4,4.9
					c0,0.1,0,0.2,0.1,0.2c2.1,0.4,4.3,0.2,6.4,0.5c-0.1-0.1-0.4-0.4-0.5-0.5c-0.2,0.8-0.5,1.7-0.8,2.5c0,0,0,0.2,0.1,0.2
					c2.6,0.5,5.3,0.5,7.8,0.7c-0.1-0.2-0.2-0.6-0.4-0.8c-2,1.2-4.3,1.7-6.3,2.7c0,0-0.1,0.6,0,0.6c0.9,0,2.4,0.9,3.2,1.3
					c0.7,0.4,1.4,0.6,2.1,0.9c0-0.1,0-0.4,0-0.5c-0.8,0.8-1.8,1.8-2.6,2.6c-0.1,0.1,0.4,0.4,0.5,0.4c1.1-0.2,3,0,4,0
					c0.9,0,1.9,0,3,0c-0.1-0.2-0.2-0.5-0.4-0.7c-2,0.9-4.3,1.8-6.3,2.8L95.7,39c0.7,0,1.7,0.9,2.3,1.3c0.5,0.4,1.1,0.6,1.5,0.9
					c0.1-0.2,0.1-0.4,0.2-0.6c-1.4-0.1-2.8-0.4-4.1-0.4c-1.2,0.1-2.4,0-3.6-0.2c-0.1,0-0.5,0.1-0.5,0.2c0.5,2,1.2,4.4,0.7,6.5
					c-0.6,2.5-1.7,5.1-2.5,7.6c0,0.1,0.2,0.4,0.4,0.4c1.8-0.2,3.7-0.1,5.4-0.2c2.5-0.1,5-0.4,7.5-0.8c0.7-0.1,1.5-0.4,2.3-0.5
					c1.5-1.2,2.1-1.2,1.9-0.1c0.1,1.2-1.5,2.7-2.3,3.7c-0.8,1.1-1.7,2-2.5,3.1c-0.6,0.7-0.9,1.4-1.8,1.7c-1.1,0.5-2.6,0.5-3.8,0.8
					c-0.9,0.2-1.9,0.5-2.7,0.6c-0.1,0-0.4,0.4-0.2,0.5c0.7,2.5,0.6,5.3,0.8,7.9c0.2,0,0.4,0,0.6,0c-0.8-1.2-1.8-2.3-2.4-3.6
					c-0.1-0.2-0.5-0.4-0.6,0c-0.6,2.8-0.7,5.9-1.1,8.9c-0.4,2.8-0.6,5.8-0.8,8.6c0.2,0,0.4,0,0.6,0c-0.5-0.8-0.9-1.5-1.5-2.3
					c-0.6-0.7-1.1-1.5-1.4-2.4c-0.1-0.1-0.6-0.4-0.6-0.1c-0.1,3.6,0.2,7.1,0.4,10.5c0.2,0,0.4,0,0.6,0c-0.8-1.5-2.1-2.7-3-4.3
					c-0.1-0.1-0.5-0.4-0.6-0.1c-0.2,1.9-0.4,3.7-0.4,5.6c0.1,0,0.4,0.1,0.5,0.1c-1.1-0.9-2.3-2.1-3.2-3.2c-0.1-0.1-0.6-0.2-0.6,0
					c0,2.6,0.4,5.2,0.5,7.8c0.2,0,0.4,0,0.6,0c-0.5-0.7-1.2-1.2-1.9-1.5c-0.4-0.2-0.7-0.6-1.1-0.9c-0.1-0.1-0.5-0.1-0.5,0
					c-0.5,3.1-0.7,6.3-1.1,9.5c0.1,0,0.4,0.1,0.5,0.1c-0.7-1.7-1.8-3.1-2.3-4.7c0-0.2-0.5-0.4-0.6-0.1c-0.7,3.3-0.9,6.6-1.5,9.9
					c0.1,0,0.4,0,0.5,0c-0.8-0.6-1.7-0.8-2.6-1.2c-0.1,0-0.5,0.1-0.5,0.2c0,0.7,0,1.4-0.2,2.1c-0.1,0.7-0.2,1.4-0.4,2
					c-0.4,0.6-1.2,0.7-1.8,0.9c-0.8,0.4-0.8,0.2-1.3,0.8c-0.7,0.8-1.3,1.9-1.9,2.7c0.1,0.1,0.2,0.2,0.2,0.4c-0.1-1.5-0.8-3-0.9-4.5
					c0-0.2-0.4-0.4-0.5-0.1c-1.3,2-2.1,4.3-3.4,6.3c-0.4,0.5-0.8,1.8-1.5,1.7c-0.7-0.2-0.4-1.1-0.2-1.8c0.1-0.8,0.6-1.7,0.6-2.6
					c0-1.5-0.5-3.2-0.6-4.7c0-0.5-0.8-0.1-0.8,0.1c-0.9,3.7-1.8,7.5-2.6,11.1c0.1,0.1,0.4,0.1,0.5,0.2c0-1.1-0.5-2.1-0.6-3.2
					c0-0.4,0-0.9-0.1-1.3c-0.1-0.7-0.7-1.3-0.9-2c-0.1-0.7,0.2-1.8,0.4-2.5c0.1-0.6-0.6-0.2-0.8-0.1c-1.2,0.9-2.3,2.3-3.1,3.6
					c0.1-0.1,0.4-0.1,0.5-0.2c0.6-1.5,1.2-3.1,1.8-4.6c0.1-0.4,1.2-2,1.1-2.5c-0.1-1.2-1.2-2.6-1.8-3.7c0-0.1-0.1-0.2-0.2-0.2
					c-1.7,0.4-3.4,0.5-5.1,0.7c0.1,0.1,0.2,0.2,0.4,0.2c0.7-0.8,0.9-1.9,1.5-2.7c0.1-0.1-0.1-0.4-0.1-0.4c-0.6-0.5-1.7-1.3-1.9-2
					c-0.1-0.4,0-1.1,0.1-1.5c0-1.4,0-2.7,0.1-4.1c0-0.1-0.1-0.1-0.1-0.2c-1.1-0.7-2.4-1.5-2.4-2.8c-0.1-2-0.2-4-0.2-6
					c0-0.2-0.2-0.2-0.5-0.2c-1.1,0.6-2.3,1.2-3.1,2.1c0.2,0,0.4,0,0.6,0c0.8-1.8,0.9-4.3,1.3-6.2c0.5-2.1,0.7-4.3,1.2-6.3
					c0.1-0.2-0.1-0.5-0.4-0.4c-1.7,0.4-3.3,0.7-5,1.1c0.1,0,0.4,0.1,0.5,0.1c0.8-1.3,1.3-3.2,1.8-4.6c0.6-1.5,1.1-3.2,1.9-4.7
					c0.2-0.6-0.7-0.4-0.8-0.1c-0.9,1.2-2,2.5-2.7,3.9c0.1,0.1,0.2,0.4,0.2,0.5c1.3-3.9,1.9-8.2,3.2-12.1c0.2-0.6-0.6-0.5-0.8-0.1
					c-0.8,0.9-1.7,1.9-2.3,3c0,0.2,0,0.4,0.1,0.6c0.2-0.7,0.2-1.3,0.1-2c0-1.4-0.2-2.8-0.1-4.3c0-0.1-0.1-0.4-0.2-0.4
					c-0.9-0.6-1.8-1.2-2.7-1.7c-1.1-1.1-1.8-2.4-2-3.9c-0.6-2.4-0.4-4.4-0.1-6.8c-0.2,0.1-0.4,0.2-0.6,0.5c3.9,3,8.2,5.3,12,8.3
					c0.1,0.1,0.6,0.1,0.5-0.2c-0.2-1.4-1.1-3.7-0.4-5.1c0.5-1.1,1.8-2,2.6-2.8c0.1-0.1,0.1-0.2,0-0.4c-0.2-0.8-0.5-1.7-0.6-2.5
					C48.3,42,48,41,48.1,40.3c0.1-0.6,0.9-1.3,1.3-1.7c0.5-0.6,0.9-1.2,1.5-1.8c0.5-0.5-0.8-0.6-1.1-0.2c-0.5,0.6-0.9,1.2-1.4,1.8
					c-0.2,0.4-1.3,1.3-1.4,1.8c-0.1,0.2,0.2,1.3,0.2,1.3c0.1,0.8,0.7,2.5,0.7,3.3c-0.1,1.3-1.9,1.9-2.4,3.1
					c-0.1,0.1,0.2,1.9,0.2,1.5c0.1,1.2,0.2,2.3,0.2,3.4c0.1-0.1,0.4-0.1,0.5-0.2c-0.9-0.7-1.9-1.4-3-2.1c-1.3-0.8-2.7-1.8-4-2.6
					c-0.8-0.5-1.7-1.1-2.4-1.5c-0.8-0.5-1.5-1.1-2.1-1.9c-0.1-0.5-0.7-0.1-0.8,0.2c-0.4,4.6-0.2,9.4,3.9,12.1
					c0.6,0.5,1.1,0.5,1.3,1.2c0.6,1.7,0.2,3.9,0.6,5.6l0,0c1.1-1.1,1.8-2.4,3-3.3c-0.2,0-0.5-0.1-0.7-0.1c-0.4,1.9-0.7,3.8-1.2,5.7
					c-0.4,1.9-0.6,4.1-1.4,5.9c0,0.1,0.2,0.5,0.2,0.5c1.1-1.4,1.8-3,3.2-4.1c-0.2-0.1-0.5-0.1-0.7-0.2c-1.1,3.1-1.8,6.5-3.3,9.4
					c-0.1,0.2,0.4,0.1,0.5,0.1c0.7-0.1,1.4-0.2,2.3-0.4c2.5-0.4,1.9-0.4,1.5,1.7c-0.5,3.3-0.8,7-1.9,10.2c-0.1,0.2,0.5,0,0.5,0
					c0.8-0.4,1.7-0.9,2.5-1.4c-0.1-0.1-0.4-0.1-0.5-0.2c0.1,1.3,0.2,2.7,0.2,4c0,0.6-0.1,2.3,0.1,2.8c0.7,1.4,2.4,1.5,2.4,3.3
					c0,1.3-0.2,2.8,0,4.1c0,0.2,0,0.4,0.1,0.5c0.4,0.7,1.7,1.1,1.8,2c0.1,0.6-0.9,1.9-1.3,2.4c-0.1,0.2,0.2,0.2,0.2,0.2
					c1.2-0.1,2.4-0.2,3.6-0.2c0.8-0.2,1.3,0.1,1.5,1.1c0.4,0.6,0.6,1.2,0.9,1.9c0.2,1.1-0.7,2.8-1.1,3.8c-0.5,1.4-1.2,2.7-1.4,4.1
					v0.1c1.2-1.3,2.5-2.7,3.8-3.8c-0.2,0-0.5-0.1-0.8-0.1c-0.2,1.2-0.5,2,0.1,3.1c1.1,1.9,1.3,3.6,1.4,5.7c0,0.1,0.5,0.4,0.5,0.2
					c0.4-1.5,0.7-3.2,0.9-4.7c0.4-2.3,0.6-4.6,1.9-6.6c-0.2,0-0.6,0.1-0.8,0.1c0.2,1.5,0.8,3.2,0.8,4.7c0,1.2-1.4,4-0.2,4.9
					c0.5,0.5,0.8,0,1.2-0.4c1.1-1.1,1.5-2.6,2.3-3.9c0.8-1.4,1.8-2.8,2.6-4.3c-0.1,0-0.4-0.1-0.5-0.1c0.1,0.5,0.2,1.1,0.5,1.5
					c0.1,0.4,0.9,2.4,0.8,2.6c0,0.1,0.1,0.7,0.2,0.5c0.6-0.9,1.2-2.4,2-3s2-0.9,3.1-1.2c0,0,0.1,0,0.1-0.1c0.1-1.5,0-3.7,0.7-5
					c-0.1,0.1-0.4,0.1-0.5,0.2c0.4,0.1,0.6,0.2,0.9,0.4c0.6,0.2,1.1,0.4,1.7,0.5c0.1,0.1,0.5,0.4,0.5,0.1c0.5-3.3,0.6-6.8,1.5-9.8
					c-0.2,0-0.4-0.1-0.6-0.1c0.8,1.5,1.9,3.1,2.3,4.7c0,0.1,0.5,0.4,0.5,0.1c0.4-3.2,0.5-6.4,1.1-9.5c-0.1,0-0.4,0-0.5,0
					c0.4,0.2,0.7,0.5,0.9,0.7c0.6,0.6,1.3,1.2,2,1.7c0.1,0.1,0.6,0.2,0.6,0c-0.2-2.6-0.6-5.2-0.5-7.8c-0.2,0-0.4,0-0.6,0
					c0.9,0.8,2.6,1.9,3.2,3.1c0,0.1,0.6,0.4,0.6,0.1c0.1-1.9,0-3.8,0.5-5.7c-0.2,0-0.4,0-0.6-0.1c1.1,1.4,2.1,2.7,2.8,4.3
					c0.1,0.1,0.6,0.4,0.6,0c-0.1-3.4-0.7-7.1-0.4-10.4c-0.2,0-0.4,0-0.6-0.1c0.5,0.7,0.9,1.4,1.5,2.1c0.5,0.9,0.9,1.8,1.4,2.6
					c0.1,0.2,0.5,0.4,0.6,0c0.6-5.8,0.7-11.8,1.9-17.5c-0.2,0-0.4,0-0.6,0c0.8,1.1,2,2.3,2.4,3.6c0,0.1,0.6,0.4,0.6,0
					c-0.1-1.1-0.2-2-0.4-3.1c-0.1-0.5-0.9-4.5-0.5-5c0.4-0.1,0.7-0.1,1.1-0.2c0.7-0.1,1.4-0.4,2.1-0.5c1.1-0.2,2.5-0.2,3.4-0.6
					c1.1-0.5,2.1-2.1,2.8-3.1c1.7-2.1,3.2-4.4,4.6-6.5c0.1-0.1,0-0.2,0-0.4c-0.1-0.1-0.1-0.1-0.2-0.2c-0.1-0.1-0.5-0.4-0.7-0.4
					c-2.4,0.7-4.6,1.5-7.1,1.9c-1.5,0.2-3.2,0.5-4.7,0.6c-1.9,0.2-3.9,0.2-5.8,0.2c0.1,0.1,0.2,0.2,0.4,0.4c0.5-1.4,0.9-2.8,1.3-4.3
					c0.4-0.9,0.6-1.9,0.9-2.8c0.1-0.5,0.4-0.9,0.5-1.4c0-0.4-0.2-1.4-0.2-1.5c-0.4-1.4-0.8-3-0.7-4.5c-0.1,0.1-0.4,0.1-0.5,0.2
					c1.7,0,3.1,0.4,4.7,0.4c1.1,0,2.1,0,3.2,0.5c0.4,0.1,0.5-0.5,0.1-0.6c-1.2-0.6-3-1.2-3.9-2.1c0,0.2-0.1,0.4-0.1,0.6
					c2.4-0.8,4-2.7,6.8-2.6c0.5,0,0.1-0.8-0.2-0.7c-2.3,0.1-4.7,0.5-7,0.2c0.1,0.1,0.2,0.2,0.4,0.4c0.7-0.7,1.4-2.1,2.4-2.4
					c0.4-0.1,0.2-0.5,0-0.6c-1.7-0.6-4-1.2-5.3-2.3c0,0.2,0,0.4-0.1,0.6c2.3-0.7,4.1-2.7,6.8-2.5c0.6,0,0.1-0.8-0.2-0.8
					c-1.7,0-3.3-0.1-5-0.2c-0.2,0-1.7,0.1-1.9-0.1s0.5-1.7,0.6-1.8c0.4-0.2,0.1-0.7-0.4-0.7c-2,0-4-0.1-6,0c0.1,0.1,0.2,0.1,0.2,0.2
					c0.4-1.3,0.5-3.8,1.8-4.5c0.5-0.2-0.5-0.8-0.7-0.7c-2.6,0.9-5.3,2-7.9,3c0.1,0,0.4,0.1,0.5,0.1c0.1-1.2-0.4-3.4,0.7-4.3
					c0.5-0.4-0.7-0.8-1.1-0.5c-0.8,0.9-1.8,1.9-2.7,2.7c-0.5,0.9-0.9,1.1-1.5,0.4c-0.4-0.2-0.6-0.5-0.8-0.8
					c-0.1-0.1-0.5-0.5-0.7-0.5c-2,0.2-4,0.4-5.9,0.7c0.1,0.1,0.2,0.2,0.4,0.4c-0.2-0.9-1.3-2.5-0.8-3.4c0.1-0.4-0.7-0.7-0.9-0.5
					c-1.4,0.8-2.8,1.4-4.3,2.3c0.1,0.1,0.2,0.2,0.4,0.2c-0.5-0.8-2.4-2.7-2-3.8c0.1-0.4-0.9-0.5-1.2-0.2c-1.3,1.7-2.8,3.2-4.1,4.7
					c0.2,0,0.4,0.1,0.6,0.1c-0.6-0.6-2-1.4-2.1-2.4c-0.1-0.4-0.8-0.4-1.1-0.1c-1.7,2.7-3.3,5.7-5.3,8.1c0.2,0,0.4-0.1,0.6-0.1
					c-0.2-1.1-0.8-2.4-0.2-3.4c0.2-0.5-0.8-0.5-0.9-0.1c-0.7,2.1-1.5,4.6-2.6,6.6c0.1-0.1,0.4-0.1,0.5-0.2c-0.4-0.8-0.9-1.8-0.6-2.8
					c0.2-0.6-0.7-0.4-0.8,0c-0.5,1.3-0.9,2.6-1.2,3.8c0,0.2-0.5,1.5-0.2,1.9c0.5,0.7,2.6,1.4,3.3,1.8c1.7,0.8,3.3,1.5,5,2.5
					C50.1,36.6,50.5,36.2,50.2,35.9z"/>
				<path class="st1" d="M46.1,48.8c-0.1-1.3,0.4-1.8,1.2-2.7c0.9-1.1,1.3-1.1,1.1-2.4c-0.2-1.1-1.2-3.3-0.7-4.3
					c0.2-0.5,0.8-1.1,1.2-1.4c0.5-0.6,0.9-1.2,1.4-1.8c0.1-0.1-0.4-0.5-0.5-0.4c-0.8,1.1-1.8,2.6-2.8,3.3c-0.1,0-0.1,0.2-0.1,0.4
					c0.4,1.7,1.4,4,0.6,5.4c-0.5,0.7-1.5,1.3-1.9,2c-0.2,0.6-0.1,0.8,0,1.7C45.5,48.8,46.1,48.8,46.1,48.8z"/>
				<path class="st1" d="M49.9,36.3c-1.1-0.7-2.3-1.2-3.4-1.8c-1.1-0.5-2.8-0.9-3.7-1.9c-0.6-0.1-0.8-0.6-0.7-1.2
					c-0.2-0.7-0.1-1.4,0.2-2.1c0.2-0.8,0.5-1.7,0.8-2.5c-0.1-0.1-0.2-0.2-0.2-0.5c0.1,1.2,0.5,2.1,0.7,3.3c0,0.2,0.5,0.2,0.6,0
					c0.7-1.7,1.3-3.3,2-5c0.1-0.2,0.2-0.6,0.2-0.9c0-0.4,0-0.4,0.1,0.1c0.1,0.8,0.2,1.9,0.4,2.8c0,0.1,0.4,0.4,0.5,0.1
					c1.4-2.1,2.8-4.4,4.4-6.5c0.1-0.2,0.8-1.4,1.1-1.3c0.6,0.1,2,2.1,2.3,2.4c0.1,0.1,0.4,0,0.5-0.1c1.2-1.8,2.8-3.4,4.4-5
					c-0.1,0-0.4-0.1-0.5-0.1c0.5,1.5,1.8,2.8,2.4,4.4c0,0.1,0.4,0.1,0.4,0c1.4-1.1,3.1-1.8,4.7-2.5c-0.2-0.1-0.4-0.2-0.6-0.5
					c0.2,1.4,0.8,2.7,1.2,4.1c0,0.2,0.1,0.4,0.4,0.2c1.7-0.4,3.7-0.7,5.3-0.5c1.1,0.1,1.9,1.1,2.7,2c0.1,0.2,0.4,0.1,0.5-0.1
					c1.1-1.7,2.6-3,3.9-4.3C80.1,19,80,19,79.7,18.9c-0.5,1.4-0.2,3.2-0.5,4.6c0,0.2,0.2,0.4,0.5,0.2c2.5-1.2,5.3-2,7.9-2.8
					c-0.1-0.2-0.2-0.4-0.4-0.6c-0.8,1.5-0.9,3.3-1.5,4.9c-0.1,0.2-0.1,0.5,0.2,0.5c2,0,4.1,0,6.2,0.2c-0.1-0.2-0.2-0.5-0.2-0.7
					c-0.4,0.8-0.6,1.8-0.9,2.6c-0.1,0.2,0,0.5,0.2,0.5c2.5,0,5.1,0.2,7.6,0.6c0-0.4-0.1-0.6-0.1-0.9c-2.1,0.9-4.4,1.8-6.5,2.6
					c-0.2,0.1-0.1,0.5,0.1,0.6c1.8,0.6,3.6,1.4,5.2,2.5c0-0.2,0-0.4,0-0.6c-0.9,0.7-1.7,1.7-2.5,2.5c-0.2,0.2-0.4,0.7,0.1,0.6
					c2.3-0.2,4.7-0.4,7,0c0-0.2-0.1-0.5-0.1-0.7c-2.3,0.8-4.4,1.9-6.6,2.7c-0.2,0.1,0,0.5,0.1,0.5c1.3,0.6,2.6,1.4,3.7,2.4
					c0.1-0.2,0.1-0.5,0.2-0.7c-2.6-0.1-5.3-0.5-7.9-0.7c-0.1,0-0.1,0.1-0.1,0.1c-0.1,2.4,1.1,4.6,0.5,7c-0.7,2.6-1.7,5.2-2.6,7.7
					c-0.1,0.2,0.2,0.4,0.4,0.4c3.2-0.5,6.4-0.4,9.6-0.7c1.7-0.2,3.2-0.5,4.7-0.8c0.6-0.1,3.4-1.4,3.9-0.9c-0.1-0.2-0.1-0.4-0.2-0.6
					c-0.4,1.5-1.4,2.7-2.4,4c-1.2,1.7-2.5,3.8-4,5.1c-0.7,0.6-1.4,0.6-2.4,0.7c-1.7,0.4-3.3,0.7-5,1.1c-0.1,0-0.2,0.1-0.2,0.2
					c0.1,2.8,0.5,5.7,0.7,8.5c0.2-0.1,0.5-0.4,0.8-0.5c-0.9-1.1-2.3-2.4-2.6-3.7c0,0,0,0-0.1,0c-0.6,0.9-0.6,2.4-0.7,3.4
					c-0.2,1.9-0.5,3.9-0.7,5.8c-0.4,3-0.6,5.9-0.9,8.9c0.2-0.1,0.6-0.4,0.8-0.5c-1.2-1.4-2.6-3.1-3.1-4.9c0,0-0.2,0.4-0.2,0.5
					c-0.5,1.3-0.1,3.7,0,5.1c0,1.9,0.1,3.7,0,5.6c0.2-0.1,0.5-0.4,0.7-0.5c-0.7-0.8-1.3-1.7-1.9-2.6c-0.6-0.5-0.9-1.2-1.2-1.9
					L85,86.2c-0.5,0.7-0.4,0.4-0.5,1.5c-0.1,1.4-0.2,3-0.4,4.4c0.2-0.1,0.4-0.1,0.6-0.2c-1.1-1.1-2.4-2.1-3.3-3.4l-0.2,0.5
					c0.1,1.2,0,2.5,0.1,3.7c0.1,1.4,0.1,2.8,0.1,4.3c0.2-0.1,0.4-0.4,0.6-0.5c-1.1-0.7-2.3-1.5-3.1-2.6h-0.1
					c-0.6,1.5-0.6,3.4-0.8,5.1s-0.4,3.3-0.7,5c0.2-0.1,0.5-0.2,0.7-0.4c-0.4-0.6-0.6-1.1-0.9-1.7c-0.5-0.8-1.4-2.3-1.4-3.2
					c0,0-0.4,0.2-0.5,0.4c-0.6,1.2-0.6,2.6-0.7,3.9c-0.4,2-0.6,4.1-0.9,6.2c0.1-0.1,0.4-0.4,0.5-0.5c-0.9-0.4-1.9-0.7-2.7-1.1
					c0,0-0.1,0-0.1,0.1c-0.5,1.7-0.6,3.4-0.9,5.2c0.1-0.1,0.2-0.4,0.4-0.5c-1.1,0.2-2.4,0.6-3.2,1.2s-1.7,2.5-2.1,3.3
					c0.2,0,0.5,0,0.7,0c-0.5-1.3-1.3-3.1-1.2-4.5c0,0-0.6,0-0.6,0.1c-0.1,0.4-0.5,0.7-0.6,1.1c-0.6,0.9-1.1,1.9-1.5,2.8
					c-0.4,0.7-1.1,2.6-1.8,3c-0.5,0-0.9,0.1-1.4,0.1c0.4-0.8,0.5-1.7,0.6-2.6c0.1-1.8-0.4-3.7-0.7-5.4c0-0.1-0.4-0.5-0.4-0.4
					c-0.5,1.1-0.7,2-0.9,3.2c-0.2,1.2-0.6,2.5-0.8,3.7c-0.4,1.7-0.7,3.3-1.2,5c0.2-0.1,0.5-0.1,0.7-0.2c-0.1-1.5-0.2-3.2-0.8-4.6
					c-0.4-0.7-0.9-1.4-0.9-2.3c0-0.6,0.2-1.3,0.2-1.8c0,0-0.1-0.6-0.2-0.5c-1.3,1.2-2.3,2.5-3.4,3.8c0.1,0.1,0.2,0.2,0.4,0.4
					c0.8-1.3,1.2-2.8,1.7-4.3c0-0.1,1.2-2.7,1.2-3.3c0-1.2-1.2-2.5-1.7-3.6c0-0.1-0.2-0.4-0.4-0.4c-1.4,0.4-3.1,0.2-4.6,0.4
					c0,0.1,0,0.4-0.1,0.5c0.6-0.9,1.1-1.8,1.5-2.7c0-0.1,0-0.5-0.1-0.6c-1.5-0.9-1.8-1.7-1.8-3.3c0-1.2,0.1-2.5,0-3.7
					c0-0.2,0-0.4-0.1-0.5c-0.5-0.8-1.5-1.2-2.1-2c-0.5-0.7-0.2-1.9-0.4-2.7c-0.1-1.4-0.2-2.7-0.2-4.1c0-0.1-0.2-0.5-0.4-0.4
					c-0.9,0.5-1.8,1.2-2.7,1.8c0.1,0.1,0.1,0.4,0.2,0.5c1.3-4,1.5-8.4,2.4-12.6c0-0.1,0-0.5-0.1-0.5c-1.5,0.2-3.1,0.6-4.6,0.8
					c0,0.1,0,0.4,0,0.5c0.2-0.6,0.6-1.2,0.9-1.8c0.2-0.9,0.6-2,0.9-3c0.6-1.5,1.1-3.2,1.7-4.7c0-0.1,0-0.7-0.1-0.5
					c-0.5,0.9-1.5,1.8-2.1,2.6c-0.4,0.5-0.7,1.1-1.2,1.7c0.1,0.1,0.4,0.2,0.5,0.2c0.7-1.8,0.9-3.7,1.3-5.6c0.4-2.1,0.8-4.4,1.4-6.4
					c0-0.1,0-0.7-0.1-0.5c-0.6,1.1-2,2.3-2.8,3.3c0.1,0.1,0.2,0.2,0.5,0.4c0.2-2-0.4-4-0.4-6c0-0.1-0.1-0.5-0.2-0.5
					c-0.4,0-0.7-0.2-0.9-0.5c-3.4-2.4-4.7-6.3-3.8-11.7c-0.1-0.1-0.2-0.2-0.5-0.2c0.7,1.1,1.4,1.4,2.5,2.1c1.7,1.1,3.2,2.3,4.7,3.4
					c1.7,1.2,3.2,2.4,4.6,3.7c0.2,0.2,0.5,0,0.5-0.2c0-1.9-0.1-3.9-0.6-5.9c-0.1,0.1-0.1,0.4-0.2,0.5c0.9-0.8,1.8-1.9,2.7-2.8
					c0.1-0.1,0.2-0.4,0.2-0.5c-0.2-0.8-0.5-1.8-0.7-2.6c-0.1-0.6-0.5-1.4-0.4-2c0.1-0.5,1.1-1.4,1.3-1.7c0.5-0.6,0.9-1.2,1.4-1.8
					c0.1-0.2,0-0.8-0.1-0.5c-0.9,1.2-1.8,2.5-3,3.4v0.1c0.1,0.7,0.4,1.4,0.5,2.1c0.1,0.8,0.6,1.9,0.5,2.7c-0.2,1.2-1.8,1.8-2.3,2.7
					c-0.1,0.2-0.1,0.4-0.1,0.6c-0.2,1.4,0.2,3.2,0.2,4.6c0.1-0.1,0.2-0.2,0.4-0.4c-0.9-0.7-1.8-1.3-2.7-1.9
					c-1.9-1.2-3.8-2.5-5.6-3.7c-1.2-0.8-2.4-1.9-3.7-2.6h-0.1c-0.4,3.7-0.7,8.1,2.3,11c0.2,0.2,0.8,0.7,1.1,0.9
					c0.5,0.4,1.8,0.6,2,1.1c0,0.2,0.1,0.6,0.1,0.8c0,1.1,0,2.1,0,3.3c0,0.6,0.1,1.2,0,1.8c0,0.1,0.4,0.5,0.5,0.4
					c0.7-0.9,1.4-2.6,2.5-3.2c0-0.1-0.1-0.4-0.1-0.5c-0.8,4-1.4,8.4-3.1,12.1c-0.1,0.1,0.4,0.6,0.5,0.4c0.4-0.6,0.8-1.1,1.2-1.7
					c0.5-0.7,1.1-2,1.8-2.4c0-0.1-0.1-0.4-0.1-0.5c-0.5,1.3-0.8,2.5-1.3,3.8c-0.2,0.8-0.6,1.8-0.9,2.6c-0.5,0.9-0.9,2-1.2,3.1
					c0,0.1-0.1,0.6,0,0.5c1.5-0.4,3.2-0.7,4.7-0.8c0-0.1-0.1-0.4-0.1-0.5c-0.4,1.7-0.6,3.4-0.8,5.1c-0.4,2.3-0.6,5.2-1.5,7.3
					c0,0.1,0,0.7,0.2,0.5c0.9-0.7,1.8-1.3,2.8-1.8c-0.1-0.1-0.2-0.2-0.4-0.4c0,1.7,0.1,3.2,0.2,4.9c0,0.9-0.2,1.7,0.4,2.4
					c0.8,1.1,2.3,1.4,2.3,3s0.1,3.2-0.2,4.7l0,0c0.5,0.5,2.1,1.8,2.1,2.1c-0.1,0.5-0.8,2.3-1.2,2.5c-0.1,0-0.2,0.6-0.1,0.5
					c1.4-0.2,3.8-0.8,5.1-0.5c-0.1-0.1-0.2-0.2-0.4-0.4c0.7,1.3,1.9,2.8,1.7,4.3c-0.2,1.3-0.9,2.8-1.5,4c-0.5,0.9-0.8,2-1.4,2.8
					c-0.1,0.1,0.2,0.6,0.4,0.4c1.1-1.2,2-2.6,3.3-3.6c-0.1-0.1-0.2-0.4-0.2-0.5c-0.1,0.6-0.6,1.7-0.6,2.4c0,0.5,0.6,1.1,0.8,1.5
					c0.7,1.4,1.2,3.9,0.8,5.6c-0.1,0.5,0.6,0.2,0.7-0.2c0.4-1.5,0.6-3.1,0.9-4.5c0.2-1.2,0.6-2.4,0.8-3.7c0.2-0.9,0.5-2,0.8-3
					c-0.1-0.1-0.2-0.2-0.4-0.4c0.2,1.4,0.8,3.1,0.8,4.6c0,0.6-0.2,0.9-0.4,1.4c-0.2,0.9-0.2,2.6-0.2,3.6c0,0.1,0.1,0.4,0.2,0.5
					c0.1,0.1,0.2,0.1,0.4,0.2c0.1,0,0.2-0.1,0.4-0.1c2.6-2.3,3.6-6,5.4-8.9c-0.2,0-0.4,0.1-0.6,0.1c0.5,1.5,1.4,2.8,0.9,4.4
					c-0.1,0.6,0.6,0.4,0.7,0.1c1.2-1.9,2-3.8,4.6-3.8c0.1,0,0.4-0.4,0.4-0.5c0.1-1.2,0.1-2.6,0.5-3.8c0.1-0.7,0-0.5,0.6-0.5
					c0.5,0,1.5,0.5,1.7,0.8c0.2,0.5,0.7,0,0.7-0.4c0.5-3.3,0.7-6.9,1.4-10.2c-0.1,0.1-0.4,0.2-0.5,0.4c1.1,1.4,2.1,3.1,2,4.9
					c0,0.6,0.7,0.1,0.8-0.2c0.2-3.2,0.9-6.5,0.8-9.7c0,0.1-0.1,0.2-0.1,0.4c1.1,0.7,1.9,1.4,2.6,2.5c0.1,0.5,0.7,0.1,0.7-0.2
					c-0.2-2.6-0.7-5.4-0.7-8.1c-0.1,0.1-0.2,0.4-0.2,0.5c0.9,0.8,2.6,1.8,3,3.1c0.1,0.5,0.7,0.2,0.7-0.1c0-2,0.1-3.9,0.2-5.9
					c-0.1,0.1-0.2,0.4-0.4,0.5c1.2,1.2,2.5,2.6,2.6,4.4c0,0.6,0.7,0,0.7-0.4c-0.2-3.6-0.6-7.2-0.5-10.8c-0.1,0.1-0.2,0.4-0.4,0.5
					c1.2,1.3,2.6,3,2.6,4.9c0,0.6,0.8,0,0.8-0.4c0.6-5.9,1.1-11.8,1.7-17.8c-0.1,0.1-0.1,0.4-0.2,0.5c1.1,1.1,2.1,2.1,2,3.7
					c0,0.6,0.8,0,0.8-0.4c-0.1-1.1-0.2-2-0.4-3.1c-0.1-1.1-0.2-2.1-0.4-3.2c0-0.4-0.1-0.8-0.1-1.2c0.4-0.7,1.8-0.7,2.5-0.8
					c1.2-0.2,2.7-0.2,3.9-0.7c1.1-0.4,1.8-1.7,2.5-2.6c1.8-2.1,4-4.6,5.1-7.2c0.1-0.1-0.1-0.5-0.2-0.6c-0.7-0.6-1.5,0-2.4,0.4
					c-2.1,0.8-4.4,1.2-6.6,1.4c-2.5,0.4-5,0.6-7.6,0.6c-1.2,0-1.3,0.2-0.9-1.1c0.5-1.4,0.9-3,1.4-4.4c0.2-0.7,0.8-1.8,0.8-2.5
					c0-0.5-0.2-1.1-0.2-1.5c-0.4-1.5-0.6-3.1-0.9-4.5c0,0.1,0,0.2,0,0.5c0.8,0,1.5,0,2.4,0.1c1.5,0,3.9-0.2,5.2,0.8
					c0.5,0.4,0.7-0.6,0.4-0.7c-1.4-0.6-3-1.3-4.1-2.3c0,0.1,0.1,0.4,0.1,0.5c0.6-0.2,1.3-0.6,1.9-0.9c1.2-0.6,3.1-1.9,4.5-1.7
					c0.5,0.1,0.4-0.8,0-0.7c-2.3,0.2-4.9,0.5-7.1,0.1c0,0.2,0.1,0.5,0.1,0.6c0.8-0.8,1.5-2,2.6-2.5c0.2-0.1,0.2-0.7,0-0.7
					c-1.9-0.6-3.9-1.2-5.6-2.3c0,0.1,0.1,0.4,0.1,0.5c1.7-0.7,4.6-2.8,6.4-2.3c0.5,0.2,0.4-0.9,0-0.9c-2.5,0-5.1-0.1-7.6-0.5
					c0.1,0.2,0.1,0.5,0.2,0.7c0.4-0.8,0.5-1.7,1.1-2.4c0.1-0.1-0.1-0.7-0.2-0.7c-2,0-4.1,0.1-6.2-0.1c0.1,0.1,0.1,0.4,0.2,0.5
					c0.5-1.4,0.6-3.6,1.7-4.6c0.1-0.1-0.1-0.7-0.4-0.6c-2.6,0.9-5.3,2.3-8.1,2.8c0.1,0.1,0.2,0.2,0.4,0.2c0.2-1.4-0.1-3.1,0.5-4.4
					c0.1-0.2-0.2-0.6-0.5-0.4c-0.5,0.5-1.1,0.9-1.5,1.5c-0.5,0.5-1.5,1.9-2.1,1.9c-0.8,0.1-1.4-1.3-2.1-1.5
					c-0.7-0.2-2.4,0.2-3.1,0.2c-0.7,0.1-2.1,0.5-2.7,0.2c-0.6-0.2-1.1-3.2-1.1-3.2c0-0.4-0.2-0.6-0.6-0.5c-1.2,0.6-2.5,1.5-3.8,1.9
					c-0.8,0.2-0.2,0.2-0.8-0.1c-0.6-0.5-1.8-3-1.9-3.1c-0.1-0.2-0.4-0.4-0.5-0.1c-0.6,0.6-1.2,1.3-1.8,1.9c-0.5,0.6-1.4,2-2.1,2.3
					c-0.8,0.2,0,0.7-0.9-0.2c-0.6-0.5-1.1-0.9-1.5-1.7c-0.1-0.2-0.2,0-0.4,0.1C50.9,21,49.3,24,47,26.3c0.1,0,0.4,0.1,0.5,0.1
					c-0.1-1.3-0.4-2.5-0.5-3.8c0-0.2-0.2,0-0.4,0.1c-0.9,2.1-1.8,4.5-3,6.5c0.2,0,0.4,0,0.6,0c-0.2-0.9-0.5-1.9-0.9-2.8l0,0
					c-0.1,0-0.4,0-0.5,0l0,0c-0.6,1.5-1.4,3.2-1.5,4.9c0,0.2-0.1,0.5,0,0.7c0.5,0.7,2.6,1.4,3.2,1.7c1.7,0.8,3.3,1.5,5,2.5
					C49.5,36.6,50,36.4,49.9,36.3z"/>
				<path class="st1" d="M49.4,35.9c-2.1-1.2-4.4-2.1-6.5-3.3c-1.9-0.9-1.5-1.3-0.8-3.7c0.2-0.8,0.6-1.7,0.9-2.5
					c-0.2,0-0.4,0-0.6-0.1c0.1,1.2,0.8,1.7,0.8,3c0,0.2,0.4,0.5,0.5,0.2c0.8-1.4,1.3-2.8,1.7-4.4c0,0.2-0.1,0.4-0.1,0.6
					c0.5-0.8,0.8-1.7,1.2-2.5c-0.1-0.1-0.2-0.4-0.2-0.5c-0.4,1.3,0.2,2.5,0.2,3.8c0,0.1,0.4,0.4,0.5,0.2c1.5-1.9,2.7-4,4.1-6
					c0.9-1.4,0.7-2,1.7-1.4c0.6,0.4,1.4,1.3,1.9,1.8c0.1,0.1,0.5,0.1,0.5,0c0.5-0.6,3.6-4.6,3.9-4.5c0.8,0.4,1.9,2.7,2.3,3.6
					c0,0.1,0.4,0.2,0.5,0.2c1.5-0.9,3.1-1.7,4.7-2.5c-0.1,0-0.2,0-0.5,0c0.1,1.3,0.8,2.5,1.1,3.8c0,0.1,0.2,0.2,0.4,0.2
					c1.7-0.4,3.8-0.8,5.4-0.7c0.9,0.1,1.8,1.1,2.5,1.8c0.1,0.1,0.4,0.2,0.5,0.1c0.7-0.8,1.4-1.5,2.1-2.3c0.4-0.4,0.6-0.6,0.9-0.9
					c0.8-0.7,1.1-0.8,0.6-0.7c-0.1,0-0.1,0-0.1,0.1c-0.1,0.2-0.1,0.5-0.1,0.7c-0.1,1.2,0,2.4-0.4,3.4c-0.1,0.2,0.2,0.4,0.4,0.4
					c2.5-0.9,5-1.9,7.5-2.8c0.5-0.2,0.2,0,0,0.4c-0.7,1.2-0.7,2.8-1.4,4c-0.1,0.1,0.1,0.4,0.2,0.4c2.1-0.1,4.3,0,6.4,0
					c-0.1-0.1-0.2-0.2-0.4-0.2c-0.5,0.8-0.6,1.7-1.1,2.5c-0.1,0.1,0,0.5,0.2,0.5c2.5-0.1,5.1,0.1,7.6,0.2c0-0.1-0.1-0.2-0.1-0.4
					c-2.4,0.2-4.5,1.8-6.6,2.5c-0.1,0-0.4,0.5-0.1,0.5c1.9,0.7,3.8,1.4,5.7,2.3c0-0.1-0.1-0.2-0.1-0.4c-1.1,0.7-1.8,1.8-2.7,2.6
					c-0.1,0.1-0.2,0.5,0,0.5c1.2,0,2.3-0.1,3.4-0.1c0.5,0,0.9,0,1.4-0.1c0.7,0,1.5-0.1,2.3-0.1c-0.2-0.4-0.6-0.4-0.9-0.1
					c-0.6,0.2-1.1,0.4-1.7,0.7c-1.3,0.6-2.6,1.3-4,1.8c-0.1,0-0.4,0.4-0.1,0.5c1.4,0.7,2.8,1.3,4.1,2.3c0-0.1,0.1-0.2,0.1-0.5
					c-2.5-0.8-5.3-0.5-7.9-0.8c-0.1,0-0.2,0.2-0.2,0.4c0.5,2.5,1.2,4.7,0.4,7.1c-0.9,2.4-1.7,4.9-2.6,7.2c0,0.1,0.1,0.4,0.2,0.2
					c3.8-0.4,7.6-0.4,11.4-1.1c1.8-0.4,3.8-1.3,5.6-0.7c1.2,0.1,1.3,0.6,0.1,1.4c-0.5,0.7-1.1,1.3-1.5,2c-0.9,1.1-1.8,2.1-2.7,3.2
					c-0.5,0.5-1.1,1.3-1.7,1.7c-0.4,0.1-0.8,0.1-1.2,0.2c-0.9,0.1-1.9,0.4-2.8,0.6c-0.9,0.2-2,0.5-3,0.6c-0.1,0-0.1,0.2-0.1,0.4
					c0.7,2.6,0.8,5.6,0.9,8.3c0.4-0.1,0.7-0.2,1.1-0.4c-0.8-1.2-1.8-2.4-2.5-3.6c-0.1-0.2-0.5,0.1-0.5,0.2c-0.2,3-0.9,5.9-1.3,8.9
					c-0.4,3-0.6,5.9-1.1,8.8c0.4-0.1,0.7-0.2,1.1-0.4c-1.1-1.5-2.1-3.1-3.1-4.7c-0.1-0.2-0.5,0.1-0.5,0.2c0.2,3.6,0.2,7.1,0,10.7
					c0.2-0.1,0.6-0.2,0.8-0.4c-0.9-1.4-2-2.8-3-4.4c-0.1-0.2-0.5,0.1-0.5,0.2c0,1.8-0.2,3.8-0.6,5.4c0.2,0,0.5-0.1,0.7-0.1
					c-0.9-1.2-2.1-2.1-3.2-3.2c-0.2-0.2-0.6,0-0.5,0.2c0.2,2.6,0.5,5.3,0.2,7.8c0.2-0.1,0.5-0.2,0.7-0.4c-0.9-0.8-2-1.7-3-2.5
					c-0.2-0.2-0.5,0-0.5,0.2c-0.5,3.2-0.8,6.5-1.5,9.6c0.4-0.1,0.7-0.2,1.1-0.4c-0.8-1.5-1.7-3.2-2.4-4.9c-0.1-0.2-0.5,0.1-0.5,0.2
					c-0.4,3.3-1.1,6.8-1.9,9.9c0.2-0.1,0.6-0.2,0.8-0.4c-0.8-0.5-1.9-0.7-2.7-1.1c-0.2-0.1-0.5-0.1-0.6,0.1c-0.2,1.7-0.5,3.3-0.9,5
					c0.2-0.1,0.5-0.2,0.7-0.4c-1.1,0.2-3,0.5-3.7,1.2c-0.9,0.8-1.5,2.3-2.3,3.2c0.5,0,0.9,0,1.4-0.1c-0.6-1.4-1.1-3-1.3-4.5
					c0-0.4-0.5,0.1-0.5,0.2c-1.4,2.7-3.2,6.4-5.7,8.4c0.2,0,0.6-0.1,0.8-0.1c-0.1-0.9-0.2-1.8-0.4-2.7c0.1-0.5,0.2-0.9,0.4-1.4
					c0.2-1.2,0.1,0.2,0.1-0.8c0-1.5-0.5-3.1-0.7-4.5c0-0.2-0.6-0.2-0.6,0c-0.8,3.8-1.7,7.7-3,11.4c0.2,0,0.6-0.1,0.8-0.1
					c-0.4-1.4-0.2-3.1-0.7-4.5c-0.2-0.7-0.8-1.2-0.9-1.9c-0.2-0.7,0.1-1.7,0.2-2.5c0-0.1-0.5-0.2-0.6-0.1c-0.8,1.3-2.1,2.5-3.4,3.6
					c0.2,0.1,0.4,0.2,0.6,0.4c0.7-2,1.7-4,2.4-6c0.6-1.5,0.7-1.5,0-3.1c-0.2-0.6-0.7-2.1-1.3-2.4c-0.6-0.2-2,0-2.6,0.1
					c-0.8,0-1.8,0.1-2.6,0.1c0.1,0.1,0.2,0.4,0.4,0.5c0.5-0.9,0.9-2,1.5-2.8c0,0,0,0,0-0.1c-0.5-0.5-0.9-0.9-1.4-1.4
					c-0.7-0.7-0.6-0.7-0.6-1.8c0-1.2,0-2.3,0-3.4c0,0.1,0.1-0.9,0-1.2c-0.5-1.1-2.1-1.4-2.5-2.6c-0.2-0.8-0.1-2.1-0.1-3.1
					c0-1.2-0.1-2.3-0.1-3.4c0-0.2-0.5-0.2-0.6-0.1c-0.7,0.7-1.8,1.2-2.7,1.5c0.1,0.1,0.2,0.2,0.5,0.4c1.1-4.1,1.7-8.3,2.5-12.6
					c0-0.1-0.5-0.2-0.6-0.2c-0.7,0.4-1.8,0.2-2.6,0.4c-0.7,0.1-1.3,0.2-2,0.4c0.1,0.1,0.2,0.2,0.4,0.5c1.3-3.1,2.4-6.3,3.6-9.4
					c0-0.1-0.5-0.4-0.6-0.2c-0.7,1.4-2,3-3.2,4c0.2,0.1,0.4,0.2,0.6,0.2c0.9-4,2-7.9,3-12c0-0.1-0.5-0.4-0.6-0.2
					c-0.6,1.2-1.8,2.4-2.6,3.2c0.1,0.1,0.4,0.1,0.5,0.2c0-1.3,0.1-2.6,0-3.9c0-0.6,0.1-1.8-0.1-2.3c-0.1-0.2-1.1-0.6-1.1-0.6
					c-4.4-2.5-4.5-7.6-4.1-12.1c-0.2,0-0.4,0.1-0.6,0.1c1.5,1.7,3.9,2.7,5.8,4c1.2,0.8,2.5,1.7,3.7,2.6c0.8,0.7,1.7,1.3,2.5,2
					c0.2,0.2,0.5,0,0.5-0.2c0.1-1.4-0.1-2.7-0.5-4.1c0,0.2,0,0.4,0,0.6c0.1-0.8,0.2-1.3,0.7-2c0.4-0.5,0.8-0.9,1.3-1.4
					c0.8-0.9,0.6-1.3,0.4-2.7c-0.1-0.9-0.8-2.4-0.4-3.2c0.5-1.1,1.8-2.1,2.5-3.1c0.1-0.1-0.2-0.6-0.2-0.5c-0.9,0.9-2.3,2.1-2.8,3.3
					c-0.4,0.7-0.2,0.4,0,1.5c0.4,1.3,1.2,3,0.4,4.1c-0.5,0.7-1.4,1.2-1.8,2c-0.5,0.8-0.4,0.8,0,2c0-0.2,0-0.4,0-0.6
					c-0.1,1.4,0,2.8-0.1,4.3c0.1-0.1,0.4-0.1,0.5-0.2c-0.8-0.6-1.7-1.2-2.5-1.8c-1.2-0.8-2.5-1.5-3.7-2.4c-1.9-1.3-4.1-2.7-5.7-4.3
					c-0.1-0.1-0.5,0-0.6,0.1c-0.5,4.3-0.5,9.1,3.4,12c0.6,0.5,1.4,0.6,1.8,1.2c0.4,0.7,0.2,2,0.2,2.7c0.1,0.8,0.4,2,0,2.7
					c-0.1,0.2,0.2,0.7,0.5,0.5c0.7-1.1,1.9-3,2.7-3.3c-0.1-0.1-0.4-0.1-0.5-0.2c-0.4,1.4-0.6,2.7-0.8,4.1c-0.5,2.5-0.6,5.8-2.1,7.8
					c-0.2,0.4,0.4,0.7,0.6,0.4c0.7-1.2,2-3.7,3.1-4.1c-0.1-0.1-0.4-0.1-0.5-0.2c-0.4,1.1-0.7,2-1.1,3.1c-0.4,1.2-0.7,2.4-1.2,3.6
					c-0.2,0.9-0.6,1.8-1.2,2.5c-0.2,0.2-0.2,0.7,0.2,0.6c1.5-0.5,3.3-0.9,4.9-1.1c-0.1-0.1-0.4-0.1-0.5-0.2
					c-0.4,1.8-0.6,3.6-0.8,5.3c-0.2,1.4-0.5,2.7-0.7,4.1c-0.1,1.1-0.4,2-0.8,3c-0.2,0.2,0.1,0.7,0.4,0.5c0.8-0.7,1.8-1.5,2.8-1.9
					c-0.1,0-0.4-0.1-0.5-0.1c0,1.4,0.1,2.8,0.2,4.3c0,0.5-0.1,2.3,0.1,2.7c0.6,1.2,2.3,1.4,2.5,2.8c0.2,1.2,0,2.7,0,3.9
					c0,0.2-0.1,0.9,0,1.3c0.4,0.7,1.4,1.1,1.8,1.8c0.4,0.7-0.6,2.3-1.2,2.5c-0.4,0.2-0.2,0.7,0.2,0.7c1.1-0.1,2.3-0.2,3.4-0.5
					c1.7-0.2,1.7,0.6,2.3,1.9c0.7,1.4,0.2,2.1-0.2,3.7c-0.5,1.7-0.8,3.8-2.3,5c-0.4,0.2,0.2,0.8,0.5,0.5c0.9-1.2,2-3.1,3.4-3.8
					c-0.1,0-0.4-0.1-0.5-0.1c-0.1,0.9-0.5,1.9-0.2,2.7c0.6,1.9,2.5,4,1.3,6.3c-0.2,0.5,0.8,0.5,0.8,0c0.2-1.2,0.5-2.4,0.7-3.6
					c0.5-2.3,0.7-5.9,2-7.7c-0.2,0-0.4,0-0.6-0.1c0.2,1.4,0.6,2.8,0.7,4.1c0.2,1.7-0.2,3.7-0.7,5.2c0,0.1,0,0.2,0.1,0.4
					c0.1,0.1,0.2,0.1,0.4,0.2c0.1,0.1,0.7,0,0.8-0.1c2.6-2.3,3.6-6,5.3-8.9c-0.1,0.1-0.4,0.1-0.5,0.2c0.4,1.2,1.4,3.2,0.5,4.1
					c-0.5,0.6,1.1,0.6,1.3,0.1c1.1-1.7,2-3.6,4.3-3.8c0.2,0,0.7-0.1,0.7-0.4c0.1-1.5,0.4-3.2,0.6-4.7c-0.2,0-0.4,0.1-0.6,0.1
					c0.6,0.2,2.1,0.6,2.4,1.1c0.2,0.2,0.8,0.1,0.9-0.2c0.4-3.3,0.4-7,1.4-10.1c-0.1,0.1-0.4,0.1-0.5,0.2c0.7,1.3,2.3,3.2,1.8,4.7
					c-0.1,0.5,1.1,0.2,1.1-0.1c0.2-3.2,0.4-6.4,0.9-9.6c-0.1,0.1-0.4,0.1-0.5,0.2c0.7,0.6,2.5,1.4,2.7,2.4c0.1,0.5,0.8,0.2,0.8-0.1
					c-0.4-2.6-0.8-5.4-0.6-7.9c-0.1,0.1-0.4,0.2-0.5,0.2c0.7,0.7,2.8,2,3,3.1c0,0.5,0.8,0.4,0.8,0c0-1.9-0.1-4,0.4-5.8
					c-0.1,0.1-0.4,0.2-0.5,0.2c0.8,1.1,2.7,2.8,2.6,4.3c0,0.5,0.9,0.2,0.9-0.1c-0.1-1.4-0.2-2.7-0.2-4.1c-0.1-2.1-0.5-4.4-0.1-6.5
					c-0.1,0.1-0.4,0.2-0.5,0.2c0.8,1.3,2.8,3.1,2.4,4.7c-0.1,0.5,1.1,0.1,1.2-0.2c0.2-2.5,0.5-4.9,0.7-7.3c0.4-3.3,0.2-7,1.1-10.3
					c-0.1,0.1-0.4,0.2-0.5,0.2c0.6,0.8,2.3,2.3,2,3.4c-0.2,0.7,1.1,0.2,1.1-0.1c-0.1-1.3-0.4-2.6-0.5-4c-0.1-0.8-0.7-3.1-0.2-3.8
					s3-0.8,3.8-0.9c0.7-0.1,1.5-0.2,2.4-0.4c1.1-0.2,1.5-1.2,2.1-2c1.3-1.7,2.6-3.3,3.9-5c0.7-0.9,1.3-1.8,1.7-3v-0.1
					c-0.6-0.6-0.1-0.2-0.6-0.2c-0.4,0.1-0.7,0.2-1.1,0.2c-1.3,0.6-2.7,0.9-4.1,1.2c-2.4,0.5-4.7,0.7-7.1,0.8c-0.4,0-4.7,0.5-5,0
					c-0.2-0.5,1.1-3.4,1.2-3.9c0.4-1.2,0.9-2.5,1.2-3.7c0.1-0.5,0.1-0.5,0-0.8c-0.1-1.9-0.8-3.7-0.9-5.4c-0.1,0.1-0.1,0.2-0.2,0.4
					c2.6,0.2,5.3,0,7.8,0.7c0.4,0.1,0.4-0.4,0.1-0.5c-1.3-0.7-2.7-1.4-3.8-2.4c0,0.1-0.1,0.4-0.1,0.5c2.3-0.8,4.4-2.1,6.6-2.8
					c0.4-0.1-0.4-0.2-0.4-0.2c-2.3,0-4.5,0.2-6.8-0.1c0,0.1,0.1,0.2,0.1,0.5c0.8-0.8,1.5-1.8,2.5-2.5c0.2-0.2-0.1-0.4-0.2-0.5
					c-1.8-0.7-3.6-1.4-5.1-2.4c0,0.1-0.1,0.4-0.1,0.5c2.3-0.8,4.4-2.1,6.6-2.6c0.2,0-0.1-0.4-0.2-0.4c-2.5-0.1-5.1-0.1-7.6-0.6
					c0.1,0.1,0.2,0.2,0.4,0.4c0.4-0.8,0.5-1.5,0.8-2.4c0.1-0.2-0.2-0.2-0.4-0.2c-2-0.1-4-0.1-6-0.4c0.1,0.1,0.1,0.2,0.2,0.4
					c0.6-1.7,0.9-3.3,1.5-4.9c0.1-0.2-0.4,0-0.4,0c-0.6,0.2-7.7,2.6-7.7,2.6c-0.4-0.8,0.2-3.3,0.4-4.4c0-0.1-0.2,0.1-0.2,0.1
					c-0.7,0.7-1.4,1.3-2.1,1.9c0.1-0.1-1.7,1.7-1.8,1.7c-0.6,0-1.4-1.5-2-1.8c-0.2-0.1-1.5,0.1-1.4,0.1c-1.2,0.1-2.5,0.2-3.7,0.2
					c-0.9,0-0.6,0.1-1.1-0.6c-0.5-0.7-0.7-2.1-0.8-3c0-0.1-0.2,0-0.4,0c-0.6,0.4-1.3,0.6-1.9,0.9c-0.5,0.2-2,1.2-2.5,1.1
					c-0.2,0-0.9-1.3-1.1-1.5c-0.5-0.7-0.8-1.5-1.3-2.3h-0.1c-1.4,1.8-3.1,3.4-4.7,5c0.1,0,0.4,0,0.5,0c-0.8-0.9-1.7-1.8-2.6-2.7l0,0
					c-1.7,2.8-3.7,5.7-5.8,8.2c0.1,0.1,0.4,0.1,0.5,0.2c-0.1-1.2-0.1-2.7-0.6-3.7c0,0-0.1-0.4-0.1-0.2c-0.4,0.9-0.7,1.9-0.9,3
					c0-0.1,0.1-0.4,0.1-0.5c-0.8,1.3-1.4,2.8-2.1,4.1c0.1,0.1,0.4,0.1,0.5,0.2c-0.4-1.1-0.6-2-0.7-3.1c0-0.1-0.5-0.2-0.6-0.1
					c-0.7,1.8-1.4,3.7-1.7,5.6c0,0.1,0.2,0.2,0.2,0.4c2.6,1.7,5.6,2.6,8.2,4.1C49.5,36.6,49.9,36.2,49.4,35.9z"/>
			</g>
		</g>
	</g>
	<g>
		<path class="st2" d="M52.1,71.4l1.8-9.5c0,0-0.8-6.5-6.8-7c0,0-0.9,3.9,1.3,5.8c2.3,1.9,3.3,0.9,3.3,0.9L52.1,71.4z"/>
		<g>
			<g>
				<path class="st3" d="M52.6,71.2c0.5-2.6,0.9-5.3,1.5-7.9c0.1-0.8,0.4-1.4,0.1-2.1c-0.2-0.9-0.6-1.9-1.1-2.8
					c-1.4-2.4-3.3-3.2-5.9-3.8c-0.1,0-0.2,0-0.2,0.1c-0.5,2.1-0.4,4.6,1.2,6.4c0.8,0.8,2.6,1.9,3.8,0.9c-0.1-0.1-0.2-0.1-0.4-0.2
					c-0.2,3.3,0.2,6.6,0.1,9.9c0,0.5,0.6,0,0.6-0.2c-0.1-3.1-0.6-6.4-0.2-9.5c0-0.1-0.1-0.4-0.2-0.2c-1.2,0.7-1.9-0.1-2.4-2.8
					c-1.9-0.9-2.6-2.3-2-3.7c2.8,0,4.5,1.3,5,4c1.4,1.2,1.9,2.6,1.4,4c-0.5,2.6-0.9,5.3-1.5,7.9C52,71.5,52.5,71.5,52.6,71.2z"/>
				<path class="st3" d="M52.7,70.9c0.4-1.9,0.7-3.7,1.1-5.6c0.2-1.3,0.8-2.7,0.7-4c-0.1-1.7-1.2-3.4-2.1-4.6
					c-1.4-1.7-3.1-2.1-5.1-2.5c-0.1,0-0.1,0-0.1,0.1c-0.7,2.7-0.5,6.4,2.6,7.6c-0.7-0.2,1.8,0.4,1.7,0.2c0.2,0.2,0.1-0.1,0.4,0.1
					c0,0.8,0,1.7,0,2.5c0,0.6,0,1.2,0,1.8c0,1.7,0.1,3.2,0.1,4.9c0,0.2,0.4,0.4,0.4,0C52.1,68,52,64.8,52,61.5c0,0-0.1-0.1-0.1,0
					c-5.9-6-6.6-7.8-2.3-5.3c1.5,0.2,2.6,1.1,3.2,2.4c0.8,1.4,1.2,3.1,0.8,4.6c-0.5,2.6-0.9,5.3-1.5,7.9
					C52,71.6,52.7,71.1,52.7,70.9z"/>
				<path class="st3" d="M53.1,71.4c0.4-2.1,0.8-4.3,1.2-6.4c0.2-1.1,0.6-2.3,0.5-3.3c-0.1-0.9-0.6-1.9-1.1-2.7
					c-1.4-2.7-3.4-3.8-6.4-4.4h-0.1c-0.6,2.3-0.6,4.9,1.2,6.6c0.9,0.9,2.6,1.8,3.9,1.2c-0.1-0.1-0.2-0.2-0.4-0.2
					c-0.4,3.2,0,6.5,0,9.8c0,0.2,0.4,0.2,0.4,0c0-1.7-0.1-3.2-0.1-4.9c0-1.5-0.2-3.3,0.1-4.9c0-0.2-0.2-0.4-0.5-0.2
					c-0.7,0-1.4,0-2.1,0c-0.8-1.2-1.8-2.3-2.6-3.4c-0.1-0.6-0.4-2.8,0-3.2c0.7,0,1.4,0,2.1,0c0.6,0.2,1.1,0.6,1.7,0.8
					c1.4,1.1,2.8,3.3,3.1,5c0.2,1.4-0.4,3-0.6,4.4c-0.4,1.9-0.7,3.7-1.1,5.6C52.5,71.5,53.1,71.6,53.1,71.4z"/>
				<path class="st3" d="M53.2,71c0.4-1.9,0.7-3.7,1.1-5.6c0.2-1.2,0.8-2.7,0.7-3.9c-0.1-1.1-0.8-2.5-1.4-3.4
					c-1.5-2.5-3.4-3.2-6.2-3.7c-0.1,0-0.2,0.1-0.2,0.2c-0.7,2.1-0.5,4.7,1.2,6.4c0.9,0.9,2.5,1.8,3.8,1.1c-0.1-0.1-0.2-0.2-0.4-0.2
					c-0.2,3.2,0.1,6.5,0.1,9.8c0,0.2,0.4,0.2,0.4,0c0-1.7-0.1-3.2-0.1-4.9c0-1.5-0.2-3.3,0.1-4.9c0-0.1-0.2-0.4-0.4-0.2
					c-0.8,0.8-2.6-0.2-3.3-0.8c-0.7-0.7-1.1-1.5-1.3-2.5c-0.1-0.5-0.4-2-0.1-2.4c0.7-0.2,1.4-0.5,2.1-0.7c1.4,0.5,2.5,1.4,3.2,2.6
					c0.8,1.2,1.5,3.4,1.4,4.9c-0.1,0.9-0.4,1.9-0.6,2.8c-0.4,1.9-0.7,3.7-1.1,5.6C52.2,71.6,53.2,71.2,53.2,71z"/>
				<path class="st3" d="M52.6,70.8c0.4-1.9,0.7-3.7,1.1-5.6c0.2-1.2,0.8-2.7,0.7-3.9c-0.1-1.2-0.7-2.5-1.3-3.6
					c-1.4-2.5-3.4-3.3-6.2-3.9c-0.1,0-0.2,0-0.2,0.1c-0.5,2.1-0.5,4.5,0.8,6.3c0.7,0.9,3.3,3,4.4,1.3c-0.1,0-0.2,0.1-0.4,0.1
					c0.4,3.1,0.1,6.4,0,9.6c0,0.2,0.2,0.5,0.2,0.2c0-2.7-0.2-5.4-0.1-8.1c0.7-1.4,0.6-2-0.4-1.8c-0.7,0.4-1.3,0.2-2-0.2
					c-1.8-0.9-2.6-2.5-2.6-4.7c0-0.6,0.1-1.1,0.2-1.5c0.1-0.9,0.7-0.9,2-0.2c1.7,0.6,2.8,1.7,3.7,3.2c0.6,0.9,1.2,2.3,1.2,3.3
					c0,1.4-0.6,3.2-0.8,4.6c-0.2,1.5-0.6,3.2-0.8,4.7C52.1,71,52.5,71,52.6,70.8z"/>
				<path class="st3" d="M52.6,71.5c0.6-2.8,1.1-5.7,1.5-8.5c0.2-0.9,0.2-1.2-0.1-2.1c-0.4-1.3-1.1-2.6-1.9-3.7c-1.3-1.5-3-2-5-2.4
					c0,0-0.2-0.1-0.2,0c-0.1,1.9-0.6,3.3,0.2,5.2c0.5,1.1,1.2,1.8,2.3,2.4c0.8,0.4,1.8,0.7,2.5,0c-0.1-0.1-0.2-0.1-0.4-0.2
					c-0.4,3.3,0,6.8-0.1,10.1c0,0.4,0.5-0.1,0.5-0.5c0-3.1-0.5-6.4,0-9.5c0-0.2-0.1-0.5-0.4-0.2c-0.7,0.5-1.4,0.1-2.1-0.9
					c-2-0.4-2.8-1.7-2.6-3.7c-0.2-2.6,0.9-2,3.6,1.8c3,0.7,4,2,3.3,4c-0.5,2.6-0.9,5.3-1.5,7.9C52.4,71.2,52.6,71.6,52.6,71.5z"/>
				<path class="st3" d="M52.5,71.2c0.4-1.9,0.7-3.7,1.1-5.6c0.2-1.3,0.8-2.8,0.7-4.1c-0.1-1.5-1.1-3.3-2.1-4.5
					c-1.3-1.7-3.1-2.1-5.1-2.5c-0.1,0-0.2,0.1-0.2,0.1c-0.4,2-0.5,4.3,0.8,5.9c0.8,1.2,3,2.6,4.4,1.5c-0.1,0-0.2-0.1-0.4-0.1
					c-0.4,3.2,0,6.6-0.2,9.8c0,0.5,0.6,0.1,0.6-0.2c-0.1-3.1-0.5-6.5,0-9.6c0-0.1-0.2-0.1-0.4-0.1c-0.4,0.2-0.8,0.2-1.2,0.2
					c-3.1-7.7-2.3-9,2.4-3.8c0.6,0.8,1.2,2.3,1.3,3.3c0.1,1.4-0.6,3.3-0.8,4.7c-0.2,1.5-0.6,3.2-0.8,4.7
					C52.1,71.1,52.5,71.4,52.5,71.2z"/>
			</g>
		</g>
	</g>
	<g>
		<path class="st2" d="M75.7,74.2l1.7-9c0,0,3.2-5.4,9.4-3.3c0,0-0.5,3.8-3.4,4.5c-3,0.8-3.6-0.6-3.6-0.6L75.7,74.2z"/>
		<g>
			<g>
				<path class="st3" d="M76.2,74.1c0.5-2.5,0.9-5,1.4-7.6c0.4-2,0.8-3.6,3.8-4.3c1.7,0,3.4,0,5.1,0.1c-0.7,2.8-3,4-6.8,3.4
					c-0.1-0.2-0.4-0.1-0.4,0c-1.4,2.8-2.7,5.7-4.3,8.4c-0.2,0.4,0.5,0.4,0.6,0.1c1.3-2.8,2.6-5.7,4-8.4c-0.1,0-0.2,0-0.4,0
					c0.4,1.4,2.7,1.2,3.8,0.9c0.9-0.4,1.8-0.7,2.4-1.5c0.8-0.9,0.9-2.1,1.5-3.1c0.1-0.1-0.1-0.2-0.2-0.4c-2.5-0.6-4.7-0.7-7,0.8
					c-0.8,0.5-1.5,1.2-2,2c-0.6,0.8-0.6,1.7-0.8,2.6c-0.5,2.3-0.8,4.5-1.3,6.9C75.7,74.3,76.2,74.3,76.2,74.1z"/>
				<path class="st3" d="M76.3,73.7c0.5-2.3,0.8-4.5,1.3-6.9c0.1-0.4,0.1-0.8,0.2-1.2c0.5-3.3,3.4-4.5,8.9-3.6
					c-0.2,0.6-0.5,1.3-0.8,1.9c-1.3,2.3-3.3,2.8-6.2,1.5c-0.1-0.1-0.4-0.4-0.4-0.1c-1.3,2.8-2.7,5.7-4.1,8.5
					c-0.1,0.2,0.4,0.5,0.5,0.2c1.3-2.8,2.6-5.7,4.1-8.4c-0.1-0.1-0.2-0.1-0.5-0.2c0.2,0.9,1.4,1.3,2.3,1.2c1.4,0,2.8-0.6,3.8-1.7
					c0.8-0.9,0.9-2.1,1.7-3.1c0.1-0.1,0-0.4-0.1-0.4c-2-0.5-3.7-0.8-5.7,0.1c-1.3,0.6-2.5,1.5-3.4,2.6c-0.5,0.6-0.5,0.8-0.7,1.5
					c-0.5,2.7-1.1,5.3-1.5,8.1C75.6,74.4,76.3,74,76.3,73.7z"/>
				<path class="st3" d="M76.6,74.2c0.2-1.5,0.6-3,0.8-4.5c0.2-1.3,0.4-2.8,0.7-4.1c0.2-0.7,0.8-1.3,1.4-1.8
					c2.4-2.1,4.9-2.1,7.9-1.3c-0.2-0.1-0.4-0.2-0.6-0.4c-0.2,0.7-0.5,1.4-0.8,2c-1.7,2.6-3.7,3.2-6.3,1.5c-0.4,0.1-0.6,0.4-0.7,0.7
					c-0.9,1.2-1.4,3-2.1,4.3c-0.6,1.2-1.1,2.4-1.7,3.4c0,0.1,0.2,0.4,0.4,0.2c1.4-2.8,2.5-6,4.3-8.6c-0.1,0-0.2-0.1-0.4-0.1
					c0.4,1.2,2,1.2,3.1,1.2c1.3-0.1,2.3-0.6,3.1-1.5c0.7-0.7,1.1-2.3,1.9-2.7c0.4-0.2-0.4-0.5-0.5-0.6c-2.3-0.5-4.1-0.8-6.3,0.4
					c-1.1,0.6-2.5,1.5-3.1,2.7c-0.4,0.8-0.4,2-0.6,2.8c-0.4,2-0.7,4-1.2,6.2C76,74.3,76.6,74.4,76.6,74.2z"/>
				<path class="st3" d="M76.8,73.8c0.5-2.5,0.9-5,1.4-7.6c0.7-3.9,5.3-5,9-4.1c-0.1-0.1-0.2-0.2-0.4-0.2c-0.1,0.4-0.2,0.7-0.2,1.2
					c-0.4,1.7-1.4,2.6-3.1,2.7c-0.6,0.2-3.1,1.4-3.6-0.1c0-0.1-0.4-0.1-0.4,0c-1.3,2.8-2.7,5.7-4.1,8.5c0,0.1,0.1,0.5,0.2,0.2
					c0.9-1.9,1.8-3.9,2.6-5.8c0.1-0.1,1.7-2.7,1.3-2.7c0,0,0.2,0.4,0.4,0.5c1.4,0.9,3.4,0.5,4.9-0.4c1.4-0.9,1.5-2.8,3-3.8
					c0.2-0.2-0.2-0.4-0.4-0.4c-3.4-0.8-6.5-0.5-9.1,2.4c-0.7,0.8-0.7,1.2-0.9,2.3c-0.5,2.5-0.9,5-1.4,7.6
					C75.8,74.4,76.8,74.1,76.8,73.8z"/>
				<path class="st3" d="M76.2,73.6c0.2-1.5,0.6-3,0.8-4.5c0.2-1.4,0.2-3.6,1.2-4.7c1.3-1.8,3.7-2.8,5.8-3c0.6-0.1,1.2,0,1.8,0.2
					c1.4,0.1,1.3,0.8-0.4,2c-0.4,1.4-1.3,2.1-2.7,2.1c-1.2,0.6-2.3,0.5-3.3-0.6c0-0.1-0.4-0.4-0.5-0.1c-1.3,3-2.7,5.8-4.3,8.6
					c-0.1,0.4,0.4,0.5,0.5,0.4c1.3-2.8,2.6-5.9,4.3-8.6c-0.1-0.1-0.4-0.1-0.5-0.2c0.2,1.3,2,1.4,3,1.3c2.7-0.2,4-2.3,5-4.6l-0.1-0.4
					c-2.7-0.7-5.1-0.7-7.5,1.1c-0.7,0.5-1.5,1.2-2,1.9c-0.4,0.8-0.4,2-0.6,3c-0.4,2-0.7,4-1.2,6.2C75.7,73.8,76.2,73.8,76.2,73.6z"
					/>
				<path class="st3" d="M76.2,74.3c0.2-1.5,0.6-3,0.8-4.5c0.2-1.3,0.2-3.1,0.8-4.3c0.2-0.6,0.8-1.2,1.4-1.7
					c2.4-2.1,4.7-2.1,7.9-1.3c-0.1-0.1-0.1-0.2-0.2-0.4c-0.4,0.7-0.6,1.3-0.9,2c-1.1,1.8-5.9,4.3-6.4,1.5c0,0,0-0.1,0,0
					c-1.9,2.6-3,5.9-4.5,8.9c-0.1,0.2,0.4,0.2,0.5,0c1.1-2.4,2.3-4.7,3.3-7.1c0.1-0.2,0.2-0.9,0.6-1.1c0.1-0.1,0.8,0.5,1.1,0.6
					c1.3,0.5,2.8,0.1,4-0.6c1.7-1.1,1.9-2.5,2.8-3.9c0.1-0.1-0.1-0.4-0.2-0.4c-1.9-0.5-3.7-0.8-5.6,0c-1.3,0.5-3,1.7-3.7,3
					c-0.6,1.1-0.6,2.6-0.8,3.8C76.8,70.8,76.4,72.5,76.2,74.3C75.9,74.1,76.2,74.4,76.2,74.3z"/>
				<path class="st3" d="M76,74.1c0.4-1.8,0.7-3.6,0.9-5.3c0.2-1.4,0.2-3.2,1.3-4.4c1.2-1.3,2.8-2.4,4.5-2.6
					c1.2,0.2,2.5,0.4,3.7,0.6c0,0.1-0.1,0.2-0.1,0.4c-0.5,1.3-1.7,1.9-3.6,1.7c-2,2.1-3.1,2.5-3.4,1.2c0-0.2-0.2-0.1-0.4,0
					c-1.7,2.7-3,5.8-4.5,8.6c-0.1,0.4,0.7,0.2,0.8,0c0.5-1.2,1.1-2.3,1.5-3.4c0.6-1.3,1.5-2.7,2-4.1c0.2-0.9,0-0.6,0.5-0.4
					c0.6,0.4,0.8,0.5,1.7,0.6c3.1,0.1,5.1-2.1,5.8-5v-0.1c-2.3-0.6-4.1-0.8-6.4,0.2c-1.1,0.6-2.6,1.5-3.2,2.7
					c-0.4,0.8-0.4,2-0.6,2.8c-0.4,2-0.7,4-1.2,6.2C75.7,74,76,74.2,76,74.1z"/>
			</g>
		</g>
	</g>
	<g>
		<path class="st4" d="M73,27.9c0,0-2.8-6.8-17.1-3.9C41.7,26.8,40.2,36.9,37,40.1c-3.2,3.2-5.4,5.6-9.8,7c-4.4,1.4-6.4-3.6-6.4-3.6
			s-4.6-6.2-0.2-15.9c4.4-9.7,16.6-12.8,16.6-12.8s-10.8-3.2-20.3,5.4c-9.5,8.6-6.8,29.4-6.8,29.4s1.2,5.4,7.6,7.7
			c6.3,2.3,16.7,1.7,16.7,1.7s10.3-3,14-10.1c3.8-7.1,17.9-7,17.9-7S72.7,41.5,73,27.9z"/>
		<g>
			<g>
				<path class="st1" d="M73.1,27.6c-1.4-3.9-6.6-4.9-10.3-5.1c-4.4-0.2-9.1,0.8-13,2.6c-5,2.1-8.3,5.8-10.9,10.4
					c-2.4,4-5.6,7.9-9.8,10.1c-6.6,3.3-6.9,0.4-8.2-2.4c-0.1-0.4-0.4-0.7-0.6-1.2c-0.5-1.1-0.8-2.3-1.1-3.4c-0.2-0.9-0.4-2-0.4-3.1
					c2.5-5,5-10.1,7.5-15c2.1-1.9,5.7-3.7,8.3-4.6c0.8-0.4,1.8-0.6,2.7-0.8c0.4,0,0.1-0.5,0-0.6c-1.2-0.5-2.6-0.6-3.9-0.7
					c-2.7-0.2-5.3-0.1-8.1,0.6c-3.4,0.9-6.8,2.7-9.4,5.2c-3.8,3.7-5.8,8.9-6.6,14C8.7,38,8.4,42.5,8.7,47c0.1,1.5,0.1,3,0.7,4.3
					c3,6.4,9.8,7.8,16.3,8.3c2.7,0.2,5.7,0.6,8.4,0.1c2.1-0.4,4.1-1.7,6-2.6c1.9-1.1,3.6-2.3,5.2-3.7c2.6-2.4,1.3-1.7,3.3-4.3
					c1.7-2.1,3.3-3.8,5.9-4.7c1.8-0.7,3.6-1.2,5.4-1.5c2.1-0.4,4.3-0.2,6.3-0.5c0.9-0.1,1.8-0.6,2.5-1.1c4-3.1,4.4-9,4.6-13.5
					c0-0.5-0.6-0.6-0.6-0.2c-0.2,2.7-1.2,13.1-6.8,14.1c-0.8,0.1-1.8,0-2.6,0.1c-5,0.4-10.5,1.4-14.1,5.1c-0.5,0.6-0.9,1.2-1.3,1.9
					c-1.3,2.4-3.1,4.3-5.2,5.8C41,55.8,39,56.9,37,57.8c-0.9,0.5-2.1,0.9-3.2,1.1c-1.8,0.2-3.8,0.1-5.6,0c-6.6-0.2-15.4-1.3-18-8.6
					c-0.2-0.7-0.4-1.3-0.4-2c-0.2-2.4-0.2-4.9-0.2-7.3c0.1-3.4,0.5-6.9,1.3-10.2c0.5-2,1.2-3.9,2.1-5.7c1.1-2.4,2.7-4.1,5.1-5.4
					c1.7-1.9,3.7-3.2,6-4c1.5-0.6,3.1-0.9,4.7-1.2c2.7-0.4,5.4-0.4,8.1,0.7c0-0.2,0-0.4,0-0.6c-8.2,2-15.3,7.7-17.9,15.8
					c-1.2,3.6-1.1,7.6,0.2,11.1c0.6,1.4,1.3,3.1,2.3,4.3c4.6,5.4,12.9-2.6,15.8-6.2c0.9-1.2,1.7-2.5,2.4-3.8
					c1.4-2.5,3.1-4.7,5.2-6.6c5.3-4.6,13.9-6.9,20.6-5.4c1.4,0.2,2.6,0.6,3.9,1.3c1.2,0.6,2.1,1.4,2.7,2.6
					C72.3,28,73.3,28.1,73.1,27.6z"/>
				<path class="st1" d="M73.1,27.4c-0.9-3.7-5.4-5-8.8-5.3c-7.3-0.6-16,1.5-21.1,7c-2.4,2.6-3.9,5.6-5.7,8.5c-0.9,1.5-2.3,3-3.7,4
					c-2.5,1.5-5,3.1-7.5,4.6c-1.8-1.2-3.7-2.4-5.4-3.6c-0.6-1.2-1.2-2.6-1.4-3.9c-0.1-2.1-0.1-4.1-0.2-6.3
					c5.2-5.7,10.3-11.3,15.5-16.9c0.8-0.4,1.8-0.6,2.7-0.8c0.2,0,0.6-0.5,0.2-0.6c-5.2-1.7-11.3-1.1-16.1,1.3
					c-3.3,1.7-6.3,4.1-8.3,7.3c-1.9,3.2-3.1,6.8-3.7,10.3C9.1,36.8,8.9,40.6,9,44.3c0,1.8,0,3.7,0.5,5.3c1.1,3.6,4.4,6.5,7.8,7.7
					c2.7,0.9,5.7,1.3,8.5,1.5c2.7,0.2,5.8,0.6,8.5,0.2c2.4-0.2,5.2-1.9,7.1-3.1c1.9-1.2,3.6-2.5,5.1-4.1c1.4-1.5,2.3-3.7,3.7-5.1
					c2.5-2.5,5.6-3.3,8.9-4c2.1-0.5,4.1-0.8,6.3-0.8c0.7,0,1.3,0.1,2-0.1c2.3-0.7,3.9-3.1,4.9-5.2c1.2-3.1,1.4-6.2,1.7-9.4
					c0-0.6-0.8-0.4-0.8,0c-0.2,3.2-0.9,13.6-7,14.1c-2.7,0.2-5.4,0.4-8.2,0.9c-3.3,0.8-6.9,2.3-8.9,5.2c-1.8,2.5-3.2,4.9-5.8,6.6
					c-1.9,1.3-3.8,2.5-5.9,3.3c-0.8,0.4-1.9,0.8-2.7,1.1c-0.8,0.2-2,0.1-2.8,0.1c-7.1,0.1-19.4-0.4-21.6-9.4c-0.2-0.9-0.2-2-0.2-2.8
					c-0.2-3.3-0.1-6.8,0.2-10.2c0.5-4,1.4-8.2,3.2-11.7c3.8-7.6,16.3-14.8,24-9.9c0.1-0.2,0.1-0.4,0.2-0.6
					c-6.8,1.3-13.6,6-16.7,12.3c-1.7,3.4-2.6,7.3-2,11.1c0.4,2.3,1.2,4.3,2.1,6.3c0.6,1.2,1.5,2.4,2.8,3c3.8,1.7,8.4-2.4,11-4.7
					c2.3-2.1,3.6-4,5.1-6.6c1.7-2.8,3.7-5.6,6.4-7.6c5.9-4.4,14.8-6.4,21.8-3.9c1.9,0.7,3.7,1.8,4.7,3.6c-0.1-0.4-0.2-0.6-0.2-0.9
					c0,0.1,0,0.1,0,0.2C72.1,27.4,73.3,28.2,73.1,27.4z"/>
				<path class="st1" d="M73.2,27.4c0.1-1.1-2.3-2.6-3.1-3c-2.1-1.2-4.5-1.5-6.9-1.5c-7.3-0.2-15.3,2.3-20.4,7.7
					c-1.9,2.1-3.2,4.4-4.6,6.8c-2.1,3.4-5.2,6.5-8.8,8.4c-2.3,1.7-4.5,1.7-6.9,0.1c-0.5-0.5-0.8-1.1-1.1-1.8
					c-0.5-0.9-0.9-1.9-1.3-2.8c-2.4-6.4,0.1-14,4.7-18.6c2.5-2.5,5.6-4.3,8.8-5.6c1.4-0.6,3.1-1.3,4.6-1.3c0.6,0,0-0.6-0.2-0.7
					c-4.9-2.5-11.5-0.9-16.1,1.2c-7.1,3.3-10.9,10.1-12.2,17.6C9.1,38,9,42.1,9.1,46.2c0.1,1.4,0,3,0.5,4.4c1.4,5.3,6.8,8.1,11.7,9
					c3.6,0.7,7.2,0.9,10.9,0.9c1.8,0,3,0,4.6-0.6c2.7-1.1,5.4-2.4,7.7-4.1c1.1-0.8,2-1.8,3-2.7c1.8-2,2.8-5,5.2-6.6
					c3.9-2.5,9-3.3,13.6-3.3c0.7,0,1.4,0.1,2.1-0.1c1.4-0.5,2.5-1.7,3.3-2.8c2.4-3.6,2.6-8.1,2.7-12.2c0-0.5-0.8-0.6-0.8-0.1
					c-0.4,4.9-1.2,14-7.9,14.2c-3.2,0.1-6.6,0.6-9.7,1.7c-2.1,0.7-4.3,1.9-5.8,3.6c-0.9,1.3-1.9,2.6-2.7,4c-1.7,2-3.7,3.6-5.8,4.9
					c-2.5,1.4-5.2,3.1-8.1,3.1c-6.2,0.2-14.8,0.4-19.8-4c-3.2-2.8-3.7-6-3.8-10.2c-0.2-6.6,0.2-14,3.3-19.9
					c3.9-7.6,12.3-11.7,20.5-10.9c1.4,0.1,3,0.4,4.3,1.1c-0.1-0.2-0.1-0.5-0.2-0.7c-7.8,1.7-15.8,7.6-18,15.4
					c-0.9,3.6-1.2,7.2,0,10.8c0.4,0.9,0.7,1.8,1.1,2.7c0.6,1.9,2.4,3.7,4.3,3.8c1.5,0.1,3.3-0.7,4.7-1.4c2.4-1.2,5.3-3.7,7-5.8
					c1.7-1.9,2.6-4.3,3.9-6.4c1.8-3,4.6-6.3,7.8-7.8c7.9,0.1,16,0.2,23.9,0.4c0.2,0.2,0.2,0.6,0.2,0.8
					C72.6,27.6,73.2,27.5,73.2,27.4z"/>
				<path class="st1" d="M73.2,27.4c-0.1-1.4-2-2.7-3.1-3.2c-2.1-1.2-4.6-1.5-7-1.5c-6.2,0-12.3,1.5-17.3,5.2
					c-3.9,3-5.6,7.1-8.3,10.9c-1.4,1.9-3.6,3.9-5.4,5.2c-2.7,2-8.5,5.6-10.8-0.2c-0.7-2-1.5-3.8-1.8-5.9c-0.7-6.6,2.5-13.3,7.7-17.3
					c3-2.4,7.2-4.7,11.1-5.1c0.5,0,0-0.5-0.1-0.6c-5.2-2-11.7-0.9-16.6,1.5c-4.7,2.5-7.9,6.3-9.9,11.3c-1.5,3.8-2.1,8.1-2.4,12.2
					c-0.2,3.2-0.2,6.8,0.2,9.9c0.9,5.6,6.6,8.5,11.7,9.6c3.8,0.7,7.7,0.9,11.6,0.9c1.3,0,2.3,0,3.4-0.5c3.3-1.2,6.4-2.8,9.1-5.1
					c1.9-1.5,3-3.2,4.4-5.2c1.5-2.3,3.3-3.8,5.9-4.7c3.1-1.2,6.5-1.8,9.8-1.9c0.9,0,1.8,0.1,2.6-0.1c5.7-1.8,6-10.3,6.4-14.8
					c0-0.5-1.2-0.4-1.2,0.1c-0.4,4.5-0.9,13.5-7,14c-4.4,0.4-8.6,0.6-12.7,2.6c-2.1,1.1-3.7,2.5-5,4.5c-1.5,2.3-3.1,4.1-5.2,5.8
					c-3.1,2.3-6.9,4.4-10.8,4.5c-5.4,0.1-12.2,0.1-17.1-2.7c-2.8-1.7-5.1-4.5-5.4-7.8c-0.7-6.8-0.6-14.2,1.8-20.7
					c3.3-8.9,15.9-16.9,25.6-12.9c0-0.1,0-0.4,0.1-0.5c-7,1.7-13.5,6.2-16.7,12.6c-1.9,3.8-2.5,8.3-1.5,12.4
					c0.4,1.4,1.1,2.7,1.7,4.1c0.5,1.3,1.5,2.7,2.7,3.3c2.6,1.1,5.2-0.4,7.5-1.8c3.3-2.1,6.2-5,8.1-8.5c2.4-4.4,5.4-8.3,9.8-10.5
					c7.3-0.2,14.8-0.6,22.1-0.8c0.8,0.5,1.3,1.2,1.7,2C72.7,27.8,73.3,27.6,73.2,27.4z"/>
				<path class="st1" d="M72.7,27.1c-0.8-4.3-7-5.4-10.4-5.7c-4.9-0.2-10.5,0.9-14.9,3.4c-4.5,2.5-7.2,6.5-9.6,10.9
					c-1.2,2.3-2.7,4-4.6,5.7c-1.8,2.3-4,3-7,2.4c-2.7,1.8-4.5,1.7-5.3-0.4c-1.8-3.9-2.6-7.9-1.7-12.2c1.3-5.4,4.6-9.8,9.4-12.8
					c2.6-1.7,5.8-3.2,8.8-3.7c0,0-0.1-0.6-0.2-0.6c-0.5,0-1.8-0.5-2.1-0.5c-1.7-0.4-3.3-0.5-5-0.5c-4.1-0.1-8.4,1.3-11.8,3.7
					c-6.5,4.4-9,12-9.6,19.4c-0.2,3.1-0.4,6.2-0.1,9.2C8.5,47.1,8.5,48.6,9,50c1.9,5.6,7.6,8.1,13,8.8c3,0.4,5.9,0.5,8.9,0.5
					c2.5,0,3.8-0.1,6-1.1c2.1-0.9,4.3-2,6-3.4c0.4-0.2,1.8-1.4,2.1-1.7c0.6-0.7,1.2-1.3,1.9-2c0.8-1.4,1.8-2.7,2.8-4.1
					c2.7-2.7,6.4-3.8,10.1-4.5c2.1-0.4,4.3-0.2,6.4-0.5c0.8-0.1,1.7-0.6,2.4-1.1c4.1-3.1,4.5-9.1,4.7-13.6c0-0.1-0.5-0.5-0.5-0.2
					c-0.2,4.6-0.5,11.5-5.3,13.9c-1.3,0.6-1.2,0.5-2.5,0.5c-1.8,0-3.6,0.2-5.2,0.5c-3.7,0.6-7.6,1.8-10.3,4.6
					c-0.9,1.3-1.8,2.7-2.6,4c-3.2,2.4-6.4,4.7-9.7,7.1c-1.2,0.6-2.4,1.1-3.7,1.3c-2.6,0.5-5.4,0.1-8.2-0.1
					c-4.4-0.4-9.6-0.9-12.9-4.3C11,53,9.6,51.1,9.2,49C9,47.4,9,45.9,8.9,44.3c-0.2-7.8,0.7-16,5.2-22.6c2.8-4.1,7.6-6.5,12.2-7.7
					c2.4-0.6,8.5-1.3,10.9,0.6c-0.1-0.2-0.1-0.4-0.2-0.6C27.1,15.8,18,24.3,17.9,34.8c0,2.7,0.8,5,1.7,7.6c0.5,1.4,1.1,2.5,2.3,3.4
					c1.3,1.1,2.6,1.3,4.3,0.8c1.8-0.4,4-1.8,5.4-2.8c2-1.5,4-3.3,5.4-5.3c1.2-1.7,2-3.6,3.1-5.2c0.9-1.4,2-2.7,3.2-3.9
					c1.9-2,4.3-3.3,7-3.9c2.7-1.7,5.7-2.5,8.9-2.7c2-0.2,4-0.2,6,0.1c2,0.4,5.4,1.2,6.4,3.4c0-0.1,0-0.4,0-0.5c0,0,0,0-0.1,0
					C70.8,26.2,73,28,72.7,27.1z"/>
				<path class="st1" d="M72.8,27.5c0.1-1.5-2.7-3-3.8-3.4c-1.9-0.8-3.9-1.1-5.9-1.3c-3.6-0.2-8.2,0.5-11.5,1.8
					c-3.1,1.2-5.9,2.8-8.3,5.1c-3.6,3.3-5,8.3-8.4,11.6c-1.8,2.1-4.3,2.8-7.5,1.9c-3.8,2.6-5.9,2.6-6.6,0.1c0-0.1,0-0.2,0-0.4
					c-1.2-3.1-2.1-6.2-1.5-9.5c1.1-6.2,4.4-10.8,9.6-14.2c2.5-1.7,5.9-3.3,8.9-3.7c0.4,0,0.4-0.5,0.1-0.6c-1.4-0.7-3.1-0.7-4.5-0.9
					c-3-0.4-6,0.1-8.9,1.1c-3.9,1.4-7.5,3.9-10.1,7.2c-3,3.7-4.1,8.8-4.9,13.4c-0.6,3.9-0.7,7.9-0.5,12c0.1,1.2,0.1,2.5,0.4,3.7
					c1.7,5.8,7.6,8.2,13,8.9c2.8,0.4,5.6,0.5,8.4,0.5c1.4,0,3.1,0.2,4.4-0.2c2.6-0.8,5.4-2.4,7.7-3.9c1.9-1.3,3.4-2.7,4.9-4.5
					c0.9-1.1,3.3-4.6,4.3-5.6c2.1-1.9,6.4-2.7,9.4-3.1c1.8-0.2,3.6,0,5.3-0.2c0.6-0.1,1.1-0.2,1.7-0.6c4.9-2.7,5.1-9.8,5.4-14.7
					c0-0.2-0.5,0-0.5,0.2c-0.2,3.7-0.9,13.3-6.8,14.1c-0.8,0.1-1.8,0-2.5,0.1c-3.4,0.2-7.2,0.8-10.3,2.4c-1.4,0.7-2.7,1.5-3.8,2.7
					c-2.3,2.5-3.7,5.6-6.6,7.7c-2.8,2-6.5,4.4-10.1,4.4c-3.7,0.1-7.3,0-10.9-0.6c-2-0.2-3.9-0.8-5.7-2c-1.9-0.5-3.4-1.5-4.6-3.1
					c-2.5-3.2-2.4-7.1-2.4-11c0-7.7,1.2-16.6,6.9-22.3c3.4-3.3,8.1-5.4,12.8-5.9c2.7-0.4,5.9-0.5,8.3,0.9c0-0.2,0-0.5,0.1-0.6
					c-9.8,1.9-18.8,10.4-19.1,20.7c0,2.8,0.7,5.2,1.8,7.8c0.7,1.5,1.4,3.1,3,3.9c2.8,1.4,6.4-0.8,8.6-2.6c1.5-1.2,3.3-2.7,4.6-4.3
					c1.2-1.4,1.9-3,2.8-4.5c1.2-2.1,2.5-4.1,4.1-5.9c4.6-4.7,12.6-7.2,19.2-7c2.3,0.1,4.6,0.4,6.6,1.4c1.1,0.6,2.8,1.8,3.1,3.1
					C72.5,28.1,72.8,27.6,72.8,27.5z"/>
				<path class="st1" d="M72.6,27.4c-0.2-1.4-2-2.7-3.2-3.3c-2.6-1.4-5.7-1.7-8.6-1.5c-5.1,0.2-10.3,1.4-14.6,4.1
					c-4.3,2.7-6.5,6.5-9.1,10.7c-1.4,2.3-3.2,4-5.2,5.8c-1.1,0.9-2.3,1.9-3.6,2.5c-2,0.1-4,0.1-6,0.2c-0.9-0.6-1.4-1.9-1.8-3
					c-2.4-7.2-3.3-13.7,3.8-20.5c1.7-1.5,3.4-2.8,5.3-4c2.4-1.3,4.9-2.5,7.5-3.1c0.1,0,0.5-0.4,0.4-0.5c-2.5-1.2-5.9-1.3-8.5-0.9
					c-5,0.6-9.7,2.6-13.4,6c-7.3,6.9-8.1,18.8-7.3,28.3c0.1,1.4,0.2,2.4,0.8,3.6c1.5,3.2,4.5,5.7,7.9,6.8c4,1.2,8.3,1.4,12.4,1.5
					c1.4,0,3.6,0.2,5.1-0.1c1.5-0.5,3.3-1.3,4.7-2.1c2.1-1.2,4.4-2.5,6.2-4.3c0.7-0.6,1.3-1.4,1.9-2.1c3.4-4,1.2-2.8,4.4-5.1
					c3.9-2.7,8.6-3.7,13.4-3.8c7.1-0.2,7.9-9.1,8.4-14.6c0-0.1-0.2-0.6-0.2-0.5c-0.8,16.8-2.1,14.3-8.6,14.6c-1.2,0-2.4,0.1-3.4,0.4
					c-3.9,0.5-8.5,1.5-11.3,4.6c-1.8,3.1-4.4,5.4-7.8,7c-2,2.6-4.5,4.4-7.5,5.3c-1.1,0.2-2.4,0.1-3.4,0.1c-2.3,0-4.5-0.1-6.8-0.4
					c-1.7-0.1-3.3-0.5-5-0.8c-1.7-0.2-3.1-0.9-4.4-1.9c-2.6-1.5-4.9-3.3-5.4-6.6c-0.2-1.5-0.4-3.2-0.4-4.7
					C9.1,39.4,9.5,33.5,11.5,28c2.5-6.8,8.1-11.4,15-13.1c3.1-0.8,7.6-0.9,10.5,0.5c0.1-0.1,0.2-0.4,0.4-0.5
					c-4.5,0.6-9.2,3.3-12.6,6.4c-3.4,3.1-5.9,7.3-6.5,12c-0.4,2.7-0.2,5.4,0.7,8.1c0.6,1.7,1.3,3.8,2.5,5.1c1.3,1.4,3,1.5,4.7,1.2
					c3-0.6,5.7-2.8,7.8-4.9c1.2-1.1,2.4-2.1,3.3-3.4c1.7-2.3,2.6-4.9,4.4-7.1c2.5-3.2,5.9-5.4,9.6-7c4-1.7,9.6-2.4,14-1.7
					c2.4,0.2,4.4,1.2,5.9,2.8c0.4,0.2,0.5,0.6,0.6,0.9C71.5,27.5,72.8,28.1,72.6,27.4z"/>
			</g>
		</g>
	</g>
	<g>
		<path class="st4" d="M71.3,25.8c0,0,5.4-3.4,17.1,0.7S101,51.7,110,55.4c9,3.7,10.9-7.5,10.9-7.5s1.8-5.2,0.8-8.9
			c-0.9-3.7-2.1-9.9-12.3-16.8c0,0,11.1-0.7,17.6,13c0,0,4.9,6.5,0.9,24.3c-3.7,16.9-27.6,6.2-30.2,4.9c0,0-4.5-5.2-7.8-10.5
			c-3.3-5.3-8.2-9.4-8.2-9.4s-8.1-0.1-9.1-2.8C71.7,38.7,68.9,36.3,71.3,25.8z"/>
		<g>
			<g>
				<path class="st1" d="M71.8,26.5c2.1-1.7,5.3-1.4,7.8-1.3c3.8,0.2,8.4,1.1,11.6,3.3c1.9,2.4,3.9,4.7,5.8,7.1c1.1,2,2,4,2.8,6
					c1.3,3,2.5,6,4.1,8.8c2.1,3.6,5.7,7,10.3,6.2c3-0.5,4.9-3,6-5.7c1.5-3.7,2.8-8.4,1.9-12.4c-0.6-2.6-1.5-5.1-2.8-7.5
					c-2.4-4.1-6-7-9.7-9.7c-0.1,0.2-0.2,0.4-0.2,0.6c1.2,0,2.5,0.4,3.7,0.7c1.3,0.4,2.5,0.8,3.7,1.4c2.1,1.8,4.1,3.4,6.3,5.2
					c2.3,2.5,4.1,6.3,5.1,9.7c0.6,2.5,0.8,5.2,0.8,7.7c0,2-0.1,3.9-0.5,5.8c-0.2,2.4-0.6,4.7-1.2,7.1c-4.6,11.5-16.3,8.8-23.9,6.2
					c-1.5-0.6-3.4-1.2-5-2c-1.2-0.7-1.8-1.8-2.6-2.8c-2-2.6-3.9-5.3-5.7-8.2c-1.4-2.1-2.8-4.1-4.6-5.9c-0.9-1.1-2.1-2.5-3.3-3.2
					c-0.5-0.2-0.2-0.1-0.8-0.2c-1.5-0.2-3.2-0.2-4.7-0.6c-0.8-0.1-1.5-0.4-2.3-0.7c-0.9-0.8-1.7-1.8-2.1-3
					c-2.1-4.3-1.3-9.4-0.4-13.9c0.1-0.4-0.6-0.4-0.6,0c-1.1,5.6-1.7,10.5,1.1,15.8c1.4,2.7,5.3,3,8.2,3.1c2.1,0.1,3.3,1.9,4.7,3.4
					c2.6,2.8,4.6,6.2,6.9,9.2c1.2,1.7,2.4,3.2,3.6,4.7c0.6,0.7,1.2,1.8,1.9,2.4c1.1,0.9,2.8,1.4,4,1.9c8.5,3.3,22.5,6.5,26.3-4.9
					c1.2-3.4,1.7-7.2,1.9-10.9c0.2-3.1,0.2-6.5-0.4-9.5c-0.4-2-0.9-3.8-1.9-5.6c-2.1-4-4.4-7.5-8.2-10.1c-1.7-1.2-3.8-2.3-5.7-2.7
					c-0.6-0.1-1.1-0.2-1.7-0.4c-0.7,0-1.3-0.1-2-0.4c-0.4-0.4-0.8,0.2-0.5,0.5c7.7,5.7,14.2,13.5,12.3,23.2
					c-0.1,0.8-0.4,1.7-0.6,2.5c-0.7,2.6-1.4,5.2-3.8,6.9c-4.7,1.7-8.4,0.8-10.9-2.5c-1.8-2.5-3.2-5.1-4.4-7.9
					c-1.9-4.1-3.6-8.4-6.2-12.1c-2.8-4-6.4-5.9-11.1-7c-4.1-0.9-9.2-1.5-13.1,0.6C71,25.9,71.4,26.7,71.8,26.5z"/>
				<path class="st1" d="M71.7,26.2c6-3.4,17.4-0.5,21.7,3.9c5.4,5.4,6.8,13.7,10.8,20c2,3.1,4.3,5.4,7.9,6.2
					c1.9,0.4,3.9-0.1,5.4-1.3c2.1-1.7,3.2-4.3,3.9-6.6c0.6-2.1,1.2-4.3,1.3-6.5c0.1-2.4-0.5-4.6-1.2-6.9
					c-2.1-6.2-6.6-10.3-11.8-14.1c-0.1,0.4-0.2,0.8-0.4,1.2c1.9-0.1,3.9,0.6,5.6,1.3c3,1.2,5.9,3.4,7.9,5.9
					c3.4,4.1,5.4,8.9,5.9,14.1c0.2,2.3,0.2,4.5,0,6.8c-0.2,3.1-0.7,6.2-1.4,9.2c-0.4,0.9-0.7,2-1.1,3c-4.9,4.9-10.1,6.6-15.8,5.3
					c-2.8-0.6-5.7-1.4-8.4-2.5c-1.5-0.6-3.6-1.2-4.7-2.4c-0.6-0.6-1.2-1.7-1.8-2.4c-2-2.6-3.8-5.3-5.6-8.2c-0.9-1.5-2-3-3.1-4.3
					C86,47,85,45.9,84,44.8c-0.6-0.6-1.3-1.2-1.9-1.8c-1.1-0.5,0.4,0.1-0.9-0.2c-1.3,0-2.6-0.1-3.9-0.2c-1.5-0.2-2.8-0.7-4.1-1.5
					c-0.6-0.8-0.9-2-1.3-3c-1.8-4.4-0.8-8.8,0-13.1c0.1-0.7-0.6-0.2-0.7,0.2c-0.6,3.3-1.3,6.6-0.8,9.9c0.2,1.8,0.9,3.3,1.7,5
					c0.6,1.3,1.1,2.1,2.4,2.7c2,0.9,4.3,0.8,6.5,1.2c1.8,0.2,3.2,2.3,4.3,3.4c3.2,3.4,5.4,7.6,8.3,11.3c1.1,1.4,2,2.7,3.1,4
					c0.2,0.4,0.6,0.9,0.9,1.2c0.7,0.6,2,0.9,3,1.3c1.7,0.7,3.4,1.3,5.2,1.9c4.7,1.3,10.9,2.7,15.6,0.6c2.1-0.9,3.7-2.1,4.9-4.1
					c1.8-2.7,2.3-6,2.7-9.2c0.4-2.7,0.6-5.3,0.6-8.1c0-6-1.7-11.3-5.2-16.2c-1.9-2.7-4.4-5.1-7.5-6.8c-1.2-0.6-2.5-1.1-3.9-1.4
					c-0.8-0.2-2.7-0.4-3.3-1.2c-0.5-0.6-0.8,0.8-0.5,1.1c4,3,7.8,6.2,10.2,10.7c2.4,4.6,3,9.1,1.8,13.7c-0.2,1.1-0.5,2-0.7,3.1
					c-0.1,0.4-0.2,0.8-0.5,1.2c-4.6,0.5-9.1,1.1-13.7,1.5c-1.7-1.8-2.7-4.4-3.8-6.5c-3.2-7-5.9-16.3-13.7-19.4c-4-1.5-8.8-2.5-13-2
					c-1.4,0.1-3.1,0.5-4.3,1.3C71.2,25.9,71.4,26.3,71.7,26.2z"/>
				<path class="st1" d="M72.8,27.3c1.9-1.9,7.3-1.5,9.2-1.2c1.2,0.2,2.3,0.5,3.4,0.7c6.4,1.2,10.9,5.3,13.4,12.3
					c1.5,3.1,2.6,6.3,4.1,9.4c1.2,2.5,2.7,5.4,5,7.1c2.5,1.8,5.6,2.6,8.6,1.4c2.1-0.8,3.6-3.2,4.4-5.2c1.2-2.8,2-6.4,2.1-9.4
					c0.1-3.1-0.9-6.2-2.3-8.9c-2.4-5.2-6.6-8.6-11.3-12c0,0.1,0.1,0.4,0.1,0.5c0.6,0.5,1.4,0.5,2.1,0.6c2.7,0.7,5.1,1.9,7.3,3.4
					c4.1,2.8,7.6,8.4,9,13.5c1.8,7.7,1.2,15.5-1.8,23.4c-2.6,1.9-5.3,3.8-7.9,5.6c-2.5,0.6-5.3,0.1-7.8-0.4c-2.5-0.5-4.9-1.2-7.2-2
					c-1.7-0.6-3.3-1.2-4.9-2c-1.8-0.9-2.8-3.1-4-4.6c-2.7-3.8-5.1-7.9-8.2-11.4c-1.2-1.3-2.4-2.6-3.7-3.8c-0.2-0.2-0.6-0.6-0.8-0.7
					c-0.4-0.1-0.1-0.1-0.9,0c-2.4,0.1-6.4-0.2-7.8-2.1c-0.9-1.4-1.3-3.2-1.8-4.9c-0.6-1.5-0.7-3.1-0.6-4.6c0.1-2.1,0.5-4.3,1.1-6.4
					c0-0.2-0.4-0.7-0.5-0.4c-0.7,3.4-1.5,7.1-0.8,10.8c0.4,1.7,0.9,3.4,1.7,5c0.7,1.7,2.5,2,4.1,2.4c0.8,0.1,1.8,0.2,2.6,0.4
					c0.8,0.1,2,0,2.7,0.2c0.7,0.2,1.5,1.2,2.1,1.8c1.9,1.9,3.7,3.9,5.2,6.2c2.3,3.3,4.5,6.6,6.9,9.9c0.2,0.2,1.4,2.1,1.4,2
					c0.9,0.7,2.7,1.4,3.8,1.8c3.9,1.7,8.2,3.1,12.4,3.3c3.3,0.2,7.1,0.1,9.9-1.9c2.5-1.7,3.8-4.3,4.5-7.1c1.7-6.5,2.4-14.1,0.8-20.8
					c-0.9-4-3.4-8.1-6.3-11c-2-2.3-4.5-4-7.2-5.2c-1.9-0.8-3.8-1.1-5.8-1.7c-0.4-0.1,0,0.5,0.1,0.5c6.4,4.9,13,11.5,12.6,20.4
					c-0.1,2.3-0.7,4.5-1.3,6.6c-0.8,1.7-1.7,3.3-2.4,5c-0.4,0.4-0.8,0.7-1.2,1.2c-2.5,1.8-4.9,1.9-7.1,0.5c-1.3-0.2-2.4-0.8-3.1-1.8
					c-4.3-4.3-6-11-8.6-16.2c-2.3-4.5-5-8.6-9.8-10.7c-4.7-2-12.4-3.3-17.3-0.7C71.3,26.2,72.5,27.6,72.8,27.3z"/>
				<path class="st1" d="M72.5,26.7c0.9-0.7,2.1-0.9,3.3-1.2c6.8-1.2,15.9,1.4,19.8,7.2c3.2,4.7,5,10.2,7.5,15.2c2,4,4.7,8.4,9.6,9
					c2.6,0.4,5.1-0.6,6.6-2.6c1.9-2.5,3-5.8,3.7-8.9c0.6-3,0.6-5.6-0.4-8.4c-0.6-2-1.4-4-2.5-5.9c-2.4-4.1-6.2-7-9.9-9.7
					c-0.1,0.2-0.2,0.5-0.4,0.7c4.4,1.2,2.3,0.5,8.9,5.3c4.1,1.7,7,4.4,8.4,8.3c0.1,0.4,0.4,0.6,0.5,0.9c1.9,4.1,1.9,10.2,1.7,14
					c-0.2,5.8-2.1,11.1-5.8,16c-0.7,0.4-1.4,0.7-2.1,1.1c-3.7,1.7-8.9,0.8-12.7-0.1c-2.4-0.6-4.6-1.3-6.9-2.3c-1.2-0.5-3-1.1-3.9-2
					c-1.4-1.4-2.5-3.3-3.7-4.9c-2.7-3.9-5-7.9-8.3-11.5c-0.9-1.1-2.6-3.1-3.9-3.6c-0.5,0-0.9,0.1-1.4,0.1c-1.4,0-3-0.2-4.4-0.6
					c-0.8-0.4-1.7-0.8-2.5-1.2c-0.5-0.6-0.8-1.2-0.9-1.9c-0.5-1.3-1.1-2.5-1.3-3.9c-0.7-3.6,0.2-7.2,0.9-10.7
					c0.1-0.6-0.8-0.4-0.8,0.1c-0.8,4-1.8,8.3-0.4,12.3c0.6,1.5,1.2,3.8,2.6,4.7c1.4,0.8,3.1,1.2,4.7,1.3c1.7,0.2,3.1,0,4.4,1.2
					c5.6,5.1,9.2,11.8,13.9,17.9c0.8,1.1,1.1,1.4,2.4,1.9c3.3,1.5,6.9,2.8,10.5,3.7c6.4,1.4,14.3,1.4,17.6-5.3
					c2.1-4.3,2.4-9.6,2.6-14.2c0.1-2.5,0.1-5.1-0.4-7.6c-0.9-5.3-3.7-10.7-7.8-14.2c-1.8-1.7-3.9-3.1-6.2-3.9
					c-0.6-0.2-1.2-0.5-1.8-0.7c-0.9-0.2-3.1-0.6-3.6-0.9c-0.4-0.2-0.8,0.4-0.5,0.6c4,3.1,7.8,6.2,10.2,10.8c2,3.9,2.8,8.4,2,12.7
					c-0.1,0.7-0.4,1.4-0.5,2c0,0.1,0,0.2-0.1,0.4c-0.7,6.2-3.3,8.8-7.9,7.8c-1.5,0.5-2.8,0.2-3.9-0.7c-1.2-0.6-2.1-1.4-2.7-2.7
					c-1.4-1.4-2.4-3-3.1-4.9c-0.9-1.9-1.9-3.8-2.7-5.8c-2.4-5.4-5-11.5-10.5-14.4c-3.6-1.9-8.1-2.8-12.1-2.8c-2.3,0-4.7,0.2-6.6,1.4
					C71.1,26.1,72.3,26.8,72.5,26.7z"/>
				<path class="st1" d="M71.4,26.1c5.3-2.3,11.8-1.5,17.1,0.7c7.1,3.1,9.7,10.9,12.7,17.5c2.4,5.2,6.6,14.3,14.2,11.7
					c4.7-1.5,6.2-7.5,7-11.8c0.5-2.6,0.4-5.1-0.4-7.7c-0.6-2.1-1.4-4-2.5-6c-2.4-4.1-6.2-7.1-9.9-9.9c-0.1,0.2-0.1,0.6-0.2,0.8
					c1.4,0,2.7,0.4,4,1.1c1.1,0.1,2,0.5,2.8,1.1c2.1,1.2,4,2.6,5.7,4.4c4,4.1,6.5,9.6,6.9,15.3c0.4,3.7,0,7.5-0.6,11.1
					c-0.5,3.3-1.2,7.6-3.6,10.2c-5.6,6.2-16.5,2.8-22.9,0.2c-1.3-0.6-3.1-1.1-4.3-2c-0.8-0.7-1.4-1.8-2-2.6
					c-4.1-5.7-7.6-12-12.8-16.8c-0.1-0.1-0.8-0.9-1.2-1.1c-0.7-0.2-2.1,0-3-0.1C77,42,75.3,41.6,73.9,41c-0.6-0.7-1.1-1.4-1.7-2.1
					c-2.5-4.4-1.3-9.6-0.4-14.2c0.1-0.4-0.5-0.7-0.6-0.4c-0.7,3.4-1.5,7.1-0.9,10.7c0.2,1.4,0.7,2.6,1.2,3.9
					c0.4,0.9,0.7,1.9,1.4,2.6c1.3,1.3,4.3,1.7,5.9,1.8c0.8,0.1,1.9-0.1,2.6,0.2c0.6,0.2,1.1,0.8,1.7,1.3c2.8,2.7,5.2,5.7,7.3,9
					c1.5,2.4,3.2,4.6,4.9,6.9c0.7,0.8,1.3,2,2.1,2.7c0.6,0.5,1.4,0.7,2,0.9c1.5,0.7,3.2,1.3,4.9,1.9c3.8,1.3,7.7,2.1,11.7,2.1
					c2.5,0,5.2-0.6,7.2-2c4.5-3.1,5.1-9.1,5.7-14.1c0.7-5.7,0.8-11.8-1.7-17.1c-2.3-4.7-5.4-9.7-10.3-12c-1.2-0.6-2.4-1.1-3.6-1.7
					c-1.7-0.7-2.7-0.1-3.8-1.4c-0.4-0.4-0.7,0.5-0.4,0.8c4.4,3.2,8.5,6.6,10.9,11.7c1.8,3.9,2.4,7.6,1.5,11.7
					c-0.2,0.9-0.5,1.8-0.6,2.7c-0.2,1.3-0.6,2.5-1.2,3.8c-0.4,1.1-1.1,2-2.3,2.5c-0.8,1.4-2,2.3-3.7,2.3c-3.2-2-6.4-3.9-9.6-5.9
					c-0.5-0.9-0.9-1.8-1.4-2.7c-1.5-3-2.6-6.2-4-9.2c-1.7-3.4-3.3-6.9-6.3-9.5c-2.3-2-5-3-7.9-3.8c-2.5-0.7-5.1-0.9-7.7-0.8
					c-1.8,0.1-4,0.2-5.4,1.5C71.5,25.9,71.3,26.1,71.4,26.1z"/>
				<path class="st1" d="M72.1,27.1c1.2-0.8,2.6-1.2,4-1.3c5.3-0.5,10.4,0.7,15.3,3.4c2.5,1.9,4.3,4.5,5.7,7.2
					c3.1,5.7,4.5,12.4,8.6,17.5c2.5,3.1,6.8,4.9,10.4,3.1c2.6-1.3,4.1-4.3,5-6.9c0.7-2.4,1.4-5.2,1.5-7.8c0.1-2.4-0.5-4.6-1.3-6.9
					c-0.8-2.3-2-4.4-3.4-6.3c-1.2-1.5-3.1-3.4-4.6-4.7c-1.8-1.4-4.5-1.8-3-2.1c1.8-0.5,5.2,1.5,6.6,2.5c2.4,1.4,4.4,3.2,6.2,5.4
					c3.4,4.1,5.2,9.2,5.7,14.4c0.7,8.8-2.1,24.2-12.7,24.2c-3.6,0-7.1-0.7-10.4-1.8c-3-0.9-6.9-1.9-8.8-4.4c-1.2-1.7-2.5-3.3-3.7-5
					c-2-2.8-3.8-5.9-6-8.6c-1.3-1.5-2.6-3-4-4.3c-0.7-0.7-0.7-0.8-1.5-1.1c-2.7-0.7-7.3,0.4-8.9-2.8c-0.5-0.9-0.9-2.1-1.3-3.2
					c-1.3-3.9-0.5-8.1,0.4-12c0-0.1-0.4-0.6-0.4-0.4c-0.7,3.4-1.7,7.2-0.9,10.9c0.4,1.8,1.1,4.1,2.1,5.7c1.2,1.7,3.7,1.9,5.4,2.1
					c1.7,0.2,3.2-0.2,4.5,0.9c5.7,5.1,9.2,12.1,13.9,18.1c0.8,1.1,1.2,1.4,2.4,2c3.3,1.5,6.9,2.8,10.5,3.6
					c5.2,1.2,11.8,1.7,15.9-2.7c1.2-1.3,1.8-2.7,2.3-4.3c1.4-4,1.9-8.6,2.1-12.9c0.2-7.2-1.4-13.7-6-19.3c-2.6-3.1-6-5.6-9.9-6.9
					c-1.3-0.5-2.8-0.9-4.1-0.9c-0.1,0-0.1,0,0,0.1c4.1,5.2,8.3,10.5,12.4,15.8c0.1,0.5,0.2,1.1,0.4,1.5c0.5,2.4,0.2,4.9-0.4,7.1
					c-0.2,0.9-0.5,2-0.8,3c-0.2,0.8-0.5,1.5-0.8,2.3c-0.9,2-2.3,3.4-4.3,4.3c-1.5,0.9-3.1,0.9-4.6-0.4c-1.8,0-3.1-0.6-4-1.9
					c-2.4-2.4-3.9-5.8-5.3-8.9c-1.9-4.1-3.6-8.3-6-12.1c-2.3-3.3-5.2-5.3-9-6.4c-4.7-1.4-10.5-2.4-15.3-0.1
					C71.1,26.3,71.7,27.5,72.1,27.1z"/>
				<path class="st1" d="M71.7,26.3c2.3-1.8,6.4-1.4,9.1-1.1c3.2,0.4,7.5,1.4,10.2,3.3c5.3,3.7,7.5,10.8,9.9,16.5
					c1.5,3.6,3.2,7.7,6.3,10.1c2.3,1.7,5.2,2.4,7.9,1.5c4.5-1.4,5.9-6.9,6.9-11c0.7-3.4,0.5-6.8-0.7-10.1c-2.1-6.2-6.6-10.2-11.7-14
					c-0.1,0.1-0.2,0.2-0.4,0.4c1.5,0.4,3.2,0.6,4.6,1.1c3.4,1.3,6.8,3.7,9,6.6c2.3,2.8,4,6.2,5,9.8c0.6,2.5,0.7,5.2,0.7,7.7
					c0,4.7-0.7,9.9-2.3,14.4c-3.2,9-17.6,6.9-25.2,3.7c-1.2-0.5-2.7-0.9-3.7-1.9c-1.1-1.1-2.1-2.7-3-4c-1.5-2.1-3-4.3-4.4-6.4
					c-1.2-1.8-2.5-3.6-3.9-5.1c-1.2-1.3-2.5-3.2-4.1-4.1c-1.3-0.7-3.4-0.4-5-0.7c-8.3-1.9-6.5-12.1-5.3-17.8c0-0.1-0.6-0.2-0.6,0
					c-0.7,3.6-1.5,7.1-0.8,10.8c0.4,1.7,0.9,3.4,1.7,5c0.7,1.4,2,2,3.6,2.4c0.6,0.1,1.2,0.2,1.8,0.4c1.2,0.2,2.7,0,3.9,0.4
					c0.6,0.1,0.9,0.5,1.3,0.8c1.2,1.1,2.3,2.3,3.3,3.4c3.3,3.8,5.8,8.3,8.8,12.3c0.8,1.2,1.7,3,3,3.7c2.7,1.5,5.9,2.6,8.9,3.4
					c3.8,1.1,8.1,1.9,12,1.3c1.7-0.4,3.7-0.9,5.1-2c1.9-1.4,3.1-3.3,3.9-5.6c1.2-3.4,1.8-7.2,2-10.8c0.5-7.7-0.7-15.2-5.9-21.2
					c-2-2.4-4.4-4.3-7.2-5.7c-1.5-0.7-3.1-1.3-4.7-1.8c-0.7-0.2-1.3-0.2-2-0.6c-0.1-0.1-0.7,0.2-0.4,0.4c4.4,3.2,8.4,6.6,10.9,11.7
					c1.4,2.8,2.3,6.2,2,9.4c-0.4,4.4-1.7,11.5-6.3,13c-1.2,0.1-2.4,0.2-3.6,0.4c-3.1-0.7-5.3-2.4-6.9-4.9c-2.1-3.1-3.4-6.5-5-9.8
					c-2.1-4.9-4.4-10.1-8.9-13.4c-1.4-0.9-3-1.7-4.7-2c-1.8-0.6-3.7-1.1-5.6-1.3C79,24.7,77,24.7,74.9,25c-1.3,0.2-2.5,0.6-3.7,1.2
					C71,26.3,71.4,26.6,71.7,26.3z"/>
			</g>
		</g>
	</g>
	<g>
		<path class="st2" d="M50.5,91l0.5-2.5l1.8,0.4c0,0,2,3.4,3.6,4.6c1.7,1.2-4.7,0.4-4.7,0.4L50.5,91z"/>
		<g>
			<g>
				<path class="st5" d="M51.1,90.9c0.1-0.8,0.4-1.7,0.5-2.5c-0.1,0.1-0.2,0.2-0.5,0.4c0.7,0.2,1.2,0.4,1.7,0.8
					c0.5,0.6,0.8,1.5,1.3,2.1c0.6,0.9,1.5,1.7,2.1,2.7c0-0.2,0.1-0.5,0.1-0.6c-0.8,0.4-1.8,0.1-2.6,0c-0.5-0.1-1.8-0.1-2.1-0.4
					c-0.6-0.5-0.7-2-0.9-2.7c-0.1-0.4-0.7-0.1-0.5,0.4c0.4,0.9,0.7,1.9,0.8,2.8c0,0.1,0.2,0.1,0.4,0.2c1.7,0.4,3.6,0.7,5.2,0.6
					c0.2,0,0.5-0.4,0.2-0.6c-0.9-1.4-2.1-2-3-3.8c-0.2-0.4-0.4-1.1-0.7-1.3c-0.5-0.4-1.2-0.4-1.7-0.7c-0.1-0.1-0.5,0.1-0.6,0.2
					c-0.1,0.8-0.4,1.7-0.5,2.5C50.3,91.2,51.1,91.2,51.1,90.9z"/>
				<path class="st5" d="M51.3,90.3c0.1-0.8,0.4-1.7,0.5-2.5c-0.2,0.2-0.5,0.5-0.7,0.7c1.5,0.4,1.7,0.6,2.4,1.9
					c0.8,1.4,2,2.4,2.8,3.7c0.1-0.1,0.1-0.1,0.2-0.2c-1.4,0.2-3.9-0.2-5.2-0.8c0.1,0.1,0.2,0.4,0.4,0.5c-0.2-1.1-0.7-2.1-0.9-3.2
					c-0.1-0.7-0.7,0-0.6,0.6c0.2,0.8,0.7,1.7,0.7,2.5c0,0.1,0.1,0.5,0.4,0.5c1.7,0.4,4,1.1,5.6,0.4c0.1,0,0-0.1,0-0.2
					c-0.6-0.9-1.5-1.7-2.1-2.6c-0.5-0.7-0.8-1.8-1.4-2.4c-0.4-0.4-1.3-0.6-1.4-1.2c-0.2-0.6-0.8,0.4-0.9,0.6
					c-0.1,0.8-0.4,1.7-0.5,2.5C50.3,91.4,51.3,90.8,51.3,90.3z"/>
				<path class="st5" d="M51.8,91c0.1-0.8,0.4-1.7,0.5-2.5c-0.2,0-0.5,0.1-0.6,0.1c0.6,0.4,1.2,0.6,1.7,1.2c0.4,0.5,0.6,1.2,0.9,1.7
					c0.7,1.2,1.9,2.3,2.6,3.4c0-0.2,0-0.5,0-0.7c-1.2,0.6-4.1-0.2-5.2-0.7c0.1,0.1,0.2,0.2,0.4,0.5c-0.5-0.7-0.8-2.3-0.9-3.1
					c0-0.1-0.5-0.6-0.4-0.2c0.1,0.4,0.1,0.6,0.2,0.9c0.1,0.6,0.1,1.5,0.5,2c0,0.4,0.1,0.5,0.4,0.4c0.5,0,0.9,0.1,1.4,0.1
					c1.3,0.2,2.5,0.6,3.7,0.9c0.4,0.1,0.5-0.2,0.4-0.5c-0.5-0.8-0.5-0.6-1.3-1.5c-0.8-0.9-1.4-2-1.9-3.2c-0.2-0.5,0-0.5-0.5-0.8
					c-0.5-0.4-0.9-0.4-1.4-0.8c-0.1-0.1-0.6,0-0.6,0.1c-0.1,0.8-0.4,1.7-0.5,2.5C50.9,91.4,51.6,91.4,51.8,91z"/>
				<path class="st5" d="M52,90.7c0.1-0.8,0.4-1.7,0.5-2.5c-0.4,0.1-0.8,0.4-1.2,0.5c0.5,0.2,1.1,0.4,1.7,0.6
					c0.2,0.5,0.5,0.8,0.7,1.3c0.2,0.5,0.5,0.8,0.8,1.3c1.2,0.7,1.3,1.4,0.4,2.3c-0.2,0.1-2.7-0.4-3.1-0.8c-0.5-0.6-0.6-1.9-0.7-2.6
					c0-0.4-0.7-0.4-0.6,0.1c0.2,0.9,0.7,1.9,0.8,3c0,0,0,0,0.1,0c1.8,0.5,3.7,0.8,5.4,0.9c0.4,0,0.5-0.2,0.4-0.5
					c-0.1-0.2-0.2-0.4-0.4-0.5c-0.8-1.2-1.7-1.9-2.4-3.3c-0.5-1.1-0.4-1.2-0.9-1.5c-0.4-0.2-0.9-0.2-1.1-0.7
					c-0.1-0.5-1.2,0.1-1.2,0.4c-0.1,0.8-0.4,1.7-0.5,2.5C50.6,91.4,51.9,91,52,90.7z"/>
				<path class="st5" d="M51.1,90.3c0.1-0.8,0.4-1.7,0.5-2.5c-0.1,0.1-0.2,0.1-0.4,0.2c0.4,0.1,0.8,0.4,1.1,0.5
					c0.7,0.6,0.9,1.5,1.4,2.3c0.6,0.8,1.1,1.7,1.8,2.4c0.6,0.6,0.7,0.8-0.2,0.7c-0.9-0.1-3.2-0.1-3.9-0.8c-0.4-0.4-0.7-2.5-0.8-3
					c-0.1-0.5-0.7-0.2-0.6,0.1c0.2,0.9,0.7,1.9,0.6,2.8c0,0.1,0.2,0.4,0.4,0.4c1.5,0.6,4.1,1.3,5.7,0.8l0,0
					c-0.4-0.6-0.8-0.8-1.2-1.3c-0.8-0.9-1.3-2.1-2-3.3c-0.2-0.5-0.5-0.8-0.9-1.2c-0.5-0.4-0.6,0-0.9-0.7c-0.1-0.2-0.5-0.2-0.6,0.1
					c-0.1,0.8-0.4,1.7-0.5,2.5C50.5,90.5,50.9,90.7,51.1,90.3z"/>
				<path class="st5" d="M51.1,91.2c0.1-0.8-0.1-2.7,1.1-2c1.1,0.6,1.5,2.1,2.1,3.1c0.6,0.9,1.5,1.8,2.1,2.8c0-0.2,0-0.6,0.1-0.8
					c-0.8,0.4-4.5-0.1-5.1-0.8c-0.4-0.5-0.4-1.9-0.6-2.6c0-0.1-0.6-0.1-0.6,0c0.1,0.7,0.9,2.4,0.8,2.7c0,0.1,0,0.5,0.1,0.5
					c1.8,0.4,3.6,0.5,5.2,1.1c0.5,0.2,0.5-0.6,0.4-0.8c-0.5-0.7-1.2-1.3-1.7-1.9c-0.4-0.4-0.6-0.8-0.8-1.2c-0.4-0.6-0.7-1.2-0.9-1.9
					c-0.5-0.6-1.3-0.7-1.9-1.1c0,0-0.1,0-0.2,0.1c-0.1,0.8-0.4,1.7-0.5,2.5C50.8,91,51.1,91.5,51.1,91.2z"/>
				<path class="st5" d="M50.9,90.9c0.1-0.8,0.4-1.7,0.5-2.5c-0.1,0-0.2-0.1-0.4-0.1c0.6,0.5,1.2,0.8,1.7,1.4
					c0.4,0.4,2.7,4.9,3.1,4.5c-0.6,0.5-4.3-0.6-4.6-0.9c-0.4-0.5-0.6-1.9-0.7-2.6c-0.1-0.4-0.6,0-0.6,0.2c0.2,0.8,0.8,2.1,0.7,2.8
					c0,0.2,0,0.2,0.2,0.4c1.7,0.5,3.9,1.1,5.6,0.8c0.1,0,0.2-0.2,0.1-0.4c-0.4-0.5-0.8-0.8-1.2-1.3c-0.8-0.9-1.5-2.1-2-3.2
					c-0.6-1.3-1.3-1.2-2.4-1.8c0,0-0.1,0-0.1,0.1c-0.1,0.8-0.4,1.7-0.5,2.5C50.5,90.7,50.9,91.1,50.9,90.9z"/>
			</g>
		</g>
	</g>
	<g>
		<path class="st2" d="M62.3,93.4l3.7-1.8l3.3,0.8c0,0-1.3,4-4.3,4.1C62.1,96.7,62.3,93.4,62.3,93.4z"/>
		<g>
			<g>
				<path class="st5" d="M62.8,94c0.9-0.5,2.4-1.4,3.4-1.7c0.9-0.2,2.4,0.5,3.3,0.8c-0.1-0.2-0.2-0.5-0.4-0.7
					c-0.4,0.7-0.7,1.4-1.2,2c-4.1,1.1-5.9,0.7-5.3-1.2c0.1-0.4-0.5-0.4-0.6-0.1c-0.2,1.5,0.4,3.3,2,3.7c1.1,0.2,2,0,2.8-0.6
					c0.7-0.5,0.6-0.4,1.1-0.9c0.6-0.6,1.1-1.8,1.8-2.3c0.2-0.1,0-0.7-0.2-0.7c-1.1-0.2-2.5-0.9-3.4-0.8c-1.1,0.1-2.5,1.2-3.6,1.7
					C62.1,93.5,62.5,94.1,62.8,94z"/>
				<path class="st5" d="M63.1,93.6c1.2-0.6,2.5-1.2,3.7-1.8c-0.2,0-0.4,0-0.6,0c1.1,0.4,2.3,0.6,3.4,0.9c-0.1-0.1-0.1-0.2-0.2-0.5
					c-0.2,0.6-0.6,1.2-1.1,1.5c-1.3,1.7-3.1,1.3-5.7-1.1c0.1-0.4-0.5-0.6-0.6-0.2c-0.4,1.2,0,3.1,1.3,3.7c0.9,0.4,1.9,0.4,2.8,0
					c0.8-0.2,1.2-0.7,1.8-1.3c0.6-0.6,1.1-1.9,1.7-2.4c0.4-0.2,0.2-0.5-0.1-0.6c-0.9-0.2-2.3-0.9-3.3-0.9c-0.4,0-0.9,0.4-1.2,0.5
					c-0.9,0.5-1.8,0.8-2.7,1.3C62.1,93.4,62.8,93.7,63.1,93.6z"/>
				<path class="st5" d="M64.1,94.6c1.2-0.6,2.5-1.2,3.7-1.8c-0.2-0.1-0.5-0.1-0.7-0.2c1.1,0.6,2.4,0.8,3.6,1.4
					c-0.2-0.4-0.6-0.7-0.8-0.9c-0.2,0.6-0.8,1.7-1.4,2.1c-1.9-0.1-3.7-0.2-5.6-0.2c-0.1-0.5,0-0.8,0.1-1.2c0-0.1-0.2-0.6-0.2-0.5
					c-0.5,1.4,0,3.1,1.3,3.7c0.7,0.4,1.2,0.4,1.9,0.1c0.7-0.1,1.3-0.4,1.9-0.9c0.7-0.6,1.8-2.1,2.8-2c0.6,0-0.5-1.2-0.7-1.2
					c-1.1-0.4-2.5-1.1-3.6-0.8c-1.2,0.2-2.5,1.2-3.6,1.7C62.4,93.9,63.7,94.7,64.1,94.6z"/>
				<path class="st5" d="M64,94c1.2-0.6,2.5-1.2,3.7-1.8c-0.4,0-0.7-0.1-1.1-0.1c1.2,0.5,2.4,0.7,3.6,1.2c-0.2-0.2-0.5-0.5-0.6-0.7
					c-0.5,1.4-4.4,7-6.3,3.1c-0.4-0.7-0.6-1.5-0.4-2.4c0.1-0.4-0.5-0.6-0.6-0.2c-0.6,1.9,0.6,4,2.8,3.8c0.4,0,1.2-0.2,1.4-0.4
					c1.5-0.6,2.3-2.7,3.8-3.2c0.6-0.1-0.6-0.8-0.7-0.8c-0.6-0.1-1.7-0.2-2.1-0.6c-0.2-0.2-0.9-0.4-1.3-0.2c-1.2,0.6-2.5,1.2-3.7,1.8
					C62.2,93.6,63.6,94.1,64,94z"/>
				<path class="st5" d="M62.8,93.6c0.9-0.5,2.4-1.4,3.4-1.7c0.9-0.1,2.3,0.6,3.2,0.8c0.1-0.1,0.2-0.2,0.4-0.5
					c-0.6,0.5-0.9,0.8-1.4,1.4c-0.2,0.4-0.5,0.6-0.7,0.9c-1.3,1.7-3.1,0.9-5.2-1.9c0.1-0.4-0.5-0.5-0.6-0.2c-0.9,3.1,2,5,4.6,3.6
					c0.6-0.2,1.2-0.7,1.7-1.3c0.6-0.6,1.1-1.2,1.4-1.9c0-0.9-2-1.4-2.8-1.5c-1.3-0.1-2.8,1.1-4,1.7C62.7,93.1,62.8,93.6,62.8,93.6z"
					/>
				<path class="st5" d="M63.1,94.3c0.9-0.5,2.4-1.5,3.4-1.7c0.9-0.1,2.4,0.6,3.2,1.1c-0.1-0.2-0.2-0.6-0.4-0.8
					c-0.5,0.7-0.8,1.4-1.4,2c-0.4,0.4-0.6,0.6-0.9,0.9c-2.4,1.8-3.9,0.9-4.6-2.5c0,0.1-0.4,0.4-0.4,0.5c0.1,0.8,0.1,1.7,0.6,2.4
					c0.8,1.2,2.3,1.2,3.4,0.8c0.7-0.2,1.2-0.7,1.8-1.2c0.5-0.5,1.3-1.8,2-1.9c0.4-0.1,0-0.9-0.2-0.9c-0.9-0.2-2.4-1.1-3.3-0.9
					c-1.1,0.1-2.6,1.3-3.7,1.8C62.3,93.9,62.8,94.6,63.1,94.3z"/>
				<path class="st5" d="M62.5,93.9c1.1-0.5,2-1.1,3.1-1.4c0.5-0.2,0.6-0.2,1.2-0.1c0.4,0,2,0.5,2.1,0.6c0.2,0.4-1.7,2.4-2,2.6
					c-1.4,0-2.8,0-4.3,0c-0.2-0.4-0.4-0.8-0.4-1.2c0-0.5-0.1-0.8,0.1-1.2c0.1-0.2-0.5,0-0.5,0.2c-0.4,1.8,0.5,3.7,2.4,3.8
					c2.6,0.2,4-2.3,5.3-4c0-0.1,0-0.2,0-0.2c-0.7-0.2-2.5-1.1-3.2-1.1c-0.5,0-1.1,0.5-1.4,0.7c-0.7,0.4-1.5,0.7-2.3,1.1
					C62.7,93.5,62.3,94.1,62.5,93.9z"/>
			</g>
		</g>
	</g>
	<g>
		<g>
			<g>
				<path class="st6" d="M53.8,103.1c3.2,0.9,6.5,1.8,9.8,2c0.2,0,0-0.4-0.1-0.4c-3.3-0.2-6.6-1.1-9.8-2
					C53.7,102.7,53.7,103.1,53.8,103.1z"/>
				<path class="st6" d="M53.8,103c3.2,0.9,6.5,1.8,9.9,2c0.1,0,0.1-0.2,0-0.2c-3.3-0.2-6.6-1.1-9.8-2
					C53.8,102.7,53.7,102.9,53.8,103z"/>
				<path class="st6" d="M54.1,103.3c3.2,0.9,6.5,1.9,9.9,2c0.2,0-0.2-0.5-0.4-0.5c-3.3-0.2-6.6-1.1-9.8-2
					C53.7,102.9,54,103.3,54.1,103.3z"/>
				<path class="st6" d="M54,103.1c3.2,0.9,6.5,1.8,9.8,2c0.2,0-0.1-0.4-0.2-0.4c-3.3-0.2-6.6-1.1-9.8-2
					C53.7,102.7,53.9,103.1,54,103.1z"/>
				<path class="st6" d="M53.7,103c3.2,0.9,6.5,1.8,9.8,2l0.1-0.1c-3.3-0.2-6.6-1.1-9.8-2C53.8,102.9,53.7,103,53.7,103z"/>
				<path class="st6" d="M53.9,103.3c3.2,0.9,6.5,1.9,9.8,2c0.2,0,0-0.5-0.1-0.5c-3.3-0.2-6.6-1.1-9.8-2
					C53.7,102.9,53.8,103.3,53.9,103.3z"/>
				<path class="st6" d="M53.7,103.1c3.2,0.9,6.5,1.9,9.8,2c0.1,0,0.2-0.1,0.1-0.1c-3.3-0.2-6.6-1.1-9.8-2
					C53.7,102.9,53.5,103.1,53.7,103.1z"/>
			</g>
		</g>
	</g>
</g>
</svg>
